<svg xmlns="http://www.w3.org/2000/svg" viewBox="0 0 2606.3 1099.4"><defs><style>.cls-1{fill:#1d1d1b;}.cls-2{fill:#868786;}.cls-3{fill:#015578;}.cls-4{fill:#fff;}.cls-5{fill:#125874;}.cls-6{fill:#a1cce4;}.cls-7{fill:#010101;}.cls-8{fill:#1e1e1c;}</style></defs><g id="Warstwa_1" data-name="Warstwa 1"><path class="cls-1" d="M1109.41,466.71c0-40.63.46-90.73,1.17-117.86h-.35c-5.5,41.17-19,138.06-29.45,207h-34c-7.8-61.74-21.45-163.94-26.9-207.36h-.71c.71,27.72,1.83,81.53,1.83,122.41V555.9H988.48V318.09H1042c9.51,61.1,19.45,130.16,22.66,163.28h.35c3.87-33.46,17.11-105.64,26.87-163.28h51.72V555.9h-34.15Z"/><path class="cls-1" d="M1253.68,446.83h-52.34v76h60.27l-4.57,33h-91.62V318.09h91.16v33.33h-55.24V413.8h52.34Z"/><path class="cls-1" d="M1389,466.71c0-40.63.46-90.73,1.17-117.86h-.35c-5.5,41.17-19,138.06-29.45,207h-34c-7.8-61.74-21.45-163.94-26.9-207.36h-.71c.71,27.72,1.83,81.53,1.83,122.41V555.9h-32.57V318.09h53.48c9.51,61.1,19.45,130.16,22.66,163.28h.35c3.87-33.46,17.11-105.64,26.87-163.28h51.72V555.9H1389Z"/><path class="cls-1" d="M1557,380.89V492.53c0,45.32-19.2,66.82-59.16,66.82-38.53,0-55.67-22.19-55.67-66.21V380.64c0-45.2,22.63-66,58-66C1536.07,314.63,1557,335.68,1557,380.89Zm-78.26-3.43V497.33c0,20.23,7.31,29.6,20.72,29.6,14.43,0,21-8.76,21-30.17V377.21c0-19.31-6-29.85-21-29.85C1485.88,347.36,1478.69,356.94,1478.69,377.46Z"/><path class="cls-1" d="M1679.26,485v9.19c0,27.4-4.59,65.17-54.38,65.17-43.86,0-53-27.63-53-63.83v-120c0-36.79,16.62-60.91,53.63-60.91,44.29,0,52.71,29.49,52.71,62.32v10.56h-36v-14.7c0-16-3.65-25.45-16.8-25.45-12.89,0-17,9-17,25.61V498.55c0,16.08,3.23,28.38,17.42,28.38,13.6,0,17.1-10.85,17.1-28.86V485Z"/><path class="cls-1" d="M1727.69,449.24V555.9h-35.91V318.09H1742c36.15,0,57.26,14.56,57.26,57.13v9.18c0,36.25-14.75,45.82-24.21,49.64,14,6.45,21.82,16.53,21.82,48.77,0,20-.35,58.64,2.19,73.09h-34.69c-3.16-14.4-2.5-53.52-2.5-70.75,0-29.12-3.77-35.91-25.21-35.91Zm0-29.69h8.89c19.62,0,26.68-7.7,26.68-33.53V377.7c0-18.61-4-29.92-24.94-29.92h-10.63Z"/><path class="cls-1" d="M1851.57,491.46,1843,555.9h-36.51l38.35-237.81h50.76l39.83,237.81h-37.53l-9.55-64.44Zm32.55-33c-5.63-41.2-10.88-79.67-13.57-106.26h-1.32c-1,19.51-8.25,70.6-13.1,106.26Z"/><path class="cls-1" d="M2037.21,485v9.19c0,27.4-4.59,65.17-54.38,65.17-43.86,0-53-27.63-53-63.83v-120c0-36.79,16.62-60.91,53.63-60.91,44.29,0,52.71,29.49,52.71,62.32v10.56h-36v-14.7c0-16-3.65-25.45-16.8-25.45-12.89,0-17,9-17,25.61V498.55c0,16.08,3.23,28.38,17.42,28.38,13.6,0,17.1-10.85,17.1-28.86V485Z"/><path class="cls-1" d="M2075.78,555.9V471.36a23.68,23.68,0,0,0-1.32-8l-44.29-145.31h39.71c9.69,38.91,20.82,83.7,24.48,109.33h.36c4.88-27.75,15.81-71.2,24.74-109.33h38.14l-45.2,148.34a41.18,41.18,0,0,0-.71,8.93V555.9Z"/><path class="cls-2" d="M987.66,669.17H980V666h18.61v3.18h-7.53V713h-3.45Z"/><path class="cls-2" d="M1005,663.89v17.05c.78-2.05,2.88-3.93,6.41-3.93,5.21,0,6.73,3.93,6.73,9.07V713h-3.45V686.89c0-3.19-.32-6.62-4.2-6.62-4.54,0-5.49,3.67-5.49,9.6V713h-3.44V663.89Z"/><path class="cls-2" d="M1027.49,695.67v6.21c0,4.07.75,8.57,4.81,8.57,3.75,0,4.56-2.89,4.56-6.87v-.38h3.41v.32c0,4.37-1.07,10-8,10-6.23,0-8.15-4.32-8.15-11.52V687.68c0-5.73,2.13-10.67,8.31-10.67s8,5,8,10.72v7.94Zm9.47-3v-5c0-3.31-.37-7.61-4.64-7.61-4.1,0-4.82,3.58-4.82,7.67v4.93Z"/><path class="cls-2" d="M1072.24,699.87v1.43c0,6.38-1.2,12.23-8.7,12.23-7.74,0-8.82-6-8.82-12.7v-24c0-7.7,3.19-11.39,8.84-11.39,7.24,0,8.47,5.43,8.47,11.33v1.65h-3.57V676.7c0-4.13-.48-8.14-5-8.14-4.24,0-5.19,3.53-5.19,8.32V701c0,5.84,1.32,9.44,5.38,9.44,4.39,0,5-3.94,5-9v-1.51Z"/><path class="cls-2" d="M1081.63,663.89v17.05c.79-2.05,2.88-3.93,6.41-3.93,5.21,0,6.73,3.93,6.73,9.07V713h-3.44V686.89c0-3.19-.33-6.62-4.21-6.62-4.54,0-5.49,3.67-5.49,9.6V713h-3.44V663.89Z"/><path class="cls-2" d="M1116.1,707.63c0,2.54.06,4.49.14,5.32H1113a20.12,20.12,0,0,1-.31-3.07c-1.09,2.93-3.46,3.63-5.75,3.63-5,0-6.92-4.26-6.92-9.8v-.63c0-7.5,4.32-10.69,10.57-10.69h2V686c0-3.51-.69-5.87-3.91-5.87s-4.16,2.43-4.16,5.61V687h-3.43v-1.18c0-4.81,1.93-8.77,7.69-8.77s7.31,3.93,7.31,8.79Zm-3.42-12.29h-2.11c-4.57,0-7.15,2-7.15,7.61v.62c0,3.63,1,6.72,4.2,6.72,3.89,0,5.06-3.29,5.06-9Z"/><path class="cls-2" d="M1123.11,713V663.89h3.44V713Z"/><path class="cls-2" d="M1133.51,713V663.89H1137V713Z"/><path class="cls-2" d="M1146.28,695.67v6.21c0,4.07.75,8.57,4.82,8.57,3.74,0,4.56-2.89,4.56-6.87v-.38h3.41v.32c0,4.37-1.07,10-8,10-6.23,0-8.15-4.32-8.15-11.52V687.68c0-5.73,2.13-10.67,8.31-10.67s8,5,8,10.72v7.94Zm9.48-3v-5c0-3.31-.37-7.61-4.64-7.61-4.1,0-4.83,3.58-4.83,7.67v4.93Z"/><path class="cls-2" d="M1164.72,688.24c0-7,0-8.81-.07-10.66h3.27a35,35,0,0,1,.17,3.76c1.05-3,3.3-4.33,6.45-4.33,3.57,0,6.77,1.93,6.77,8.3V713h-3.45V686c0-3.59-1.18-5.75-4.19-5.75-3.29,0-5.5,1.57-5.5,9.6V713h-3.45Z"/><path class="cls-2" d="M1204,713.1c0,6.7-.83,12.41-8.81,12.41-6.64,0-8-4.73-8-8.51v-.2h3.51v.26c0,2.31.87,5.4,4.67,5.4,4.17,0,5.18-3.06,5.18-8.61v-5c-1,2.73-2.83,4-6.09,4-4.66,0-7.22-3.18-7.22-10.64V687.36c0-7.22,3.33-10.35,7.93-10.35,3.57,0,5.3,1.94,5.75,3.62,0-1,.16-2.2.24-3h3c-.07,1.78-.14,5.15-.14,9.64Zm-13.26-25.6v14.35c0,5.21,1.43,7.73,4.38,7.73,4.76,0,5.49-5.21,5.49-10.28V688.8c0-4.82-.52-8.53-5-8.53C1192.06,680.27,1190.73,683.06,1190.73,687.5Z"/><path class="cls-2" d="M1213.35,695.67v6.21c0,4.07.75,8.57,4.81,8.57,3.75,0,4.56-2.89,4.56-6.87v-.38h3.41v.32c0,4.37-1.07,10-8.05,10-6.23,0-8.15-4.32-8.15-11.52V687.68c0-5.73,2.13-10.67,8.31-10.67s8,5,8,10.72v7.94Zm9.47-3v-5c0-3.31-.37-7.61-4.64-7.61-4.1,0-4.82,3.58-4.82,7.67v4.93Z"/><path class="cls-2" d="M1257.26,687v15.65c0,7.75-3.52,10.83-8.51,10.83s-8.31-2.93-8.31-10.53V687c0-6.21,3.06-10,8.52-10C1254.59,677,1257.26,680.85,1257.26,687Zm-13.31,0v16c0,4.56,1.6,7.31,4.88,7.31,3,0,4.93-2,4.93-7.33v-16c0-4-1.46-6.92-4.88-6.92S1244,682.69,1244,687.07Z"/><path class="cls-2" d="M1264.2,713V680.69h-3.93v-3.11h3.93v-6.06c0-3.9,1.35-7.92,6.41-7.92a8.54,8.54,0,0,1,2.11.22v3.3a8.11,8.11,0,0,0-1.79-.18c-2.72,0-3.29,2-3.29,4.92v5.72h4.72v3.11h-4.72V713Z"/><path class="cls-2" d="M1285.12,666h7.31c6.65,0,9.64,3.43,9.64,10.52v2.92c0,6.59-1.65,11.84-9.94,11.84h-3.56V713h-3.45Zm3.45,22.24h3.35c5.88,0,6.66-3.7,6.66-8.79v-2.66c0-4.07-1-7.75-6.37-7.75h-3.64Z"/><path class="cls-2" d="M1323.34,687v15.65c0,7.75-3.53,10.83-8.51,10.83s-8.31-2.93-8.31-10.53V687c0-6.21,3-10,8.52-10C1320.66,677,1323.34,680.85,1323.34,687Zm-13.32,0v16c0,4.56,1.6,7.31,4.89,7.31,3,0,4.92-2,4.92-7.33v-16c0-4-1.46-6.92-4.87-6.92S1310,682.69,1310,687.07Z"/><path class="cls-2" d="M1332.73,709.78V725h-3.45V687.81c0-4.86,0-7.94-.07-10.23h3.27c.08.81.17,2.08.17,4A6.14,6.14,0,0,1,1339,677c4.78,0,7.12,3.13,7.12,10.17v15.36c0,7.62-3.26,11-7.49,11C1334.76,713.51,1333.36,711.46,1332.73,709.78Zm9.87-7.11v-15.6c0-5-1.92-6.8-4.37-6.8-4.69,0-5.56,4.29-5.56,9.25v11.09c0,4.47.52,9.65,5.22,9.65C1341.14,710.26,1342.6,707.58,1342.6,702.67Z"/><path class="cls-2" d="M1368.32,703.94c0,4.14,0,7.46.07,9h-3.27c-.08-.6-.16-2.46-.16-3.91-1,3.29-3,4.47-6.18,4.47-2.63,0-6.78-.81-6.78-8.91v-27h3.44v26.1c0,4.87,1.27,6.64,4.25,6.64,2.62,0,5.19-1.54,5.19-9.82V677.58h3.44Z"/><path class="cls-2" d="M1375.32,713V663.89h3.45V713Z"/><path class="cls-2" d="M1385.73,677.58h3.44V713h-3.44Zm0-13.69h3.45v6.93h-3.45Z"/><path class="cls-2" d="M1397.67,702.83v1.51c0,4.31,1.89,6.11,4.62,6.11,3.23,0,4.47-2.06,4.47-6,0-4.23-1.27-5.9-5.12-8.49-4.65-3.11-6.75-5.55-6.75-10.35s2-8.65,7.56-8.65c6,0,7.39,4.2,7.39,8.69v1.76h-3.41v-1.79c0-3.39-.9-5.59-4.09-5.59-2.79,0-4,1.9-4,5.24s1,4.74,4.75,7.31c4.5,3,7.15,5.46,7.15,11.32,0,6.15-2.53,9.56-8.21,9.56-6.2,0-7.92-4.33-7.92-9.07v-1.61Z"/><path class="cls-2" d="M1412.35,677.58h4.27v-8.84H1420v8.84h5.37v3.11H1420v25.76c0,1.93.39,4,2.68,4a13.41,13.41,0,0,0,2.43-.21V713a12.12,12.12,0,0,1-3.51.41c-2.72,0-5-1.41-5-6.3v-26.4h-4.27Z"/><path class="cls-2" d="M1461.4,691.89c0-9,.19-17.87.33-22.64h-.07c-1.23,7.69-5.5,29.49-8.34,43.7h-3.55c-2.17-12-6.62-35.48-7.79-43.72h-.14c.14,5.43.41,16.1.41,24.13V713h-3.32V666H1444c3.09,15.23,7,35.08,7.63,40.65h.07c.71-5.29,5-26.35,8.07-40.65h5.07v47h-3.44Z"/><path class="cls-2" d="M1474.35,695.67v6.21c0,4.07.75,8.57,4.81,8.57,3.75,0,4.56-2.89,4.56-6.87v-.38h3.41v.32c0,4.37-1.06,10-8.05,10-6.23,0-8.15-4.32-8.15-11.52V687.68c0-5.73,2.13-10.67,8.32-10.67s8,5,8,10.72v7.94Zm9.48-3v-5c0-3.31-.38-7.61-4.64-7.61s-4.83,3.58-4.83,7.67v4.93Z"/><path class="cls-2" d="M1492.79,687.72c0-6,0-8.35-.07-10.14H1496a27.18,27.18,0,0,1,.16,3.45,5.87,5.87,0,0,1,5.94-4c2.61,0,4.63,1,5.37,4.28a6.43,6.43,0,0,1,6.33-4.28c3.19,0,6.43,1.29,6.43,8V713h-3.45V685.87c0-3-.46-5.6-3.77-5.6-3.91,0-4.77,3.69-4.77,7.74V713h-3.46v-26.7c0-4.23-1-6-3.89-6-3.74,0-4.65,3.81-4.65,8.29V713h-3.44Z"/><path class="cls-2" d="M1542.94,687v15.65c0,7.75-3.53,10.83-8.51,10.83s-8.31-2.93-8.31-10.53V687c0-6.21,3.05-10,8.52-10C1540.27,677,1542.94,680.85,1542.94,687Zm-13.32,0v16c0,4.56,1.6,7.31,4.89,7.31,3,0,4.92-2,4.92-7.33v-16c0-4-1.46-6.92-4.87-6.92S1529.62,682.69,1529.62,687.07Z"/><path class="cls-2" d="M1548.88,689.65c0-5.58,0-9.27-.07-12.07h3.32c.07,1.1.15,2.67.15,5.38a7.64,7.64,0,0,1,7.21-5.83v4.27c-4.6.06-7.16,3.65-7.16,9.43V713h-3.45Z"/><path class="cls-2" d="M1566.1,677.58c2.66,13.78,5.23,27,5.57,30.8h.09c.75-5.45,3.78-19.88,5.86-30.8h3.51L1573.32,715c-2,9.61-4.5,10.45-8.25,10.45a9.54,9.54,0,0,1-2.11-.28l0-3.3a9.31,9.31,0,0,0,1.88.25c2.83,0,3.91-1.35,5.12-7.92l-7.6-36.61Z"/><path class="cls-2" d="M1595.05,666h7.31c6.65,0,9.64,3.43,9.64,10.52v2.92c0,6.59-1.65,11.84-9.94,11.84h-3.56V713h-3.45Zm3.45,22.24h3.35c5.88,0,6.66-3.7,6.66-8.79v-2.66c0-4.07-1-7.75-6.37-7.75h-3.64Z"/><path class="cls-2" d="M1633.27,687v15.65c0,7.75-3.53,10.83-8.51,10.83s-8.31-2.93-8.31-10.53V687c0-6.21,3-10,8.52-10S1633.27,680.85,1633.27,687Zm-13.32,0v16c0,4.56,1.6,7.31,4.89,7.31,3,0,4.92-2,4.92-7.33v-16c0-4-1.46-6.92-4.87-6.92S1620,682.69,1620,687.07Z"/><path class="cls-2" d="M1639.21,713V663.89h3.45V713Z"/><path class="cls-2" d="M1649.61,677.58h3.45V713h-3.45Zm0-13.69h3.44v6.93h-3.44Z"/><path class="cls-2" d="M1656.35,677.58h4.26v-8.84H1664v8.84h5.37v3.11H1664v25.76c0,1.93.39,4,2.69,4a13.41,13.41,0,0,0,2.43-.21V713a12.16,12.16,0,0,1-3.51.41c-2.73,0-5-1.41-5-6.3v-26.4h-4.26Z"/><path class="cls-2" d="M1673.3,677.58h3.45V713h-3.45Zm0-13.69h3.45v6.93h-3.45Z"/><path class="cls-2" d="M1698.56,702.18v.49c0,5.92-1.51,10.84-8,10.84-6,0-7.85-4.3-7.85-11.36V687.29c0-6.14,2.37-10.28,8.14-10.28,6.22,0,7.76,4.63,7.76,9.59v1.51h-3.48v-1c0-3.55-.6-7-4.36-7-3.21,0-4.55,2.37-4.55,7.42v15.06c0,3.73.72,7.89,4.43,7.89,3.18,0,4.48-2,4.48-7.55v-.72Z"/><path class="cls-2" d="M1706,702.83v1.51c0,4.31,1.9,6.11,4.62,6.11,3.23,0,4.48-2.06,4.48-6,0-4.23-1.27-5.9-5.12-8.49-4.65-3.11-6.76-5.55-6.76-10.35s2-8.65,7.56-8.65c6,0,7.39,4.2,7.39,8.69v1.76h-3.4v-1.79c0-3.39-.91-5.59-4.09-5.59-2.8,0-4,1.9-4,5.24s1,4.74,4.75,7.31c4.49,3,7.14,5.46,7.14,11.32,0,6.15-2.53,9.56-8.2,9.56-6.21,0-7.93-4.33-7.93-9.07v-1.61Z"/><path class="cls-2" d="M1733.84,713V680.69h-3.93v-3.11h3.93v-6.06c0-3.9,1.35-7.92,6.41-7.92a8.54,8.54,0,0,1,2.11.22v3.3a8.18,8.18,0,0,0-1.79-.18c-2.73,0-3.29,2-3.29,4.92v5.72H1742v3.11h-4.71V713Z"/><path class="cls-2" d="M1761.27,687v15.65c0,7.75-3.52,10.83-8.51,10.83s-8.31-2.93-8.31-10.53V687c0-6.21,3.06-10,8.52-10C1758.6,677,1761.27,680.85,1761.27,687Zm-13.31,0v16c0,4.56,1.6,7.31,4.88,7.31,3,0,4.93-2,4.93-7.33v-16c0-4-1.46-6.92-4.88-6.92S1748,682.69,1748,687.07Z"/><path class="cls-2" d="M1767.22,689.65c0-5.58,0-9.27-.07-12.07h3.32c.07,1.1.15,2.67.15,5.38a7.63,7.63,0,0,1,7.21-5.83v4.27c-4.61.06-7.17,3.65-7.17,9.43V713h-3.44Z"/><path class="cls-2" d="M1805.64,689.32H1795v20.46h12l-.51,3.17h-14.94V666h14.75v3.18H1795v17h10.68Z"/><path class="cls-2" d="M1827,703.94c0,4.14,0,7.46.07,9h-3.27c-.08-.6-.16-2.46-.16-3.91-1,3.29-3.05,4.47-6.18,4.47-2.63,0-6.78-.81-6.78-8.91v-27h3.45v26.1c0,4.87,1.26,6.64,4.25,6.64,2.61,0,5.18-1.54,5.18-9.82V677.58H1827Z"/><path class="cls-2" d="M1834,689.65c0-5.58,0-9.27-.07-12.07h3.32c.07,1.1.15,2.67.15,5.38a7.64,7.64,0,0,1,7.21-5.83v4.27c-4.61.06-7.17,3.65-7.17,9.43V713H1834Z"/><path class="cls-2" d="M1864.25,687v15.65c0,7.75-3.52,10.83-8.51,10.83s-8.31-2.93-8.31-10.53V687c0-6.21,3.06-10,8.52-10C1861.58,677,1864.25,680.85,1864.25,687Zm-13.31,0v16c0,4.56,1.6,7.31,4.88,7.31,3,0,4.93-2,4.93-7.33v-16c0-4-1.46-6.92-4.88-6.92S1850.94,682.69,1850.94,687.07Z"/><path class="cls-2" d="M1873.64,709.78V725h-3.44V687.81c0-4.86,0-7.94-.07-10.23h3.27c.08.81.16,2.08.16,4a6.15,6.15,0,0,1,6.34-4.55c4.77,0,7.12,3.13,7.12,10.17v15.36c0,7.62-3.26,11-7.49,11C1875.68,713.51,1874.27,711.46,1873.64,709.78Zm9.87-7.11v-15.6c0-5-1.92-6.8-4.37-6.8-4.68,0-5.56,4.29-5.56,9.25v11.09c0,4.47.53,9.65,5.22,9.65C1882.05,710.26,1883.51,707.58,1883.51,702.67Z"/><path class="cls-2" d="M1895.41,695.67v6.21c0,4.07.75,8.57,4.82,8.57,3.74,0,4.56-2.89,4.56-6.87v-.38h3.41v.32c0,4.37-1.07,10-8.06,10-6.23,0-8.14-4.32-8.14-11.52V687.68c0-5.73,2.12-10.67,8.31-10.67s8,5,8,10.72v7.94Zm9.48-3v-5c0-3.31-.37-7.61-4.64-7.61-4.1,0-4.83,3.58-4.83,7.67v4.93Z"/><path class="cls-2" d="M1914.51,688.31v-9.2h3.33v9.2Zm0,24.64v-9.2h3.33V713Z"/><path class="cls-2" d="M989.28,753.53h-7.64v-3.18h18.62v3.18h-7.53v43.78h-3.45Z"/><path class="cls-2" d="M1016.71,771.38V787c0,7.74-3.52,10.83-8.51,10.83s-8.31-2.93-8.31-10.54V771.39c0-6.21,3.06-10,8.52-10C1014,761.37,1016.71,765.21,1016.71,771.38Zm-13.31,0v16c0,4.56,1.6,7.31,4.88,7.31,3,0,4.93-2,4.93-7.33v-16c0-4-1.46-6.92-4.88-6.92S1003.4,767,1003.4,771.42Z"/><path class="cls-2" d="M1024.1,761.93c2.93,18.73,4,25.86,4.39,30.76h.07c.54-4.73,1.4-10.24,5.07-30.76h3.81c3.45,20.66,4.41,26.16,4.82,30.66h.07c.35-4,1-8.84,4.52-30.66h3.51l-6.21,35.38h-4c-2.08-12.72-4.08-24.45-4.76-30.08h-.07c-.42,5.39-2.3,15.5-5,30.08h-4l-5.91-35.38Z"/><path class="cls-2" d="M1068.93,792c0,2.55.06,4.5.14,5.33h-3.27a20.39,20.39,0,0,1-.32-3.08c-1.09,2.94-3.46,3.64-5.75,3.64-5,0-6.92-4.26-6.92-9.8v-.63c0-7.5,4.32-10.7,10.58-10.7h2v-6.36c0-3.51-.7-5.87-3.92-5.87s-4.16,2.43-4.16,5.6v1.2h-3.42v-1.17c0-4.82,1.92-8.77,7.69-8.77s7.3,3.93,7.3,8.79Zm-3.41-12.28h-2.12c-4.57,0-7.15,2-7.15,7.61v.62c0,3.63,1,6.72,4.2,6.72,3.9,0,5.07-3.29,5.07-9Z"/><path class="cls-2" d="M1075.94,774c0-5.59,0-9.27-.07-12.08h3.32c.07,1.11.15,2.67.15,5.39a7.64,7.64,0,0,1,7.21-5.83v4.27c-4.61.06-7.16,3.64-7.16,9.43v22.12h-3.45Z"/><path class="cls-2" d="M1106.2,748.25v40.43c0,3.37,0,6.6.07,8.63H1103c-.09-.52-.17-2.48-.17-3.57a5.89,5.89,0,0,1-6.11,4.13c-5.68,0-7.34-4.46-7.34-11.2v-15c0-6.33,2.56-10.34,7.84-10.34,3.49,0,4.89,1.62,5.53,2.77V748.25Zm-13.32,23.66v14.63c0,5.39,1.35,8.08,4.51,8.08,4.28,0,5.36-4.22,5.36-9.69V772.77c0-3.94-.41-8.15-5.17-8.15C1094.31,764.62,1092.88,767.44,1092.88,771.91Z"/><path class="cls-2" d="M1114.73,787.18v1.51c0,4.32,1.9,6.11,4.62,6.11,3.23,0,4.48-2.06,4.48-5.95,0-4.22-1.27-5.9-5.12-8.48-4.65-3.12-6.76-5.55-6.76-10.35s2-8.65,7.56-8.65c6,0,7.39,4.2,7.39,8.69v1.76h-3.4V770c0-3.39-.9-5.59-4.09-5.59-2.8,0-4,1.9-4,5.24s1,4.74,4.75,7.31c4.49,3,7.14,5.46,7.14,11.32,0,6.15-2.53,9.56-8.2,9.56-6.21,0-7.93-4.33-7.93-9.07v-1.62Z"/><path class="cls-2" d="M1156.54,773.68h-10.68v20.46h12l-.51,3.17h-14.94v-47h14.75v3.18h-11.3v17h10.68Z"/><path class="cls-2" d="M1166.42,765v32.27H1163V765H1159v-3.11H1163v-6.17c0-3.77,1.07-7.8,6.37-7.8a6.83,6.83,0,0,1,1.76.22v3.24a8.72,8.72,0,0,0-1.43-.13c-2.84,0-3.25,2.07-3.25,4.92v5.72h7.82v-6.1c0-3.78,1.07-7.87,6.37-7.87a6.42,6.42,0,0,1,1.76.22v3.24a8.85,8.85,0,0,0-1.44-.13c-2.79,0-3.25,2.12-3.25,5v5.67h4.72V765h-4.72v32.27h-3.44V765Z"/><path class="cls-2" d="M1188.32,780v6.2c0,4.08.75,8.57,4.82,8.57,3.74,0,4.55-2.88,4.55-6.87v-.37h3.42v.31c0,4.38-1.07,10-8.06,10-6.23,0-8.14-4.32-8.14-11.53V772c0-5.74,2.12-10.67,8.31-10.67s8,5,8,10.72V780Zm9.48-3v-5c0-3.32-.37-7.61-4.64-7.61-4.11,0-4.83,3.58-4.83,7.67V777Z"/><path class="cls-2" d="M1221.68,786.54V787c0,5.91-1.51,10.84-8,10.84-6,0-7.85-4.3-7.85-11.36V771.64c0-6.14,2.37-10.27,8.14-10.27,6.22,0,7.76,4.62,7.76,9.58v1.52h-3.48v-1c0-3.56-.6-7-4.36-7-3.21,0-4.55,2.37-4.55,7.41v15.06c0,3.74.72,7.89,4.43,7.89,3.18,0,4.48-1.94,4.48-7.54v-.72Z"/><path class="cls-2" d="M1224.45,761.93h4.27V753.1h3.39v8.83h5.37V765h-5.37v25.77c0,1.92.39,4,2.68,4a14.19,14.19,0,0,0,2.43-.21v2.77a11.75,11.75,0,0,1-3.5.42c-2.73,0-5-1.42-5-6.3V765h-4.27Z"/><path class="cls-2" d="M1241.41,761.93h3.45v35.38h-3.45Zm0-13.68h3.45v6.93h-3.45Z"/><path class="cls-2" d="M1253,761.93c1,5.27,5,25.44,5.65,31.32h.07c.47-5.08,4.84-25.52,5.86-31.32h3.5l-7.46,35.38h-4l-7.26-35.38Z"/><path class="cls-2" d="M1274.85,780v6.2c0,4.08.75,8.57,4.82,8.57,3.74,0,4.55-2.88,4.55-6.87v-.37h3.42v.31c0,4.38-1.07,10-8.06,10-6.23,0-8.14-4.32-8.14-11.53V772c0-5.74,2.12-10.67,8.31-10.67s8,5,8,10.72V780Zm9.48-3v-5c0-3.32-.37-7.61-4.64-7.61-4.1,0-4.83,3.58-4.83,7.67V777Z"/><path class="cls-2" d="M1306.64,774.74v22.57h-3.45v-47h6.94c7,0,9.95,3.16,9.95,10.45v2.4c0,5.8-1.75,8.95-4.78,9.95,3.14,1,4.41,3.41,4.41,9.63,0,4.05-.07,11.48.48,14.53h-3.4c-.58-3-.5-11-.5-14.22,0-6.33-.94-8.35-5.9-8.35Zm0-3h4c4.89,0,5.89-3.36,5.89-8.32V761c0-4.74-1.45-7.56-6.57-7.56h-3.36Z"/><path class="cls-2" d="M1329,780v6.2c0,4.08.75,8.57,4.81,8.57,3.75,0,4.56-2.88,4.56-6.87v-.37h3.41v.31c0,4.38-1.06,10-8,10-6.23,0-8.15-4.32-8.15-11.53V772c0-5.74,2.13-10.67,8.32-10.67s8,5,8,10.72V780Zm9.47-3v-5c0-3.32-.37-7.61-4.63-7.61-4.11,0-4.83,3.58-4.83,7.67V777Z"/><path class="cls-2" d="M1349.58,787.18v1.51c0,4.32,1.9,6.11,4.62,6.11,3.23,0,4.48-2.06,4.48-5.95,0-4.22-1.27-5.9-5.12-8.48-4.65-3.12-6.76-5.55-6.76-10.35s2-8.65,7.57-8.65c6,0,7.38,4.2,7.38,8.69v1.76h-3.4V770c0-3.39-.9-5.59-4.09-5.59-2.8,0-4,1.9-4,5.24s1,4.74,4.75,7.31c4.49,3,7.15,5.46,7.15,11.32,0,6.15-2.54,9.56-8.21,9.56-6.2,0-7.92-4.33-7.92-9.07v-1.62Z"/><path class="cls-2" d="M1370.76,794.14V809.3h-3.45V772.17c0-4.86,0-7.94-.07-10.24h3.27c.08.81.16,2.09.16,4a6.16,6.16,0,0,1,6.34-4.55c4.78,0,7.12,3.12,7.12,10.16V786.9c0,7.62-3.26,11-7.49,11C1372.79,797.87,1371.39,795.81,1370.76,794.14Zm9.86-7.11V771.42c0-5-1.91-6.8-4.37-6.8-4.68,0-5.55,4.29-5.55,9.25V785c0,4.47.52,9.65,5.21,9.65C1379.16,794.62,1380.62,791.94,1380.62,787Z"/><path class="cls-2" d="M1405.93,771.38V787c0,7.74-3.52,10.83-8.51,10.83s-8.31-2.93-8.31-10.54V771.39c0-6.21,3.06-10,8.52-10C1403.26,761.37,1405.93,765.21,1405.93,771.38Zm-13.31,0v16c0,4.56,1.6,7.31,4.88,7.31,3,0,4.93-2,4.93-7.33v-16c0-4-1.46-6.92-4.88-6.92S1392.62,767,1392.62,771.42Z"/><path class="cls-2" d="M1411.88,772.6c0-7,0-8.82-.07-10.67h3.27a36.21,36.21,0,0,1,.16,3.77c1-3,3.31-4.33,6.45-4.33,3.57,0,6.77,1.93,6.77,8.3v27.64H1425V770.37c0-3.58-1.18-5.75-4.19-5.75-3.29,0-5.5,1.57-5.5,9.6v23.09h-3.44Z"/><path class="cls-2" d="M1436.75,787.18v1.51c0,4.32,1.9,6.11,4.62,6.11,3.23,0,4.48-2.06,4.48-5.95,0-4.22-1.27-5.9-5.12-8.48-4.65-3.12-6.76-5.55-6.76-10.35s2-8.65,7.56-8.65c6,0,7.39,4.2,7.39,8.69v1.76h-3.4V770c0-3.39-.91-5.59-4.09-5.59-2.8,0-4,1.9-4,5.24s1,4.74,4.75,7.31c4.49,3,7.14,5.46,7.14,11.32,0,6.15-2.53,9.56-8.2,9.56-6.21,0-7.93-4.33-7.93-9.07v-1.62Z"/><path class="cls-2" d="M1457.34,780v6.2c0,4.08.75,8.57,4.81,8.57,3.75,0,4.56-2.88,4.56-6.87v-.37h3.41v.31c0,4.38-1.07,10-8,10-6.23,0-8.15-4.32-8.15-11.53V772c0-5.74,2.13-10.67,8.31-10.67s8,5,8,10.72V780Zm9.47-3v-5c0-3.32-.37-7.61-4.64-7.61-4.1,0-4.82,3.58-4.82,7.67V777Z"/><path class="cls-2" d="M1477.94,787.18v1.51c0,4.32,1.9,6.11,4.62,6.11,3.23,0,4.48-2.06,4.48-5.95,0-4.22-1.27-5.9-5.12-8.48-4.65-3.12-6.76-5.55-6.76-10.35s2-8.65,7.56-8.65c6,0,7.39,4.2,7.39,8.69v1.76h-3.4V770c0-3.39-.9-5.59-4.09-5.59-2.8,0-4,1.9-4,5.24s1,4.74,4.75,7.31c4.49,3,7.14,5.46,7.14,11.32,0,6.15-2.53,9.56-8.2,9.56-6.21,0-7.93-4.33-7.93-9.07v-1.62Z"/><path class="cls-2" d="M1501.69,761.93H1506V753.1h3.39v8.83h5.37V765h-5.37v25.77c0,1.92.39,4,2.69,4a14.16,14.16,0,0,0,2.42-.21v2.77a11.75,11.75,0,0,1-3.5.42c-2.73,0-5-1.42-5-6.3V765h-4.27Z"/><path class="cls-2" d="M1534.15,771.38V787c0,7.74-3.53,10.83-8.51,10.83s-8.31-2.93-8.31-10.54V771.39c0-6.21,3.05-10,8.52-10C1531.48,761.37,1534.15,765.21,1534.15,771.38Zm-13.32,0v16c0,4.56,1.6,7.31,4.89,7.31,3,0,4.92-2,4.92-7.33v-16c0-4-1.46-6.92-4.87-6.92S1520.83,767,1520.83,771.42Z"/><path class="cls-2" d="M1572.46,776.24c0-9,.19-17.86.33-22.64h-.07c-1.23,7.7-5.5,29.5-8.34,43.71h-3.55c-2.17-12-6.61-35.49-7.79-43.72h-.14c.14,5.43.41,16.1.41,24.12v19.6H1550v-47h5.07c3.09,15.22,7,35.08,7.63,40.65h.07c.72-5.3,5-26.35,8.08-40.65h5.06v47h-3.44Z"/><path class="cls-2" d="M1583.25,761.93h3.45v35.38h-3.45Zm0-13.68h3.45v6.93h-3.45Z"/><path class="cls-2" d="M1593.66,797.31V748.25h3.44v49.06Z"/><path class="cls-2" d="M1604.06,761.93h3.45v35.38h-3.45Zm0-13.68h3.45v6.93h-3.45Z"/><path class="cls-2" d="M1610.79,761.93h4.27V753.1h3.39v8.83h5.37V765h-5.37v25.77c0,1.92.38,4,2.68,4a14.37,14.37,0,0,0,2.43-.21v2.77a11.82,11.82,0,0,1-3.51.42c-2.72,0-5-1.42-5-6.3V765h-4.27Z"/><path class="cls-2" d="M1642.6,792c0,2.55.06,4.5.14,5.33h-3.27a20.39,20.39,0,0,1-.32-3.08c-1.09,2.94-3.46,3.64-5.75,3.64-5,0-6.92-4.26-6.92-9.8v-.63c0-7.5,4.32-10.7,10.58-10.7h2v-6.36c0-3.51-.7-5.87-3.92-5.87s-4.16,2.43-4.16,5.6v1.2h-3.42v-1.17c0-4.82,1.92-8.77,7.69-8.77s7.3,3.93,7.3,8.79Zm-3.41-12.28h-2.12c-4.57,0-7.15,2-7.15,7.61v.62c0,3.63,1,6.72,4.2,6.72,3.9,0,5.07-3.29,5.07-9Z"/><path class="cls-2" d="M1649.61,772.6c0-7,0-8.82-.07-10.67h3.27a35.42,35.42,0,0,1,.17,3.77c1-3,3.3-4.33,6.45-4.33,3.56,0,6.76,1.93,6.76,8.3v27.64h-3.44V770.37c0-3.58-1.19-5.75-4.19-5.75-3.29,0-5.5,1.57-5.5,9.6v23.09h-3.45Z"/><path class="cls-2" d="M1669.42,761.93h4.27V753.1h3.38v8.83h5.38V765h-5.38v25.77c0,1.92.39,4,2.69,4a14.37,14.37,0,0,0,2.43-.21v2.77a11.82,11.82,0,0,1-3.51.42c-2.73,0-5-1.42-5-6.3V765h-4.27Z"/><path class="cls-2" d="M1694.45,750.35h3.44v43.82h11.81l-.51,3.14h-14.74Z"/><path class="cls-2" d="M1716.16,780v6.2c0,4.08.75,8.57,4.81,8.57,3.75,0,4.56-2.88,4.56-6.87v-.37h3.41v.31c0,4.38-1.06,10-8,10-6.23,0-8.14-4.32-8.14-11.53V772c0-5.74,2.12-10.67,8.31-10.67s8,5,8,10.72V780Zm9.48-3v-5c0-3.32-.38-7.61-4.64-7.61-4.11,0-4.83,3.58-4.83,7.67V777Z"/><path class="cls-2" d="M1750.66,797.45c0,6.71-.83,12.41-8.81,12.41-6.64,0-8-4.72-8-8.5v-.2h3.5v.25c0,2.31.87,5.41,4.68,5.41,4.17,0,5.18-3.06,5.18-8.61v-5c-1,2.72-2.84,4-6.09,4-4.66,0-7.23-3.18-7.23-10.64V771.72c0-7.22,3.33-10.35,7.94-10.35,3.57,0,5.29,1.93,5.75,3.62,0-1,.15-2.2.23-3.06h3c-.07,1.79-.15,5.16-.15,9.65Zm-13.25-25.59V786.2c0,5.22,1.42,7.74,4.38,7.74,4.76,0,5.49-5.21,5.49-10.28V773.15c0-4.82-.52-8.53-5-8.53C1738.73,764.62,1737.41,767.42,1737.41,771.86Z"/><path class="cls-2" d="M1757.65,761.93h3.45v35.38h-3.45Zm0-13.68h3.45v6.93h-3.45Z"/><path class="cls-2" d="M1769.59,787.18v1.51c0,4.32,1.9,6.11,4.62,6.11,3.23,0,4.48-2.06,4.48-5.95,0-4.22-1.27-5.9-5.12-8.48-4.65-3.12-6.76-5.55-6.76-10.35s2-8.65,7.57-8.65c6,0,7.38,4.2,7.38,8.69v1.76h-3.4V770c0-3.39-.9-5.59-4.09-5.59-2.8,0-4,1.9-4,5.24s1,4.74,4.75,7.31c4.49,3,7.14,5.46,7.14,11.32,0,6.15-2.53,9.56-8.2,9.56-6.21,0-7.93-4.33-7.93-9.07v-1.62Z"/><path class="cls-2" d="M1787.11,797.31V748.25h3.44v49.06Z"/><path class="cls-2" d="M1811.8,792c0,2.55.06,4.5.14,5.33h-3.27a20.39,20.39,0,0,1-.32-3.08c-1.09,2.94-3.46,3.64-5.75,3.64-5,0-6.92-4.26-6.92-9.8v-.63c0-7.5,4.32-10.7,10.58-10.7h2v-6.36c0-3.51-.7-5.87-3.92-5.87s-4.16,2.43-4.16,5.6v1.2h-3.42v-1.17c0-4.82,1.92-8.77,7.69-8.77s7.3,3.93,7.3,8.79Zm-3.41-12.28h-2.12c-4.57,0-7.15,2-7.15,7.61v.62c0,3.63,1,6.72,4.2,6.72,3.89,0,5.07-3.29,5.07-9Z"/><path class="cls-2" d="M1815.07,761.93h4.27V753.1h3.38v8.83h5.38V765h-5.38v25.77c0,1.92.39,4,2.69,4a14.37,14.37,0,0,0,2.43-.21v2.77a11.82,11.82,0,0,1-3.51.42c-2.73,0-5-1.42-5-6.3V765h-4.27Z"/><path class="cls-2" d="M1832,761.93h3.45v35.38H1832Zm0-13.68h3.44v6.93H1832Z"/><path class="cls-2" d="M1858.21,771.38V787c0,7.74-3.53,10.83-8.51,10.83s-8.31-2.93-8.31-10.54V771.39c0-6.21,3-10,8.52-10S1858.21,765.21,1858.21,771.38Zm-13.32,0v16c0,4.56,1.6,7.31,4.89,7.31,3,0,4.92-2,4.92-7.33v-16c0-4-1.46-6.92-4.88-6.92S1844.89,767,1844.89,771.42Z"/><path class="cls-2" d="M1864.15,772.6c0-7,0-8.82-.07-10.67h3.27a36.21,36.21,0,0,1,.16,3.77c1.06-3,3.31-4.33,6.46-4.33,3.56,0,6.76,1.93,6.76,8.3v27.64h-3.44V770.37c0-3.58-1.19-5.75-4.19-5.75-3.29,0-5.5,1.57-5.5,9.6v23.09h-3.45Z"/><path class="cls-2" d="M1913.18,771.38V787c0,7.74-3.53,10.83-8.51,10.83s-8.31-2.93-8.31-10.54V771.39c0-6.21,3.05-10,8.52-10S1913.18,765.21,1913.18,771.38Zm-13.32,0v16c0,4.56,1.6,7.31,4.89,7.31,3,0,4.92-2,4.92-7.33v-16c0-4-1.46-6.92-4.88-6.92S1899.86,767,1899.86,771.42Z"/><path class="cls-2" d="M1919.12,772.6c0-7,0-8.82-.07-10.67h3.27a36.21,36.21,0,0,1,.16,3.77c1.06-3,3.31-4.33,6.46-4.33,3.56,0,6.76,1.93,6.76,8.3v27.64h-3.44V770.37c0-3.58-1.19-5.75-4.19-5.75-3.29,0-5.5,1.57-5.5,9.6v23.09h-3.45Z"/><path class="cls-2" d="M1948.63,761.93h4.26V753.1h3.39v8.83h5.38V765h-5.38v25.77c0,1.92.39,4,2.69,4a14.37,14.37,0,0,0,2.43-.21v2.77a11.82,11.82,0,0,1-3.51.42c-2.73,0-5-1.42-5-6.3V765h-4.26Z"/><path class="cls-2" d="M1968.75,748.25v17c.78-2,2.88-3.93,6.41-3.93,5.21,0,6.73,3.92,6.73,9.07v26.87h-3.45V771.25c0-3.2-.33-6.63-4.2-6.63-4.54,0-5.49,3.67-5.49,9.61v23.08h-3.45V748.25Z"/><path class="cls-2" d="M1991.22,780v6.2c0,4.08.75,8.57,4.82,8.57,3.74,0,4.55-2.88,4.55-6.87v-.37H2004v.31c0,4.38-1.07,10-8.06,10-6.23,0-8.14-4.32-8.14-11.53V772c0-5.74,2.12-10.67,8.31-10.67s8,5,8,10.72V780Zm9.48-3v-5c0-3.32-.37-7.61-4.64-7.61-4.1,0-4.83,3.58-4.83,7.67V777Z"/><path class="cls-2" d="M2019.56,750.35h7.31c6.64,0,9.64,3.43,9.64,10.52v2.92c0,6.58-1.66,11.83-10,11.83H2023v21.69h-3.45Zm3.45,22.24h3.35c5.88,0,6.65-3.7,6.65-8.79v-2.66c0-4.07-1-7.75-6.36-7.75H2023Z"/><path class="cls-2" d="M2055.79,792c0,2.55.06,4.5.14,5.33h-3.27a20.39,20.39,0,0,1-.32-3.08c-1.08,2.94-3.46,3.64-5.75,3.64-5,0-6.91-4.26-6.91-9.8v-.63c0-7.5,4.31-10.7,10.57-10.7h2.05v-6.36c0-3.51-.7-5.87-3.92-5.87s-4.16,2.43-4.16,5.6v1.2h-3.42v-1.17c0-4.82,1.92-8.77,7.69-8.77s7.3,3.93,7.3,8.79Zm-3.41-12.28h-2.12c-4.57,0-7.15,2-7.15,7.61v.62c0,3.63,1,6.72,4.21,6.72,3.89,0,5.06-3.29,5.06-9Z"/><path class="cls-2" d="M2063.92,787.18v1.51c0,4.32,1.89,6.11,4.61,6.11,3.24,0,4.48-2.06,4.48-5.95,0-4.22-1.27-5.9-5.12-8.48-4.65-3.12-6.75-5.55-6.75-10.35s2-8.65,7.56-8.65c6,0,7.39,4.2,7.39,8.69v1.76h-3.41V770c0-3.39-.9-5.59-4.09-5.59-2.79,0-4,1.9-4,5.24s1,4.74,4.75,7.31c4.5,3,7.15,5.46,7.15,11.32,0,6.15-2.53,9.56-8.21,9.56-6.2,0-7.92-4.33-7.92-9.07v-1.62Z"/><path class="cls-2" d="M2078.6,761.93h4.27V753.1h3.39v8.83h5.37V765h-5.37v25.77c0,1.92.39,4,2.68,4a14.37,14.37,0,0,0,2.43-.21v2.77a11.78,11.78,0,0,1-3.51.42c-2.72,0-5-1.42-5-6.3V765h-4.27Z"/><path class="cls-3" d="M313.36,320.9V433.06L233.9,512.51A298.75,298.75,0,0,1,313.36,320.9Z"/><path class="cls-3" d="M313.36,615.46V727.62A298.75,298.75,0,0,1,233.9,536Z"/><path class="cls-3" d="M442.4,304.07l.14.13-.17,0v-.09H330.18A298.71,298.71,0,0,1,521.8,224.62L442.37,304Z"/><path class="cls-3" d="M736.91,304.07H624.75l-79.46-79.45A298.71,298.71,0,0,1,736.91,304.07Z"/><path class="cls-3" d="M521.8,823.9a298.73,298.73,0,0,1-191.63-79.46H442.34Z"/><path class="cls-3" d="M833.19,512.51,754.67,434l-.94.94v-114A298.75,298.75,0,0,1,833.19,512.51Z"/><path class="cls-3" d="M736.92,744.44A298.73,298.73,0,0,1,545.29,823.9l79.46-79.46Z"/><path class="cls-3" d="M833.19,536a298.75,298.75,0,0,1-79.46,191.61V615.46Z"/><polygon class="cls-4" points="506.68 535.39 430.44 611.63 322.6 611.63 398.51 535.39 506.68 535.39"/><polygon class="cls-4" points="522.41 389.51 522.41 497.38 446.21 421.19 446.21 313.31 522.41 389.51"/><polygon class="cls-4" points="621.24 627.68 621.24 734.85 544.68 658.28 544.68 551.13 621.24 627.68"/><polygon class="cls-4" points="745.4 437.83 670.12 513.13 560.43 513.13 635.72 437.83 745.4 437.83"/><polygon class="cls-5" points="506.68 513.13 398.28 513.13 322.69 436.94 431.04 437.5 506.68 513.13"/><polygon class="cls-5" points="522.41 551.14 522.41 658.96 446.17 735.17 446.17 627.38 522.41 551.14"/><polygon class="cls-5" points="620.91 313.35 620.91 421.17 544.68 497.39 544.68 389.58 620.91 313.35"/><polygon class="cls-5" points="744.47 611.63 636.65 611.63 560.42 535.39 668.24 535.39 744.47 611.63"/><rect class="cls-6" x="334.85" y="636.96" width="85.99" height="85.99"/><rect class="cls-6" x="490.48" y="701.29" width="86.45" height="85.99" transform="translate(-369.97 595.39) rotate(-45)"/><rect class="cls-6" x="646.57" y="636.96" width="85.67" height="85.99"/><rect class="cls-6" x="646.24" y="325.57" width="86" height="86.93"/><rect class="cls-6" x="490.59" y="261.07" width="85.95" height="85.99" transform="translate(-58.73 466.34) rotate(-45)"/><polygon class="cls-6" points="373.74 524.38 313.33 585.03 252.56 524.26 313.33 463.49 373.74 524.38"/><polygon class="cls-6" points="420.88 325.57 420.88 412.11 334.85 411.67 334.85 325.57 420.88 325.57"/><rect class="cls-6" x="711.2" y="482.41" width="85.98" height="84.65" transform="translate(-150.14 686.99) rotate(-45)"/><path class="cls-7" d="M750.6,437.76v1.88l.93-.94Z"/><path class="cls-7" d="M831.07,398.57a323.92,323.92,0,1,0,25.38,125.69A321.7,321.7,0,0,0,831.07,398.57ZM753.73,320.9a298.75,298.75,0,0,1,79.46,191.61L754.67,434l-.94.94Zm60.8,203.36-60.8,60.8L693.87,525.2l60.8-60.8Zm-63.93-86.5.93.94-.93.94Zm-80.48,75.37H560.43l75.29-75.3H745.4ZM544.68,497.39V389.58l76.23-76.24V421.16ZM646.24,412.5V325.57h86V412.5Zm90.67-108.43H624.75l-79.46-79.45A298.71,298.71,0,0,1,736.91,304.07Zm-142.56,0-60.77,60.77L472.77,304l60.78-60.77Zm26.89,323.61V734.84l-76.56-76.56V551.12ZM522.41,389.51V497.38l-76.2-76.2V313.31Zm-.61-164.89L442.37,304l0,0,.14.13-.17,0v-.09H330.18A298.71,298.71,0,0,1,521.8,224.62ZM420.88,325.57V412.1l-86-.44V325.57ZM431,437.49l75.64,75.64H398.28l-75.59-76.19Zm91.37,113.65V659l-76.24,76.22V627.38ZM373.74,524.37,313.33,585l-60.77-60.77,60.77-60.78ZM313.36,320.9V433.06L233.9,512.51A298.75,298.75,0,0,1,313.36,320.9Zm0,406.72A298.75,298.75,0,0,1,233.9,536l79.46,79.45Zm85.15-192.23H506.68l-76.24,76.23H322.6ZM420.84,637v86h-86V637ZM330.17,744.44H442.34L521.8,823.9A298.73,298.73,0,0,1,330.17,744.44Zm142.57,0,61.14-61.13,60.8,60.81-61.13,61.13Zm72.55,79.46,79.46-79.46H736.92A298.73,298.73,0,0,1,545.29,823.9ZM646.57,723V637h85.67v86Zm-9.92-111.33-76.23-76.23H668.24l76.23,76.23Zm117.08,116V615.46L833.19,536A298.75,298.75,0,0,1,753.73,727.62Z"/><polygon class="cls-8" points="750.6 437.76 750.6 439.64 751.53 438.7 750.6 437.76 750.6 437.76"/></g></svg>