<svg xmlns="http://www.w3.org/2000/svg" viewBox="0 0 2407.51 714.55" xmlns:v="https://vecta.io/nano"><defs><linearGradient id="A" x1="-.26" y1="357.21" x2="2407.62" y2="357.21" gradientUnits="userSpaceOnUse"><stop offset="0" stop-color="#2797cd"/><stop offset=".14" stop-color="#2b99ce"/><stop offset=".27" stop-color="#369ed0"/><stop offset=".4" stop-color="#49a7d5"/><stop offset=".53" stop-color="#63b4db"/><stop offset=".65" stop-color="#85c4e3"/><stop offset=".77" stop-color="#afd8ec"/><stop offset=".89" stop-color="#dff0f8"/><stop offset=".96" stop-color="#fff"/></linearGradient></defs><g fill="#b3b3b3"><path d="M1627.03 4.67V2.68l49.71-.18h0l-48.72.17-.01-2.9h-2l.02 4.91 1-.01zm-8.3 8.34l-.01-2 49.72-.17v-.01l-48.73.17-.04-11.23h-1.99l.04 13.24h1.01zm-7.96 8.04l-.01-2 49.72-.17h0l-48.72.17-.07-19.28h-2l.08 21.28h1zm-8.13 8.11v-1.99l49.71-.17v-.01l-48.72.17-.09-27.39h-2l.1 29.4 1-.01zm-7.95 8.05l-.01-2 49.71-.17h0l-48.72.17-.12-35.44h-2l.13 37.44h1.01zm-7.95 8.12l-.01-1.99 49.72-.18h0l-48.72.17-.15-43.56h-2l.15 45.57 1.01-.01zm-9.14-41.67l.18 49.72h1v-2l49.71-.17v-.01l-48.72.18-.17-49.73-49.72.17-.01-2.05h-2l.01 4.06 49.72-.17zm-8.12 8.11l.17 49.72h1.01l-.01-2 49.71-.17h0l-48.72.17-.17-49.72-49.72.17-.04-10.17h-2l.05 12.18 49.72-.18zm-7.96 8.05l.17 49.72h1.01l-.01-2 49.72-.17v-.01l-48.72.17-.18-49.72-49.72.17-.06-18.21h-2l.07 20.22 49.72-.17zm-8.31 8.33l.18 49.72h1v-2l49.71-.17v-.01l-48.72.17-.17-49.72-49.73.18-.09-26.55h-2l.1 28.55 49.72-.17zm-7.95 8.04l.17 49.73 1.01-.01-.01-1.99 49.71-.18h0l-48.72.17-.17-49.72-49.72.17-.12-34.59h-2l.13 36.6 49.72-.18zm-8.13 8.12l.17 49.72h1.01l-.01-2 49.72-.17v-.01l-48.72.17-.18-49.72-49.72.17-.15-42.7h-2l.16 44.71 49.72-.17zm-57.85-41.5l.17 49.72 49.72-.18.18 49.73 1-.01v-1.99l49.71-.18h0l-48.72.17-.17-49.72-49.73.17-.17-49.72-49.72.17v-1.2h-2l.01 3.21 49.72-.17zm-7.94 7.93l.17 49.72 49.72-.17.18 49.72h1v-2l49.71-.17v-.01l-48.72.17-.17-49.72-49.72.17-.18-49.72-49.72.17-.03-9.13h-2l.04 11.14 49.72-.17zm-7.96 8.05l.18 49.72 49.72-.18.17 49.73 1.01-.01-.01-1.99 49.71-.18h0l-48.72.17-.17-49.72-49.72.17-.17-49.72-49.72.17-.06-17.18h-2l.06 19.19 49.72-.17zm-8.12 8.11l.17 49.72 49.72-.17.17 49.72h1.01l-.01-2 49.72-.17v-.01l-48.72.17-.18-49.72-49.72.17-.17-49.72-49.72.17-.09-25.29h-2l.09 27.3 49.73-.17zm-7.96 8.04l.17 49.73 49.72-.18.18 49.73 1-.01v-1.99l49.71-.18h0l-48.72.17-.17-49.72-49.73.17-.17-49.72-49.72.17-.11-33.34h-2l.12 35.35 49.72-.18zm-8.31 8.33l.18 49.73 49.72-.18.17 49.73 1.01-.01-.01-2 49.71-.17h0l-48.72.17-.17-49.72-49.72.17-.18-49.72-49.71.17-.15-41.67h-2l.15 43.68 49.72-.18zm-57.85-41.5l.17 49.72 49.73-.17.17 49.72 49.72-.17.17 49.72h1.01l-.01-2 49.72-.17h0l-48.72.16-.18-49.72-49.72.17-.17-49.72-1 .01h0l-48.72.17-.17-49.72h-1.04l-48.68.17-.01-.17h-1.99v2.17l49.72-.17zm-8.12 8.11l.17 49.73 49.72-.18.17 49.73 49.72-.18.18 49.73 1-.01v-1.99l49.71-.18h0l-48.72.17-.17-49.72-49.73.17-.17-49.72-49.72.17-.17-49.72-49.72.17-.03-8.28h-2l.04 10.29 49.72-.18zm-7.96 8.05l.17 49.72 49.72-.17.18 49.72 49.72-.17.17 49.72h1.01l-.01-2 49.71-.17v-.01l-48.72.17-.17-49.72-49.72.17-.18-49.72-49.71.17-.18-49.72-49.72.18-.05-16.33h-2l.06 18.33 49.72-.17zm-7.95 8.12l.17 49.72 49.73-.17.17 49.72 49.72-.17.17 49.72h1.01l-.01-2 49.72-.17h0l-48.72.17-.18-49.73-49.72.18-.17-49.73-49.72.18-.17-49.72-49.72.17-.09-24.45h-2l.09 26.46 49.72-.18zm-7.95 8.05l.17 49.72 49.72-.17.17 49.72 49.72-.17.18 49.72 1-.01v-1.99l49.71-.17v-.01l-48.72.17-.17-49.72-49.73.17-.17-49.72-49.72.17-.17-49.72-49.72.17-.11-32.49h-2l.12 34.5 49.72-.17zm-8.13 8.11l.17 49.72 49.72-.17.18 49.72 49.72-.17.17 49.72h1.01l-.01-2 49.71-.17h0l-48.72.17-.17-49.73-49.72.18-.18-49.73-49.71.18-.18-49.73-49.72.18-.14-40.61h-2l.15 42.61 49.72-.17zM1283.18.71l.17 49.72 49.72-.17.17 49.72 49.72-.17.18 49.72 49.72-.17.17 49.72 1.01-.01-.01-1.99 49.72-.17v-.01l-48.73.17-.17-49.72-49.72.17-.17-49.72-49.72.17-.17-49.72-49.72.17-.17-48.65h-51.73l.01 1.11 49.72-.17zm-8.31 8.33l.18 49.72 49.72-.17.17 49.72 49.72-.17.17 49.72 49.72-.17.18 49.72h1v-2l49.71-.17v-.01l-48.72.17-.17-49.72-49.73.17-.17-49.72-49.72.17-.17-49.72-49.72.17-.17-49.72-49.73.17-.02-7.43h-2l.03 9.44 49.72-.17zm-7.95 8.04l.17 49.73 49.72-.18.17 49.73 49.72-.18.18 49.73 49.72-.18.17 49.72h1.01l-.01-2 49.71-.17h0l-48.72.17-.17-49.73-49.72.18-.18-49.72-49.71.17-.18-49.72-49.72.17-.17-49.72-49.72.17-.06-15.48h-2l.06 17.49 49.73-.18zm-8.13 8.12l.17 49.72 49.72-.17.17 49.72 49.73-.17.17 49.72 49.72-.17.17 49.72 1.01-.01-.01-1.99 49.72-.17v-.01l-48.73.17-.17-49.72-49.72.17-.17-49.72-49.72.17-.17-49.72-49.73.17-.17-49.72-49.72.17-.08-23.59h-2l.09 25.6 49.72-.17zm-7.96 8.04l.18 49.73 49.72-.18.17 49.72 49.72-.17.17 49.72 49.72-.17.18 49.72h1l-.01-2 49.72-.17h0l-48.72.17-.17-49.73-49.73.18-.17-49.72-49.72.17-.17-49.72-49.72.17-.17-49.72-49.73.17-.11-31.64h-2l.12 33.65 49.72-.18zm-8.01 7.96l.17 49.73 49.72-.18.17 49.73 49.72-.18.17 49.73 49.72-.18.18 49.72h1v-2l49.71-.17h0l-48.72.17-.17-49.72-49.72.17-.18-49.72-49.72.17-.17-49.72-49.72.17-.17-49.72-49.72.17-.14-39.6h-2l.14 41.61 49.73-.18zm-7.96 8.05l.17 49.72 49.72-.17.17 49.72 49.72-.17.18 49.72 49.72-.17.17 49.72h1.01l-.01-2 49.71-.17v-.01l-48.72.17-.17-49.72-49.72.17-.17-49.72-49.72.17-.18-49.72-49.72.18-.17-49.73-49.72.17-.17-47.64h-2l.18 49.65 49.72-.17zm-58.02-41.44l.17 49.73 49.72-.18.17 49.72 49.72-.17.17 49.72 49.73-.17.17 49.73 49.72-.18.17 49.72h1.01l-.01-2 49.72-.17h0l-48.72.17-.18-49.73-49.72.18-.17-49.72-49.72.17-.17-49.72-49.72.17-.18-49.72-49.72.17-.17-49.72-49.72.17-.03-6.21h-1.99l.02 8.22 49.73-.18z"/><path d="M1168.88 15.86l.17 49.72 49.72-.17.18 49.72 49.72-.17.17 49.72 49.72-.17.17 49.72 49.72-.17.18 49.72h1v-2l49.71-.17v-.01l-48.72.17-.17-49.72-49.73.17-.17-49.72-49.72.17-.17-49.72-49.72.17-.17-49.72-49.73.18-.17-49.73-49.72.18-.05-14.26h-2l.06 16.26 49.72-.17zm-8.31 8.33l.18 49.72 49.72-.17.17 49.72 49.72-.17.17 49.72 49.72-.17.18 49.72 49.72-.17.17 49.72h1.01l-.01-2 49.72-.17v-.01l-48.73.17-.17-49.72-49.72.17-.17-49.72-49.72.17-.17-49.72-49.73.17-.17-49.72-49.72.18-.17-49.73-49.73.18-.07-22.59h-2l.08 24.59 49.72-.17zm-7.95 8.04l.17 49.73 49.72-.18.17 49.73 49.72-.18.17 49.73 49.73-.18.17 49.73 49.72-.18.17 49.72h1.01l-.01-2 49.72-.17h0l-48.72.17-.18-49.72-49.72.17-.17-49.72-49.72.17-.17-49.72-49.72.17-.18-49.72-49.72.17-.17-49.72-49.72.17-.11-30.63h-2l.11 32.64 49.73-.18zm-8.13 8.12l.17 49.72 49.72-.17.18 49.72 49.72-.17.17 49.72 49.72-.17.17 49.72 49.72-.17.18 49.72h1l-.01-2 49.72-.17v-.01l-48.72.17-.17-49.72-49.73.17-.17-49.72-49.72.17-.17-49.72-49.72.17-.17-49.72-49.73.17-.17-49.72-49.72.18-.13-38.75h-2l.14 40.75 49.72-.17zm-7.96 8.05l.17 49.72 49.73-.18.17 49.73 49.72-.18.17 49.73 49.72-.18.17 49.72 49.73-.17.17 49.72h1.01l-.01-2 49.71-.17h0l-48.72.17-.17-49.72-49.72.17-.18-49.72-49.71.17-.18-49.72-49.72.17-.17-49.72-49.72.17-.18-49.72-49.72.17-.16-46.79h-2l.17 48.8 49.72-.17zm-57.84-41.43l.17 49.72 49.73-.17.17 49.72 49.72-.17.17 49.72 49.73-.17.16 49.72 49.73-.17.17 49.72 49.72-.17.17 49.72 1.01-.01-.01-1.99 49.72-.18h0l-48.72.17-.18-49.72-49.72.17-.17-49.72-49.72.17-.17-49.72-49.72.17-.18-49.72-49.72.17-.17-49.72-49.72.17-.18-49.72-49.72.17-.02-5.36h-2l.03 7.37 49.72-.17zm-7.96 8.04l.18 49.72 49.72-.17.17 49.72 49.72-.17.18 49.72 49.72-.17.17 49.72 49.72-.17.17 49.72 49.72-.17.18 49.72h1v-2l49.71-.17h0l-48.72.17-.17-49.73-49.73.18-.17-49.73-49.72.18-.17-49.72-49.72.17-.17-49.72-49.73.17-.17-49.72-49.72.17-.17-49.72-49.73.17-.04-13.41h-2l.05 15.42 49.72-.18zm-8.12 8.12l.17 49.72 49.72-.17.17 49.72 49.73-.17.17 49.72 49.72-.17.17 49.72 49.72-.18.17 49.73 49.73-.17.17 49.72 1.01-.01-.01-1.99 49.71-.18h0l-48.72.17-.17-49.72-49.72.17-.18-49.72-49.71.17-.18-49.72-49.72.17-.17-49.72-49.72.17-.18-49.72-49.72.17-.17-49.72-49.72.17-.08-21.52h-2l.08 23.53 49.73-.17zm-7.96 8.04l.17 49.72 49.73-.17.17 49.72 49.72-.17.17 49.72 49.72-.17.17 49.72 49.73-.17.17 49.72 49.72-.17.17 49.72h1.01l-.01-2 49.72-.17h0l-48.73.16-.17-49.72-49.72.17-.17-49.72-49.72.18-.17-49.73-49.73.18-.17-49.73-49.72.18-.17-49.72-49.73.17-.17-49.72-49.72.17-.1-29.57h-2l.11 31.57 49.72-.17zm-8.3 8.33l.17 49.72 49.72-.17.17 49.72 49.72-.17.18 49.72 49.72-.17.17 49.72 49.72-.17.17 49.72 49.72-.17.18 49.72h1l-.01-2 49.72-.17h0l-48.72.16-.17-49.72-49.73.18-.17-49.73-49.72.18-.17-49.72-49.72.17-.17-49.73-49.73.18-.17-49.72-49.72.17-.17-49.72-49.73.17-.13-37.9h-2l.14 39.91 49.73-.18zm-7.96 8.05l.17 49.72 49.72-.17.17 49.72 49.73-.17.17 49.72 49.72-.17.17 49.72 49.72-.17.17 49.72 49.73-.17.17 49.72 1.01-.01-.01-1.99 49.71-.17v-.01l-48.72.17-.17-49.72-49.72.17-.18-49.72-49.71.17-.18-49.72-49.72.17-.17-49.72-49.72.17-.18-49.72-49.72.17-.17-49.72-49.72.17-.16-45.94h-2l.16 47.95 49.73-.17zM980.37 6.11l.17 49.73 49.72-.18.17 49.73 49.72-.18.18 49.72 49.72-.17.17 49.72 49.72-.17.17 49.72 49.73-.17.17 49.72 49.72-.17.17 49.72h1.01l-.01-2 49.72-.17h0l-48.73.17-.17-49.73-49.72.18-.17-49.73-49.72.18-.17-49.73-49.73.18-.17-49.73-49.72.18-.17-49.73-49.73.18-.17-49.72-49.72.17-.17-49.72-49.72.17-.02-4.51h-2l.02 6.52 49.73-.18zm-7.96 8.05l.17 49.72 49.72-.17.18 49.72 49.72-.17.17 49.72 49.72-.17.18 49.72 49.72-.17.16 49.72 49.73-.17.17 49.72 49.72-.18.17 49.73 1.01-.01-.01-1.99 49.72-.18h0l-48.72.17-.17-49.72-49.73.17-.17-49.72-49.72.17-.17-49.72-49.72.17-.17-49.72-49.73.17-.17-49.72-49.72.17-.17-49.72-49.73.17-.17-49.72-49.72.17-.04-12.55h-2l.05 14.56 49.72-.17zm-8.05 8.16l.17 49.72 49.72-.17.17 49.72 49.72-.17.18 49.72 49.72-.17.17 49.72 49.72-.18.17 49.73 49.73-.18.17 49.73 49.72-.18.17 49.73 1.01-.01-.01-2 49.72-.17h0l-48.73.17-.17-49.72-49.72.17-.17-49.72-49.72.17-.17-49.72-49.73.17-.17-49.72-49.72.17-.17-49.72-49.73.17-.17-49.72-49.72.17-.17-49.72-49.72.17-.08-20.71h-2l.08 22.72 49.73-.17zm-7.96 8.04l.17 49.72 49.72-.17.18 49.72 49.72-.17.17 49.72 49.72-.17.18 49.72 49.72-.17.17 49.72 49.72-.17.17 49.72 49.72-.17.18 49.72h1l-.01-2 49.72-.17h0l-48.72.17-.17-49.73-49.73.17-.17-49.72-49.72.18-.17-49.73-49.72.18-.17-49.73-49.73.18-.17-49.73-49.72.18-.18-49.72-49.72.17-.17-49.72-49.72.17-.1-28.76h-2l.11 30.77 49.72-.18zm-8.13 8.12l.17 49.72 49.73-.17.17 49.72 49.72-.17.17 49.72 49.73-.17.17 49.72 49.72-.18.17 49.73 49.72-.18.17 49.73 49.73-.18.17 49.73 1-.01v-1.99l49.71-.18h0l-48.72.17-.17-49.72-49.72.17-.18-49.72-49.71.17-.18-49.72-49.72.17-.17-49.72-49.72.17-.18-49.72-49.72.17-.17-49.72-49.72.17-.18-49.72-49.72.17-.13-36.87h-2l.14 38.88 49.72-.17z"/><path d="M940.31 46.52l.18 49.72 49.72-.17.17 49.72 49.72-.17.18 49.72 49.72-.17.17 49.72 49.72-.17.17 49.72 49.72-.17.18 49.72 49.72-.17.17 49.72h1.01l-.01-2 49.72-.17h0l-48.73.16-.17-49.72-49.72.18-.17-49.73-49.72.18-.17-49.73-49.73.18-.17-49.73-49.72.18-.17-49.73-49.73.18-.17-49.73-49.72.18-.17-49.72-49.72.17-.16-44.92h-2l.16 46.93 49.72-.18zM882.11 5.3l.18 49.72 49.72-.17.17 49.73 49.72-.18.18 49.72 49.72-.17.17 49.72 49.72-.17.18 49.72 49.72-.17.17 49.72 49.72-.17.17 49.72 49.72-.17.18 49.72h1v-2l49.71-.17v-.01l-48.72.17-.17-49.72-49.73.17-.17-49.72-49.72.18-.17-49.73-49.72.18-.17-49.73-49.73.18-.17-49.73-49.72.18-.17-49.72-49.73.17-.17-49.72-49.72.17-.17-49.72-49.73.17-.01-3.7h-2l.02 5.71 49.72-.18zm-7.95 8.05l.17 49.72 49.72-.17.17 49.72 49.73-.17.17 49.72 49.72-.17.17 49.72 49.73-.17.17 49.72 49.72-.17.17 49.72 49.72-.17.17 49.72 49.73-.18.17 49.73 1.01-.01-.01-1.99 49.71-.18h0l-48.72.17-.17-49.72-49.72.17-.18-49.72-49.71.17-.18-49.72-49.72.17-.17-49.72-49.72.17-.18-49.72-49.72.17-.17-49.72-49.72.17-.18-49.72-49.72.17-.17-49.72-49.72.18-.04-11.75h-2l.04 13.75 49.73-.17zm-8.13 8.11l.17 49.73 49.72-.18.18 49.72 49.72-.17.17 49.72 49.72-.17.18 49.72 49.72-.17.17 49.72 49.72-.17.17 49.72 49.72-.17.18 49.72 49.72-.17.17 49.72h1.01l-.01-2 49.72-.17h0l-48.73.16-.17-49.72-49.72.18-.17-49.73-49.72.18-.17-49.73-49.73.18-.17-49.73-49.72.18-.17-49.73-49.73.18-.17-49.72-49.72.17-.17-49.73-49.72.18-.18-49.72-49.72.17-.07-19.86h-2l.08 21.87 49.72-.18zm-7.96 8.05l.18 49.72 49.72-.17.17 49.72 49.72-.17.17 49.72 49.73-.17.17 49.72 49.72-.17.17 49.72 49.73-.18.16 49.73 49.73-.17.17 49.72 49.72-.18.17 49.73 1.01-.01-.01-1.99 49.72-.18h0l-48.72.17-.18-49.72-49.72.17-.17-49.72-49.72.17-.17-49.72-49.72.17-.18-49.72-49.72.17-.17-49.72-49.72.17-.17-49.72-49.73.17-.17-49.72-49.72.17-.17-49.72-49.73.17-.09-27.9h-2l.1 29.91 49.72-.17zm-7.94 8.12l.17 49.72 49.72-.17.17 49.72 49.73-.17.17 49.72 49.72-.17.17 49.72 49.73-.17.17 49.72 49.72-.17.17 49.72 49.72-.17.17 49.72 49.73-.17.17 49.72 1.01-.01-.01-1.99 49.71-.18h0l-48.72.17-.17-49.72-49.72.17-.18-49.72-49.71.17-.18-49.72-49.72.17-.17-49.72-49.72.17-.18-49.72-49.72.17-.17-49.72-49.72.18-.18-49.73-49.72.18-.17-49.73-49.72.18-.13-36.03h-2l.13 38.03 49.73-.17zm-7.96 8.05l.17 49.72 49.72-.17.18 49.72 49.72-.17.17 49.72 49.72-.18.18 49.73 49.72-.18.17 49.73 49.72-.18.17 49.72 49.72-.17.18 49.72 49.72-.17.17 49.72h1.01l-.01-2 49.72-.17h0l-48.73.17-.17-49.73-49.72.18-.17-49.72-49.72.17-.17-49.72-49.73.17-.17-49.72-49.72.17-.17-49.72-49.72.17-.18-49.72-49.72.17-.17-49.72-49.72.17-.18-49.72-49.72.17-.15-44.07h-2l.16 46.08 49.72-.17zM784.15 4.24l.17 49.72 49.72-.17.18 49.72 49.72-.17.17 49.72 49.72-.17.17 49.72 49.73-.17.17 49.72 49.72-.17.17 49.72 49.73-.17.16 49.72 49.73-.17.17 49.72 49.72-.17.17 49.72 1.01-.01-.01-1.99 49.72-.17v-.01l-48.72.17-.18-49.72-49.72.17-.17-49.72-49.72.17-.17-49.72-49.72.17-.18-49.72-49.72.17-.17-49.72-49.72.17-.17-49.72-49.73.18-.17-49.73-49.72.17-.17-49.72-49.73.18-.17-49.73-49.72.18-.01-2.64h-2l.01 4.64 49.73-.17z"/><path d="M776.19 12.29l.17 49.72 49.73-.17.17 49.72 49.72-.17.17 49.72 49.73-.17.17 49.72 49.72-.18.17 49.73 49.72-.18.18 49.72 49.72-.17.17 49.73 49.72-.18.17 49.72 49.73-.17.17 49.72h1v-2l49.71-.17h0l-48.72.17-.17-49.72-49.72.17-.18-49.72-49.72.17-.17-49.72-49.72.17-.17-49.72-49.73.17-.17-49.72-49.72.17-.17-49.72-49.72.17-.18-49.72-49.72.17-.17-49.72-49.72.17-.18-49.72-49.72.17-.04-10.68h-2l.05 12.69 49.72-.17zm-8.31 8.33l.18 49.72 49.72-.17.17 49.72 49.72-.17.18 49.72 49.72-.18.17 49.73 49.72-.18.18 49.73 49.72-.18.17 49.72 49.72-.17.17 49.72 49.72-.17.18 49.73 49.72-.18.17 49.72h1.01l-.01-2 49.72-.17h0l-48.73.17-.17-49.73-49.72.18-.17-49.72-49.72.17-.17-49.72-49.73.17-.17-49.72-49.72.17-.17-49.72-49.72.17-.18-49.72-49.72.17-.17-49.72-49.72.17-.18-49.72-49.72.17-.17-49.72-49.72.17-.07-19.01h-2l.07 21.02 49.72-.17zm-7.95 8.04l.17 49.72 49.72-.17.18 49.72 49.72-.17.17 49.72 49.72-.17.17 49.72 49.73-.17.17 49.72 49.72-.17.17 49.72 49.73-.17.16 49.72 49.73-.17.17 49.72 49.72-.17.18 49.72h1l-.01-2 49.72-.17v-.01l-48.72.17-.18-49.72-49.72.17-.17-49.72-49.72.17-.17-49.72-49.72.18-.18-49.73-49.72.17-.17-49.72-49.72.18-.17-49.73-49.73.18-.17-49.73-49.72.18-.17-49.73-49.73.18-.17-49.72-49.72.17-.09-27.06h-2.01l.11 29.06 49.72-.17zm-8.13 8.12l.17 49.72 49.73-.17.17 49.72 49.72-.17.17 49.72 49.73-.18.17 49.73 49.72-.18.17 49.73 49.72-.18.18 49.73 49.72-.18.17 49.72 49.72-.17.17 49.72 49.72-.17.18 49.72h1v-2l49.71-.17h0l-48.72.17-.17-49.72-49.72.17-.18-49.72-49.72.17-.17-49.72-49.72.17-.17-49.72-49.72.17-.18-49.72-49.72.17-.17-49.72-49.72.17-.18-49.72-49.72.17-.17-49.72-49.72.17-.18-49.72-49.72.17-.12-35.17h-2l.13 37.18 49.72-.17zm-7.96 8.04l.18 49.72 49.72-.17.17 49.72 49.72-.17.18 49.72 49.72-.17.17 49.72 49.72-.17.18 49.72 49.72-.17.17 49.72 49.72-.17.17 49.72 49.72-.17.18 49.72 49.72-.17.17 49.72h1.01l-.01-2 49.71-.17v-.01l-48.72.17-.17-49.72-49.72.17-.17-49.72-49.72.17-.18-49.72-49.72.17-.17-49.72-49.72.17-.17-49.72-49.73.18-.17-49.73-49.72.17-.17-49.72-49.73.18-.17-49.73-49.72.18-.17-49.73-49.73.18-.15-43.22h-2l.16 45.22 49.72-.17zM685.93 3.23l.17 49.72 49.73-.17.17 49.72 49.72-.17.17 49.72 49.73-.17.17 49.72 49.72-.17.17 49.72 49.72-.17.18 49.72 49.72-.17.17 49.72 49.72-.17.17 49.72 49.73-.17.17 49.72 49.72-.17.17 49.72h1.01l-.01-2 49.72-.17v-.01l-48.73.17-.17-49.72-49.72.17-.17-49.72-49.72.17-.17-49.72-49.72.18-.18-49.73-49.72.17-.17-49.72-49.72.18-.18-49.73-49.72.18-.17-49.73-49.72.18-.18-49.72-49.72.17-.17-49.73-49.72.18-.18-49.72-49.72.17V-.23h-2l.01 3.63 49.72-.17zm-7.96 8.05l.18 49.72 49.72-.17.17 49.72 49.72-.17.18 49.72 49.72-.17.17 49.72 49.72-.17.18 49.72 49.72-.18.17 49.73 49.72-.18.18 49.73 49.72-.18.16 49.73 49.73-.18.17 49.73 49.72-.18.17 49.72h1.01l-.01-2 49.72-.17h0l-48.72.17-.17-49.72-49.73.17-.17-49.72-49.72.17-.17-49.72-49.72.17-.17-49.72-49.73.17-.17-49.72-49.72.17-.17-49.72-49.73.17-.17-49.72-49.72.17-.17-49.72-49.73.17-.17-49.72-49.72.17-.17-49.72-49.72.17-.04-9.67h-2l.04 11.68 49.72-.17zm-8.12 8.11l.17 49.72 49.72-.17.17 49.72 49.73-.17.17 49.72 49.72-.17.17 49.72 49.73-.17.17 49.72 49.72-.17.17 49.72 49.73-.17.17 49.72 49.72-.17.17 49.72 49.72-.17.17 49.72 49.73-.17.17 49.72h1.01l-.01-2 49.71-.17v-.01l-48.72.17-.17-49.72-49.72.17-.18-49.72-49.72.17-.17-49.72-49.72.17-.17-49.72-49.72.17-.18-49.72-49.72.18-.17-49.73-49.72.18-.18-49.73-49.72.18-.17-49.73-49.72.18-.18-49.72-49.72.17-.17-49.72-49.72.17-.06-17.79h-2l.07 19.8 49.72-.18z"/><path d="M661.89 27.44l.17 49.72 49.72-.17.18 49.72 49.72-.17.17 49.72 49.72-.17.18 49.72 49.72-.18.17 49.73 49.72-.17.18 49.72 49.72-.18.17 49.73 49.72-.18.17 49.73 49.72-.18.18 49.73 49.72-.18.17 49.72h1.01l-.01-2 49.72-.17h0l-48.73.17-.17-49.72-49.72.17-.17-49.72-49.72.17-.17-49.72-49.73.17-.17-49.72-49.72.17-.17-49.72-49.73.17-.17-49.72-49.72.17-.17-49.72-49.72.17-.18-49.72-49.72.17-.17-49.72-49.72.17-.18-49.72-49.72.17-.09-25.83h-2l.1 27.84 49.72-.17zm-8.31 8.33l.18 49.72 49.72-.17.17 49.72 49.72-.17.18 49.72 49.72-.17.17 49.72 49.72-.17.18 49.72 49.72-.18.17 49.73 49.72-.18.18 49.73 49.72-.18.17 49.73 49.72-.18.17 49.73 49.72-.18.18 49.72h1v-2l49.71-.17h0l-48.72.17-.17-49.72-49.73.17-.17-49.72-49.72.17-.17-49.72-49.72.17-.17-49.72-49.73.17-.17-49.72-49.72.17-.17-49.72-49.73.17-.17-49.72-49.72.17-.17-49.72-49.73.17-.17-49.72-49.72.17-.17-49.72-49.72.17-.12-34.16h-2l.12 36.17 49.72-.17zm-7.95 8.04l.17 49.73 49.72-.18.17 49.73 49.73-.18.17 49.72 49.72-.17.17 49.72 49.73-.17.17 49.72 49.72-.17.17 49.72 49.73-.17.17 49.72 49.72-.17.17 49.72 49.72-.17.17 49.72 49.73-.17.17 49.72h1.01l-.01-2 49.71-.17v-.01l-48.72.17-.17-49.72-49.72.17-.18-49.72-49.71.18-.18-49.73-49.72.17-.17-49.72-49.72.18-.18-49.73-49.72.18-.17-49.73-49.72.18-.18-49.72-49.72.17-.17-49.72-49.72.17-.18-49.72-49.72.17-.17-49.72-49.72.17-.15-42.21h-2l.15 44.22 49.73-.18zM587.61 2.38l.17 49.72 49.72-.17.17 49.72 49.72-.17.18 49.72 49.72-.17.17 49.72 49.72-.17.18 49.72 49.72-.17.17 49.72 49.72-.17.18 49.72 49.72-.18.17 49.73 49.72-.18.17 49.73 49.72-.18.18 49.73 49.72-.18.17 49.73 1.01-.01-.01-2 49.72-.17h0l-48.73.17-.17-49.72-49.72.17-.17-49.72-49.72.17-.17-49.72-49.73.17-.17-49.72-49.72.17-.17-49.72-49.72.17-.18-49.72-49.72.17-.17-49.72-49.72.17-.18-49.72-49.72.17-.17-49.72-49.72.17-.18-49.72-49.72.17L589.6.37l-49.72.17-.01-.77h-2l.01 2.78 49.73-.17zm-7.96 8.04l.17 49.73 49.72-.18.18 49.72 49.72-.17.17 49.73 49.72-.18.17 49.72 49.73-.17.17 49.72 49.72-.17.17 49.72 49.73-.17.17 49.72 49.72-.17.17 49.72 49.73-.17.17 49.72 49.72-.17.17 49.72 49.72-.17.18 49.72h1l-.01-2 49.72-.17v-.01l-48.72.17-.18-49.72-49.72.17-.17-49.72-49.72.17-.17-49.72-49.72.18-.18-49.73-49.72.18-.17-49.73-49.72.18-.17-49.73-49.73.18-.17-49.72-49.72.17-.17-49.73-49.73.18-.17-49.72-49.72.17-.17-49.72-49.73.17-.17-49.72-49.72.17-.03-8.82h-2l.04 10.83 49.72-.18zm-7.95 8.13l.18 49.72 49.72-.18.17 49.73 49.72-.18.17 49.73 49.73-.18.17 49.73 49.72-.18.17 49.73 49.73-.18.17 49.72 49.72-.17.17 49.72 49.73-.17.17 49.72 49.72-.17.17 49.72 49.72-.17.17 49.72 49.73-.17.17 49.72h1.01l-.01-2 49.71-.17h0l-48.72.16-.17-49.72-49.72.18-.18-49.73-49.72.18-.17-49.72-49.72.17-.17-49.73-49.72.18-.18-49.72-49.72.17-.17-49.72-49.72.17-.18-49.72-49.72.17-.17-49.72-49.72.17-.17-49.72-49.73.17-.17-49.72-49.72.17-.17-49.72-49.73.17-.06-16.94h-2l.07 18.95 49.72-.17zm-7.95 8.04l.17 49.72 49.72-.17.17 49.72 49.72-.17.18 49.72 49.72-.17.17 49.72 49.72-.17.18 49.72 49.72-.17.17 49.72 49.72-.17.18 49.72 49.72-.17.17 49.72 49.72-.17.17 49.72 49.72-.17.18 49.72 49.72-.17.17 49.72 1.01-.01-.01-1.99 49.72-.18h0l-48.73.17-.17-49.72-49.72.17-.17-49.72-49.72.17-.17-49.72-49.73.17-.17-49.72-49.72.17-.17-49.72-49.73.17-.17-49.72-49.72.17-.17-49.72-49.72.18-.18-49.73-49.72.18-.17-49.73-49.72.18-.18-49.73-49.72.18-.17-49.73-49.72.18-.09-24.99h-2l.09 26.99 49.73-.17zm-8.13 8.12l.17 49.72 49.72-.18.18 49.73 49.72-.18.17 49.73 49.72-.18.18 49.73 49.72-.18.17 49.73 49.72-.18.17 49.73 49.73-.18.17 49.72 49.72-.17.17 49.72 49.73-.17.17 49.72 49.72-.17.17 49.72 49.72-.17.17 49.72h1.01l-.01-2 49.72-.17h0l-48.72.16-.18-49.72-49.72.18-.17-49.73-49.72.18-.17-49.73-49.72.18-.17-49.73-49.73.18-.17-49.72-49.72.17-.17-49.72-49.73.17-.17-49.72-49.72.17-.17-49.72-49.73.17-.17-49.72-49.72.17-.17-49.72-49.73.17-.17-49.72-49.72.17-.12-33.1h-2l.13 35.11 49.72-.17z"/><path d="M547.66 42.75l.17 49.72 49.73-.17.17 49.72 49.72-.17.17 49.72 49.73-.17.17 49.72 49.72-.17.17 49.72 49.72-.17.18 49.72 49.72-.17.17 49.72 49.72-.17.18 49.72 49.72-.17.17 49.72 49.72-.17.17 49.72 49.72-.17.18 49.72 1-.01v-1.99l49.71-.18h0l-48.72.17-.17-49.72-49.72.17-.18-49.72-49.72.17-.17-49.72-49.72.17-.17-49.72-49.72.17-.18-49.72-49.72.17-.17-49.72-49.72.17-.18-49.72-49.72.17-.17-49.72-49.72.17-.18-49.72-49.72.18-.17-49.73-49.72.18-.18-49.73-49.72.18-.14-41.15h-2l.15 43.15 49.72-.17zm-58.2-41.22l.17 49.72 49.73-.17.17 49.72 49.72-.17.17 49.72 49.72-.17.18 49.72 49.72-.17.17 49.72 49.72-.17.18 49.72 49.72-.17.17 49.72 49.72-.17.18 49.72 49.72-.17.17 49.72 49.72-.17.17 49.72 49.72-.17.18 49.72 49.72-.17.17 49.72 1.01-.01-.01-1.99 49.72-.18h0l-48.73.17-.17-49.72-49.72.17-.17-49.72-49.72.17-.17-49.72-49.73.17-.17-49.72-49.72.17-.17-49.72-49.72.17-.18-49.72-49.72.17-.17-49.72-49.72.17-.18-49.72-49.72.18-.17-49.73-49.72.18-.18-49.73-49.72.18-.17-49.73-49.72.18-.18-49.48h-51.72l.01 1.94 49.72-.18zm-7.96 8.05l.18 49.72 49.72-.17.17 49.72 49.72-.17.18 49.72 49.72-.17.17 49.72 49.72-.17.17 49.72 49.73-.18.17 49.73 49.72-.18.17 49.73 49.73-.18.17 49.73 49.72-.18.17 49.72 49.73-.17.17 49.72 49.72-.17.17 49.72 49.72-.17.18 49.72h1l-.01-2 49.72-.17h0l-48.72.17-.18-49.73-49.72.18-.17-49.73-49.72.18-.17-49.72-49.72.17-.18-49.72-49.72.17-.17-49.72-49.72.17-.17-49.72-49.73.17-.17-49.72-49.72.17-.17-49.72-49.73.17-.17-49.72-49.72.17-.17-49.72-49.73.17-.17-49.72-49.72.17-.17-49.72-49.73.17-.02-7.97h-2l.03 9.98 49.72-.17zm-8.12 8.11l.17 49.72 49.72-.17.17 49.72 49.73-.17.17 49.72 49.72-.17.17 49.72 49.73-.17.17 49.72 49.72-.17.17 49.72 49.73-.17.17 49.72 49.72-.17.17 49.72 49.72-.17.18 49.72 49.72-.17.17 49.72 49.72-.17.17 49.72 49.73-.17.17 49.72h1v-2l49.71-.18h0l-48.72.17-.17-49.72-49.72.17-.18-49.72-49.71.17-.18-49.72-49.72.17-.17-49.72-49.72.17-.18-49.72-49.72.17-.17-49.72-49.72.17-.18-49.72-49.72.17-.17-49.72-49.72.18-.18-49.73-49.72.17-.17-49.72-49.72.18-.18-49.73-49.72.18-.17-49.72-49.72.17-.06-16.09h-2l.06 18.09 49.73-.17zm-7.96 8.05l.17 49.72 49.72-.17.18 49.72 49.72-.17.17 49.72 49.72-.18.18 49.73 49.72-.17.17 49.72 49.72-.18.18 49.73 49.72-.18.17 49.72 49.72-.17.18 49.73 49.72-.18.17 49.72 49.72-.17.17 49.72 49.72-.17.18 49.72 49.72-.17.17 49.72h1.01l-.01-2 49.71-.17h0l-48.72.17-.17-49.73-49.72.18-.17-49.73-49.72.18-.17-49.72-49.73.17-.17-49.72-49.72.17-.18-49.72-49.72.17-.17-49.72-49.72.17-.17-49.72-49.73.17-.17-49.72-49.72.17-.17-49.72-49.72.17-.18-49.72-49.72.17-.17-49.72-49.73.17-.17-49.72-49.72.17-.08-24.13h-2l.09 26.14 49.72-.17zm-7.72 7.81l.17 49.72 49.73-.17.17 49.72 49.72-.17.17 49.72 49.72-.17.18 49.72 49.72-.17.17 49.72 49.72-.17.18 49.72 49.72-.17.17 49.72 49.72-.18.18 49.73 49.72-.18.17 49.73 49.72-.18.17 49.73 49.72-.18.18 49.73 49.72-.18.17 49.73 1.01-.01-.01-2 49.72-.17h0l-48.73.17-.17-49.72-49.72.17-.17-49.72-49.72.17-.17-49.72-49.73.17-.17-49.72-49.72.17-.17-49.72-49.73.17-.17-49.72-49.72.17-.17-49.72-49.72.17-.18-49.72-49.72.17-.17-49.72-49.72.17-.18-49.72-49.72.17-.17-49.72-49.72.17-.18-49.72-49.72.17-.11-31.94h-2l.12 33.95 49.72-.17zm-7.96 8.04l.18 49.73 49.72-.18.17 49.73 49.72-.18.18 49.73 49.72-.18.17 49.73 49.72-.18.18 49.72 49.72-.17.17 49.72 49.72-.17.17 49.72 49.73-.17.17 49.72 49.72-.17.17 49.72 49.73-.17.17 49.72 49.72-.17.17 49.72 49.72-.17.17 49.72h1.01l-.01-2 49.72-.17v-.01l-48.72.17-.18-49.72-49.72.17-.17-49.72-49.72.17-.17-49.72-49.72.17-.18-49.72-49.72.18-.17-49.73-49.72.18-.17-49.73-49.73.18-.17-49.73-49.72.18-.17-49.73-49.73.18-.17-49.72-49.72.17-.17-49.72-49.73.17-.17-49.72-49.72.17-.17-49.72-49.73.17-.13-39.99h-2l.14 42 49.72-.18zM391.72.16l.17 49.72 49.73-.17.17 49.72 49.72-.17.17 49.72 49.73-.17.17 49.72 49.72-.17.17 49.72 49.73-.17.17 49.72 49.72-.17.17 49.72 49.72-.18.18 49.73 49.72-.17.17 49.72 49.72-.18.18 49.73 49.72-.18.17 49.73 49.72-.18.17 49.72 49.72-.17.18 49.73 1-.01v-2l49.71-.17h0l-48.72.17-.17-49.72-49.72.17-.18-49.72-49.72.17-.17-49.72-49.72.17-.17-49.72-49.73.17-.17-49.72-49.72.17-.17-49.72-49.72.17-.18-49.72-49.72.17-.17-49.72-49.72.17-.18-49.72-49.72.17-.17-49.72-49.72.17-.18-49.72-49.72.17-.17-49.72-49.72.17-.17-48.1H342v.56l49.72-.17z"/><path d="M383.76 8.21l.18 49.72 49.72-.18.17 49.73 49.72-.18.18 49.73 49.72-.18.17 49.72 49.72-.17.18 49.72 49.72-.17.17 49.72 49.72-.17.17 49.72 49.73-.17.17 49.72 49.72-.17.17 49.72 49.73-.17.17 49.72 49.72-.17.17 49.72 49.72-.17.17 49.72 49.73-.17.17 49.72h1.01l-.01-2 49.71-.17v-.01l-48.72.17-.17-49.72-49.72.17-.17-49.72-49.72.17-.17-49.72-49.73.18-.17-49.73-49.72.17-.18-49.72-49.72.18-.17-49.73-49.72.18-.17-49.73-49.73.18-.17-49.73-49.72.18-.17-49.72-49.73.17-.17-49.72-49.72.17-.17-49.72-49.73.17-.17-49.72-49.72.17-.17-49.72-49.72.17-.03-6.6h-2l.03 8.61 49.72-.17zm-8.3 8.33l.17 49.72 49.72-.18.18 49.73 49.72-.18.17 49.73 49.72-.18.18 49.73 49.72-.18.17 49.72 49.72-.17.18 49.72 49.72-.17.17 49.72 49.72-.17.17 49.72 49.73-.17.17 49.72 49.72-.17.17 49.72 49.73-.17.17 49.72 49.72-.17.17 49.72 49.72-.17.17 49.72h1.01l-.01-2 49.72-.17v-.01l-48.72.17-.18-49.72-49.72.17-.17-49.72-49.72.17-.17-49.72-49.72.17-.18-49.72-49.72.18-.17-49.73-49.72.18-.17-49.73-49.73.18-.17-49.73-49.72.18-.17-49.73-49.73.18-.17-49.72-49.72.17-.17-49.72-49.73.17-.17-49.72-49.72.17-.17-49.72-49.72.17-.18-49.72-49.72.17-.05-14.93h-2l.06 16.94 49.72-.17zm-7.96 8.04l.17 49.72 49.73-.17.17 49.72 49.72-.17.17 49.72 49.73-.17.17 49.72 49.72-.17.17 49.72 49.73-.17.17 49.72 49.72-.17.17 49.72 49.72-.17.18 49.72 49.72-.17.17 49.72 49.72-.18.18 49.73 49.72-.17.17 49.72 49.72-.17.17 49.72 49.72-.18.18 49.73 1-.01v-2l49.71-.17h0l-48.72.17-.17-49.72-49.72.17-.18-49.72-49.71.17-.18-49.72-49.72.17-.17-49.72-49.72.17-.18-49.72-49.72.17-.17-49.72-49.72.17-.18-49.72-49.72.17-.17-49.72-49.72.17-.18-49.72-49.72.17-.17-49.72-49.72.18-.18-49.73-49.72.17-.17-49.72-49.72.18-.18-49.73-49.72.18-.08-22.98h-2l.09 24.98 49.72-.17zm-8.13 8.11l.18 49.73 49.72-.18.17 49.73 49.72-.18.18 49.72 49.72-.17.17 49.72 49.72-.17.18 49.72 49.72-.17.17 49.72 49.72-.17.18 49.72 49.72-.17.17 49.72 49.72-.17.18 49.72 49.72-.17.17 49.72 49.72-.17.17 49.72 49.72-.17.17 49.72 49.73-.17.17 49.72h1.01l-.01-2 49.71-.17v-.01l-48.72.17-.17-49.72-49.72.17-.17-49.72-49.72.17-.17-49.72-49.73.17-.17-49.72-49.72.18-.18-49.73-49.72.17-.17-49.72-49.72.18-.17-49.73-49.73.18-.17-49.72-49.72.17-.17-49.73-49.72.18-.18-49.72-49.72.17-.17-49.72-49.72.17-.18-49.72-49.72.17-.17-49.72-49.72.17-.11-31.09h-2l.11 33.1 49.72-.18zm-7.95 8.05l.17 49.72 49.72-.17.18 49.72 49.72-.17.17 49.72 49.72-.17.17 49.72 49.73-.17.17 49.72 49.72-.17.17 49.72 49.73-.17.17 49.72 49.72-.17.17 49.72 49.73-.18.17 49.73 49.72-.17.17 49.72 49.73-.18.16 49.73 49.73-.18.17 49.73 49.72-.18.17 49.73 1.01-.01-.01-2 49.72-.17h0l-48.72.17-.18-49.72-49.72.17-.17-49.72-49.72.17-.17-49.72-49.72.17-.18-49.72-49.72.17-.17-49.72-49.72.17-.18-49.72-49.72.17-.17-49.72-49.72.17-.18-49.72-49.72.17-.17-49.72-49.72.17-.17-49.72-49.73.17-.17-49.72-49.72.17-.17-49.72-49.73.17-.17-49.72-49.72.18-.14-39.14h-2l.14 41.14 49.73-.17zm-7.95 8.12l.17 49.72 49.73-.17.17 49.72 49.72-.17.17 49.72 49.73-.17.17 49.72 49.72-.17.17 49.72 49.73-.17.17 49.72 49.72-.17.17 49.72 49.73-.17.17 49.72 49.72-.17.17 49.72 49.72-.17.18 49.72 49.72-.17.17 49.72 49.72-.17.17 49.72 49.73-.17.17 49.72 1-.01v-1.99l49.71-.18h0l-48.72.17-.17-49.72-49.72.17-.18-49.72-49.71.17-.18-49.72-49.72.17-.17-49.72-49.73.17-.17-49.72-49.72.17-.17-49.72-49.72.17-.18-49.72-49.72.17-.17-49.72-49.72.17-.18-49.72-49.72.18-.17-49.73-49.72.18-.18-49.73-49.72.18-.17-49.72-49.72.17-.18-49.73-49.72.18-.16-47.26h-2l.17 49.26 49.72-.17zm-57.85-41.5l.17 49.72 49.72-.17.18 49.72 49.72-.17.17 49.72 49.72-.17.18 49.72 49.72-.17.17 49.72 49.72-.18.18 49.73 49.72-.18.17 49.73 49.72-.18.18 49.73 49.72-.18.17 49.73 49.72-.18.18 49.72 49.72-.17.17 49.73 49.72-.18.17 49.72 49.72-.17.17 49.72 49.73-.17.17 49.72h1.01l-.01-2 49.71-.17h0l-48.72.17-.17-49.73-49.72.18-.17-49.72-49.72.17-.17-49.73-49.73.18-.17-49.72-49.72.17-.18-49.72-49.72.17-.17-49.72-49.72.17-.17-49.72-49.73.17-.17-49.72-49.72.17-.17-49.72-49.73.17-.17-49.72-49.72.17-.17-49.72-49.73.17-.17-49.72-49.72.17-.17-49.72-49.72.17-.18-49.72-49.72.17-.02-5.75h-2l.03 7.76 49.72-.17zm-8.13 8.11l.18 49.72 49.72-.17.17 49.72 49.72-.17.17 49.72 49.73-.17.17 49.72 49.72-.17.17 49.72 49.73-.17.17 49.72 49.72-.17.17 49.72 49.73-.17.17 49.72 49.72-.17.17 49.72 49.72-.17.18 49.72 49.72-.17.17 49.72 49.73-.17.16 49.72 49.73-.17.17 49.72 49.72-.17.17 49.72 1.01-.01-.01-1.99 49.72-.18h0l-48.72.17-.18-49.72-49.72.17-.17-49.72-49.72.17-.17-49.72-49.72.17-.18-49.72-49.72.17-.17-49.72-49.72.17-.18-49.72-49.72.17-.17-49.72-49.72.17-.18-49.72-49.72.18-.17-49.73-49.72.17-.18-49.72-49.72.18-.17-49.73-49.72.18-.18-49.73-49.72.18-.17-49.72-49.72.17-.17-49.73-49.73.18-.04-13.87h-2l.05 15.87 49.72-.17z"/><path d="M269.54 23.52l.17 49.72 49.72-.17.17 49.72 49.72-.17.18 49.72 49.72-.17.17 49.72 49.72-.17.18 49.72 49.72-.18.17 49.73 49.72-.18.18 49.73 49.72-.18.17 49.73 49.72-.18.18 49.72 49.72-.17.17 49.72 49.72-.17.18 49.72 49.72-.17.17 49.72 49.72-.17.17 49.72 49.72-.17.17 46.99h2l-.17-49-49.73.18-.17-49.73-49.72.18-.17-49.73-49.72.18-.17-49.73-49.73.18-.17-49.72-49.72.17-.17-49.72-49.73.17-.17-49.72-49.72.17-.17-49.72-49.73.17-.17-49.72-49.72.17-.17-49.72-49.72.17-.18-49.72-49.72.17-.17-49.72-49.72.17-.18-49.72-49.72.17-.17-49.72-49.72.17-.08-21.91h-2l.08 23.92 49.73-.17zm-8.31 8.33l.17 49.72 49.73-.17.17 49.72 49.72-.17.17 49.72 49.72-.17.18 49.72 49.72-.17.17 49.72 49.72-.17.18 49.72 49.72-.18.17 49.73 49.72-.18.18 49.73 49.72-.18.17 49.72 49.72-.17.18 49.72 49.72-.17.17 49.72 49.72-.17.17 49.72 49.72-.17.18 49.72 49.72-.17.13 38.66h2l-.14-40.67-49.72.18-.17-49.73-49.72.18-.17-49.72-49.73.17-.17-49.72-49.72.17-.18-49.72-49.72.17-.17-49.72-49.72.17-.17-49.72-49.73.17-.17-49.72-49.72.17-.17-49.72-49.72.17-.18-49.72-49.72.17-.17-49.72-49.72.17-.18-49.72-49.72.17-.17-49.72-49.72.17-.18-49.72-49.72.17-.1-30.24h-2l.11 32.25 49.72-.17zm-7.96 8.04l.17 49.73 49.73-.18.17 49.72 49.72-.17.18 49.72 49.72-.17.17 49.72 49.72-.17.17 49.72 49.73-.17.17 49.72 49.72-.17.17 49.72 49.73-.17.17 49.72 49.72-.17.17 49.72 49.73-.17.17 49.72 49.72-.17.17 49.72 49.73-.17.16 49.72 49.73-.17.17 49.72 49.72-.17.11 30.61h2l-.12-32.62-49.72.17-.17-49.72-49.72.17-.17-49.72-49.72.17-.18-49.72-49.72.17-.17-49.72-49.72.17-.18-49.72-49.72.17-.17-49.72-49.72.17-.18-49.72-49.72.18-.17-49.73-49.72.18-.17-49.73-49.73.18-.17-49.73-49.72.18-.17-49.72-49.73.17-.17-49.72-49.72.17-.17-49.72-49.73.17-.13-38.29h-2l.14 40.3 49.72-.18zm-8.12 8.12l.17 49.72 49.72-.17.17 49.72 49.73-.17.17 49.72 49.72-.17.17 49.72 49.73-.17.17 49.72 49.72-.18.17 49.73 49.72-.18.18 49.73 49.72-.18.17 49.73 49.72-.18.18 49.73 49.72-.18.17 49.72 49.72-.17.18 49.73 49.72-.18.17 49.72 49.72-.17.17 49.72 49.72-.17.08 22.5h2l-.08-24.51-49.73.18-.17-49.72-49.72.17-.17-49.73-49.72.18-.17-49.73-49.72.18-.18-49.72-49.72.17-.17-49.72-49.72.17-.18-49.72-49.72.17-.17-49.72-49.72.17-.18-49.72-49.72.17-.17-49.72-49.72.17-.18-49.72-49.72.17-.17-49.72-49.72.17-.18-49.72-49.72.17-.17-49.72-49.72.17-.16-46.4h-2.01l.17 48.41 49.73-.17zM187.29 6.5l.18 49.73 49.72-.18.17 49.73 49.72-.18.17 49.72 49.73-.17.17 49.72 49.72-.17.18 49.72 49.72-.17.17 49.72 49.72-.17.17 49.72 49.73-.17.17 49.72 49.72-.17.18 49.72 49.72-.17.17 49.72 49.72-.17.17 49.72 49.73-.17.17 49.72 49.72-.17.17 49.72 49.72-.17.17 49.72 49.73-.17.05 14.45h2l-.06-16.46-49.72.17-.18-49.72-49.71.17-.18-49.72-49.72.17-.17-49.72-49.72.17-.18-49.72-49.72.17-.17-49.72-49.72.17-.17-49.72-49.73.17-.17-49.72-49.72.17-.18-49.72-49.72.18-.17-49.73-49.72.18-.17-49.73-49.73.18-.17-49.72-49.72.17-.17-49.72-49.73.17-.17-49.72-49.72.17-.17-49.72-49.73.17-.01-4.9h-2l.02 6.91 49.72-.18zm-8.01 7.96l.17 49.73 49.72-.18.17 49.73 49.72-.18.18 49.72 49.72-.17.17 49.72 49.73-.17.17 49.72 49.72-.17.17 49.72 49.72-.17.18 49.72 49.72-.17.17 49.72 49.72-.17.18 49.72 49.72-.17.17 49.72 49.72-.17.18 49.72 49.72-.17.17 49.72 49.72-.17.17 49.72 49.72-.17.18 49.72 49.72-.17.02 6.49h2l-.03-8.5-49.72.17-.17-49.72-49.72.17-.17-49.72-49.73.17-.17-49.72-49.72.17-.17-49.72-49.72.18-.18-49.73-49.72.17-.17-49.72-49.72.17-.18-49.72-49.72.18-.17-49.73-49.72.18-.18-49.73-49.72.18-.17-49.72-49.72.17-.18-49.72-49.72.17-.17-49.72-49.72.17-.18-49.72-49.72.17-.17-49.72-49.72.17-.05-12.86h-2l.05 14.87 49.73-.18zm-7.96 8.05l.17 49.72 49.72-.17.18 49.72 49.72-.17.17 49.72 49.72-.17.18 49.72 49.72-.17.17 49.72 49.72-.17.17 49.72 49.73-.17.17 49.72 49.72-.17.17 49.72 49.73-.18.17 49.73 49.72-.18.17 49.73 49.73-.18.17 49.73 49.72-.18.17 49.73 49.73-.18.17 49.73 49.72-.18.16 48h51.73l-.01-.45-49.72.17-.17-49.72-49.72.17-.17-49.72-49.72.17-.18-49.72-49.72.17-.17-49.72-49.72.17-.17-49.72-49.73.17-.17-49.72-49.72.17-.17-49.72-49.73.17-.17-49.72-49.72.17-.17-49.72-49.73.17-.17-49.72-49.72.17-.17-49.72-49.73.17-.17-49.72-49.72.17-.17-49.72-49.72.17-.18-49.72-49.72.18-.07-20.91h-2l.08 22.91 49.72-.17zm-8.13 8.11l.18 49.73 49.72-.18.17 49.73 49.72-.18.17 49.72 49.73-.17.17 49.72 49.72-.17.17 49.72 49.73-.17.17 49.72 49.72-.17.17 49.72 49.73-.17.17 49.72 49.72-.17.17 49.72 49.73-.17.17 49.72 49.72-.17.17 49.72 49.72-.17.18 49.72 49.72-.17.17 49.72 49.72-.17.14 39.88h2l-.15-41.89-49.71.17-.18-49.72-49.72.17-.17-49.72-49.72.17-.18-49.72-49.72.17-.17-49.72-49.72.17-.18-49.72-49.72.18-.17-49.73-49.72.18-.18-49.73-49.72.18-.17-49.73-49.72.18-.18-49.73-49.72.18-.17-49.73-49.72.18-.18-49.72-49.72.17-.17-49.72-49.72.17-.17-49.72-49.73.17-.1-29.02h-2l.11 31.03 49.72-.18z"/><path d="M155.24 38.67l.17 49.72 49.72-.17.17 49.72 49.72-.17.18 49.72 49.72-.17.17 49.72 49.72-.17.18 49.72 49.72-.17.17 49.72 49.72-.17.18 49.72 49.72-.18.17 49.73 49.72-.18.18 49.73 49.72-.18.17 49.73 49.72-.18.17 49.73 49.73-.18.17 49.73 49.72-.18.17 49.73 49.72-.18.11 31.84h2l-.11-33.84-49.72.17-.17-49.73-49.73.18-.17-49.72-49.72.17-.18-49.72-49.72.17-.17-49.72-49.72.17-.17-49.72-49.73.17-.17-49.72-49.72.17-.17-49.72-49.72.17-.18-49.72-49.72.17-.17-49.72-49.73.17-.17-49.72-49.72.17-.17-49.72-49.73.17-.17-49.72-49.72.17-.17-49.72-49.72.18-.13-37.07h-2l.13 39.07 49.73-.17zM146.93 47l.17 49.72 49.72-.17.18 49.72 49.72-.17.17 49.72 49.72-.17.18 49.72 49.72-.17.17 49.72 49.72-.17.18 49.72 49.72-.17.17 49.72 49.72-.17.18 49.72 49.72-.18.17 49.73 49.72-.18.17 49.73 49.73-.18.17 49.73 49.72-.18.17 49.73 49.73-.18.17 49.73 49.72-.18.08 23.51h2l-.09-25.51-49.72.17-.17-49.72-49.72.17-.18-49.72-49.72.17-.17-49.72-49.72.17-.17-49.72-49.73.17-.17-49.72-49.72.17-.17-49.72-49.73.17-.17-49.72-49.72.17-.17-49.72-49.73.17-.17-49.72-49.72.17-.17-49.72-49.73.17-.17-49.72-49.72.17-.17-49.72-49.73.18-.17-49.73-49.72.18-.16-45.4h-2l.17 47.4 49.72-.17zM89.08 5.5l.17 49.72 49.72-.17.18 49.72 49.72-.18.17 49.73 49.72-.18.17 49.73 49.73-.18.17 49.73 49.72-.18.17 49.72 49.73-.17.17 49.72 49.72-.17.17 49.72 49.73-.17.17 49.72 49.72-.17.17 49.72 49.72-.17.18 49.72 49.72-.17.17 49.72 49.72-.17.18 49.72 49.72-.17.17 49.72 49.72-.17.05 15.46h2l-.06-17.47-49.71.17-.18-49.72-49.72.17-.17-49.72-49.72.17-.18-49.72-49.72.18-.17-49.73-49.72.18-.18-49.73-49.72.18-.17-49.73-49.72.18-.18-49.73-49.72.18-.17-49.72-49.72.17-.18-49.72-49.72.17-.17-49.72-49.72.17-.18-49.72-49.72.17-.17-49.72-49.72.17-.17-49.72-49.73.17-.17-49.72-49.72.17-.01-3.89h-2l.01 5.9 49.73-.17zm-8.13 8.11l.17 49.72 49.72-.17.18 49.72 49.72-.17.17 49.72 49.72-.17.18 49.72 49.72-.17.17 49.72 49.72-.17.18 49.72 49.72-.17.17 49.72 49.72-.17.18 49.72 49.72-.18.17 49.73 49.72-.17.18 49.72 49.72-.18.17 49.73 49.72-.18.18 49.73 49.72-.18.17 49.73 49.72-.18.17 49.73 49.72-.18.03 7.35h2l-.03-9.36-49.72.18-.17-49.72-49.73.17-.17-49.72-49.72.17-.17-49.72-49.73.17-.17-49.72-49.72.17-.17-49.72-49.73.17-.17-49.72-49.72.17-.17-49.72-49.72.17-.18-49.72-49.72.17-.17-49.72-49.73.17-.17-49.72-49.72.17-.17-49.72-49.72.17-.18-49.72-49.72.18-.17-49.73-49.72.18-.18-49.73-49.72.18-.04-12.01h-2l.05 14.01 49.72-.17zm-7.96 8.05l.18 49.72 49.72-.18.17 49.73 49.72-.18.18 49.73 49.72-.18.17 49.73 49.72-.18.18 49.72 49.72-.17.17 49.73 49.72-.18.17 49.72 49.73-.17.17 49.72 49.72-.17.17 49.72 49.73-.17.17 49.72 49.72-.17.17 49.72 49.73-.17.17 49.72 49.72-.17.17 49.72 49.73-.17.16 48.85h51.72v-1.31l-49.72.17-.17-49.72-49.72.17-.18-49.72-49.72.17-.17-49.72-49.72.17-.18-49.72-49.72.18-.17-49.73-49.72.18-.18-49.73-49.72.18-.17-49.72-49.72.17-.17-49.73-49.73.18-.17-49.72-49.72.17-.18-49.72-49.72.17-.17-49.72-49.72.17-.17-49.72-49.73.17-.17-49.72-49.72.17-.17-49.72-49.72.17L25.2-.23h-2.01l.08 22.06 49.72-.17zm-7.94 8.12l.17 49.72 49.72-.17.17 49.72 49.73-.17.17 49.72 49.72-.17.17 49.72 49.73-.18.17 49.73 49.72-.18.17 49.73 49.73-.18.17 49.73 49.72-.18.17 49.73 49.73-.18.17 49.72 49.72-.17.17 49.72 49.73-.17.17 49.72 49.72-.17.17 49.72 49.72-.17.18 49.72 49.72-.17.14 40.73h2l-.15-42.74-49.72.18-.17-49.73-49.72.18-.18-49.73-49.72.18-.17-49.73-49.72.18-.18-49.72-49.72.17-.17-49.72-49.72.17-.18-49.72-49.72.17-.17-49.72-49.72.17-.18-49.72-49.72.17-.17-49.72-49.72.17-.18-49.72-49.72.17-.17-49.72-49.72.17-.17-49.72-49.73.17-.17-49.72-49.72.17-.1-28.17h-2l.1 30.18 49.73-.17zm-7.96 8.04l.17 49.73 49.72-.18.18 49.72 49.72-.17.17 49.72 49.72-.17.18 49.72 49.72-.17.17 49.72 49.72-.17.18 49.72 49.72-.17.17 49.72 49.72-.17.18 49.72 49.72-.17.17 49.72 49.72-.17.17 49.72 49.73-.17.17 49.72 49.72-.17.18 49.72 49.72-.17.17 49.72 49.72-.17.11 32.68h2.01l-.12-34.69-49.73.17-.17-49.72-49.72.17-.18-49.72-49.72.17-.17-49.72-49.72.17-.17-49.72-49.73.17-.17-49.72-49.72.17-.17-49.72-49.72.17-.18-49.72-49.72.18-.17-49.73-49.73.18-.17-49.73-49.72.18-.17-49.73-49.73.18-.17-49.73-49.72.18-.17-49.72-49.72.17-.18-49.72-49.72.17L9.24-.23h-2L7.37 38l49.72-.18zm-7.95 57.84l49.72-.17.17 49.72 49.72-.17.18 49.72 49.72-.17.17 49.72 49.72-.18.18 49.73 49.72-.18.17 49.73 49.72-.18.17 49.73 49.73-.18.17 49.72 49.72-.17.17 49.73 49.73-.18.17 49.72 49.72-.17.17 49.72 49.72-.17.18 49.72 49.72-.17.17 49.72 49.73-.17.08 24.57h2l-.09-26.58-49.72.18-.18-49.73-49.72.18-.17-49.73-49.72.18-.18-49.73-49.72.18-.17-49.72-49.72.17-.17-49.72-49.73.17-.17-49.72-49.72.17-.18-49.72-49.72.17-.17-49.72-49.72.17-.17-49.72-49.73.17-.17-49.72-49.72.17-.17-49.72-49.73.17-.17-49.72-49.72.17-.17-49.72-49.73.17L1.08-.23H-.26v46.34l49.22-.17.18 49.72z"/><path d="M41.18 103.7l49.72-.17.17 49.72 49.72-.17.18 49.72 49.72-.17.17 49.72 49.73-.17.17 49.72 49.72-.17.17 49.72 49.73-.17.17 49.72 49.72-.17.17 49.72 49.73-.17.17 49.72 49.72-.17.17 49.72 49.72-.17.18 49.72 49.72-.17.17 49.72 49.72-.17.18 49.72 49.72-.17.05 16.52h2.01l-.07-18.53-49.72.17-.17-49.72-49.73.17-.17-49.72-49.72.17-.17-49.72-49.72.17-.18-49.72-49.72.17-.17-49.72-49.72.17-.18-49.72-49.72.17-.17-49.72-49.72.17-.18-49.72-49.72.18-.17-49.73-49.72.18-.18-49.73-49.72.18-.17-49.73-49.72.18-.18-49.72-49.72.17L43 51.98l-43.26.15v2l41.27-.15.17 49.72zm-8.31 8.33l49.72-.17.18 49.72 49.72-.17.17 49.72 49.72-.17.18 49.72 49.72-.17.17 49.72 49.72-.17.18 49.72 49.72-.17.17 49.72 49.72-.17.18 49.72 49.72-.17.17 49.72 49.72-.17.18 49.72 49.72-.17.17 49.72 49.72-.17.18 49.72 49.72-.17.17 49.72 49.72-.17.03 8.19h2l-.03-10.2-49.73.17-.17-49.72-49.72.17-.17-49.72-49.73.17-.17-49.72-49.72.17-.17-49.72-49.73.17-.17-49.72-49.72.17-.17-49.72-49.72.17-.18-49.72-49.72.17-.17-49.72-49.73.18-.17-49.73-49.72.18-.17-49.72-49.72.17-.18-49.72-49.72.17-.17-49.72-49.72.17-.18-49.72-34.95.12v2l32.96-.12.17 49.72zm-7.95 8.05l49.72-.17.17 49.72 49.72-.17.18 49.72 49.72-.17.17 49.72 49.72-.17.18 49.72 49.72-.17.17 49.72 49.72-.18.18 49.73 49.72-.18.17 49.73 49.72-.18.17 49.73 49.73-.18.17 49.72 49.72-.17.17 49.73 49.73-.18.17 49.73 49.72-.18.17 49.7h7.21l42.52-.15v.15h2l-.01-2.15-49.72.17-.18-49.73-49.72.18-.17-49.73-49.72.18-.18-49.72-49.72.17-.17-49.72-49.72.17-.18-49.72-49.72.17-.17-49.72-49.72.17-.17-49.72-49.73.17-.17-49.72-49.72.17-.18-49.72-49.72.17-.17-49.72-49.72.17-.17-49.72-49.73.17-.17-49.72-49.72.17-.17-49.72-27 .09v2l25-.08.18 49.72zm-8.13 8.11l49.72-.17.17 49.72 49.73-.17.17 49.72 49.72-.17.17 49.72 49.72-.17.18 49.72 49.72-.17.17 49.72 49.73-.17.17 49.72 49.72-.17.17 49.72 49.72-.17.18 49.72 49.72-.17.17 49.72 49.72-.17.18 49.72 49.72-.17.17 49.72 49.72-.17.15 41.58h2l-.15-43.59-49.72.17-.18-49.72-49.72.17-.17-49.72-49.73.17-.17-49.72-49.72.17-.17-49.72-49.72.17-.18-49.72-49.72.17-.17-49.72-49.72.18-.18-49.73-49.72.17-.17-49.72-49.72.18-.18-49.73-49.72.18-.17-49.73-49.72.18-.18-49.72-49.72.17-.17-49.72-18.87.06v2l16.88-.06.17 49.72zm-7.96 8.05l49.72-.17.18 49.72 49.72-.17.17 49.72 49.72-.17.18 49.72 49.72-.17.17 49.72 49.72-.18.18 49.73 49.72-.18.17 49.73 49.72-.18.18 49.73 49.72-.18.17 49.72 49.72-.17.17 49.73 49.73-.18.17 49.72 49.72-.17.17 49.72 49.73-.17.11 33.54h2l-.12-35.55-49.72.18-.18-49.73-49.72.18-.17-49.73-49.72.18-.18-49.72-49.72.17-.17-49.72-49.72.17-.17-49.72-49.73.17-.17-49.72-49.72.17-.17-49.72-49.73.17-.17-49.72-49.72.17-.17-49.72-49.73.17-.17-49.72-49.72.17-.17-49.72-49.73.17-.17-49.72-10.91.04v2l8.92-.03.17 49.72zM.61 94.68l.17 49.72 49.72-.17.17 49.72 49.73-.17.17 49.72 49.72-.18.17 49.73 49.73-.18.17 49.73 49.72-.18.17 49.73 49.73-.18.17 49.72 49.72-.17.17 49.73 49.72-.18.18 49.72 49.72-.17.17 49.72 49.72-.17.18 49.72 49.72-.17.17 49.72 49.72-.17.09 25.38h2l-.09-27.39-49.72.18-.18-49.73-49.72.18-.17-49.73-49.73.18-.17-49.72-49.72.17-.17-49.73-49.72.18-.18-49.72-49.72.17-.17-49.72-49.72.17-.18-49.72-49.72.17-.17-49.72-49.72.17-.18-49.72-49.72.17-.17-49.72-49.72.17-.18-49.72-49.72.17-.17-49.72-2.86.01v2h.87zm543.05 600.8l-.18-49.72-49.72.17-.17-49.72-49.72.17-.18-49.72-49.72.17-.17-49.72-49.72.17-.18-49.72-49.72.17-.17-49.72-49.72.18-.17-49.73-49.73.17-.17-49.72-49.72.17-.17-49.72-49.73.18-.17-49.73-49.72.18-.17-49.73-44.8.16v2l42.8-.15.18 49.72 49.72-.17.17 49.72 49.72-.17.18 49.72 49.72-.17.17 49.72 49.72-.17.17 49.72 49.73-.17.17 49.72 49.72-.17.17 49.72 49.73-.17.17 49.72 49.72-.17.18 49.72 49.72-.17.17 49.72 49.72-.17.17 49.72 49.73-.17.06 17.33h2l-.07-19.34-49.72.17zm-8.13 8.12l-.17-49.73-49.73.17-.17-49.72-49.72.18-.17-49.73-49.72.18-.18-49.72-49.72.17-.17-49.72-49.72.17-.18-49.72-49.72.17-.17-49.72-49.72.17-.18-49.72-49.72.17-.17-49.72-49.72.17-.17-49.72-49.73.17-.17-49.72-36.67.13v2l34.68-.13.17 49.73 49.72-.17.17 49.72 49.73-.18.17 49.73 49.72-.18.17 49.73 49.73-.18.17 49.73 49.72-.18.17 49.72 49.73-.17.17 49.72 49.72-.17.17 49.72 49.72-.17.18 49.72 49.72-.17.17 49.72 49.72-.17.18 49.72 49.72-.17.03 9.22h2l-.04-11.23-49.72.18z"/><path d="M527.57 711.64l-.17-49.72-49.72.17-.18-49.72-49.72.17-.17-49.72-49.72.17-.17-49.72-49.72.17-.18-49.72-49.72.17-.17-49.72-49.72.17-.18-49.72-49.72.17-.17-49.72-49.73.18-.17-49.73-49.72.17-.17-49.72-49.72.18-.18-49.73-28.71.1v2l26.72-.09.17 49.72 49.72-.17.18 49.72 49.72-.17.17 49.72 49.72-.17.18 49.72 49.72-.17.17 49.72 49.72-.17.18 49.72 49.72-.17.17 49.72 49.72-.17.18 49.72 49.72-.17.17 49.72 49.72-.17.18 49.72 49.72-.17.17 49.72 49.72-.17.01 1.17h2l-.02-3.18-49.72.17zm-58.2-41.22l-.17-49.72-49.72.17-.17-49.72-49.73.17-.17-49.72-49.72.17-.17-49.72-49.73.17-.17-49.72-49.72.17-.17-49.72-49.73.18-.17-49.73-49.72.17-.17-49.72-49.73.18-.17-49.73-49.72.18-.17-49.73-20.41.07v2l18.41-.06.18 49.72 49.72-.17.17 49.72 49.72-.17.18 49.72 49.72-.17.17 49.72 49.72-.17.18 49.72 49.72-.17.17 49.72 49.72-.17.17 49.72 49.73-.17.17 49.72 49.72-.17.18 49.72 49.72-.17.17 49.72 49.72-.17.15 42.39h2l-.15-44.4-49.73.17zm-7.95 8.05l-.18-49.73-49.72.18-.17-49.72-49.72.17-.18-49.72-49.72.17-.17-49.72-49.72.17-.18-49.72-49.72.17-.17-49.72-49.72.17-.17-49.72-49.73.17-.17-49.72-49.72.17-.17-49.72-49.73.17-.17-49.72-12.45.04v2l10.46-.03.17 49.72 49.72-.17.17 49.72 49.73-.17.17 49.72 49.72-.18.17 49.73 49.73-.18.17 49.73 49.72-.18.17 49.73 49.72-.18.18 49.73 49.72-.18.17 49.73 49.73-.18.17 49.72 49.72-.17.17 49.73 49.72-.18.12 34.35h2l-.12-36.36-49.72.18zm-8.13 8.11l-.17-49.72-49.73.17-.17-49.72-49.72.17-.17-49.72-49.72.17-.18-49.72-49.72.17-.17-49.72-49.73.17-.17-49.72-49.72.17-.17-49.72-49.72.18-.18-49.73-49.72.18-.17-49.73-49.72.18-.18-49.73-4.32.02v2l2.33-.01.17 49.72 49.73-.17.17 49.72 49.72-.17.17 49.72 49.72-.17.18 49.72 49.72-.17.17 49.72 49.72-.17.18 49.72 49.72-.17.17 49.72 49.72-.17.18 49.72 49.72-.17.17 49.72 49.72-.17.18 49.72 49.72-.17.09 26.23h2l-.1-28.24-49.72.17zm-7.96 8.05l-.17-49.73-49.72.18-.18-49.73-49.72.18-.17-49.73-49.72.18-.17-49.72-49.73.17-.17-49.72-49.72.17-.17-49.72-49.73.17-.17-49.72-49.72.17-.18-49.72-49.72.17-.17-49.72-46.26.16v2l44.27-.15.17 49.72 49.72-.18.18 49.73 49.72-.17.17 49.72 49.72-.18.17 49.73 49.73-.18.17 49.73 49.72-.18.17 49.73 49.73-.18.17 49.72 49.72-.17.17 49.72 49.73-.17.17 49.72 49.72-.17.06 18.19h2l-.07-20.2-49.72.18zm-7.95 8.12l-.17-49.72-49.72.17-.17-49.72-49.72.17-.18-49.72-49.72.17-.17-49.72-49.72.17-.18-49.72-49.72.17-.17-49.72-49.72.17-.18-49.72-49.72.17-.17-49.72-49.72.17-.18-49.72-38.31.13v2l36.32-.12.17 49.72 49.73-.17.17 49.72 49.72-.17.17 49.72 49.73-.17.17 49.72 49.72-.17.17 49.72 49.73-.18.17 49.73 49.72-.17.17 49.72 49.72-.18.18 49.73 49.72-.18.17 49.73 49.72-.18.04 10.07h2l-.04-12.07-49.73.17zm-7.95 8.04l-.17-49.72-49.73.17-.17-49.72-49.72.17-.17-49.72-49.72.18-.18-49.73-49.72.18-.17-49.72-49.72.17-.18-49.73-49.72.18-.17-49.73-49.72.18-.18-49.72-49.72.17-.17-49.72-30.36.1v2l28.36-.1.18 49.73 49.72-.18.17 49.72 49.72-.17.18 49.72 49.72-.17.17 49.72 49.72-.17.18 49.72 49.72-.17.17 49.72 49.72-.17.18 49.72 49.72-.17.17 49.72 49.72-.17.18 49.72 49.72-.17v2.02h2l-.01-4.03-49.72.17zm-58.02-41.43l-.18-49.72-49.72.17-.17-49.72-49.72.17-.18-49.72-49.72.17-.17-49.72-49.72.17-.17-49.72-49.73.17-.17-49.72-49.72.17-.18-49.72-49.72.17-.17-49.72-22.23.08v2l20.24-.07.17 49.72 49.72-.17.17 49.72 49.73-.17.17 49.72 49.72-.17.17 49.72 49.73-.17.17 49.72 49.72-.18.17 49.73 49.73-.17.17 49.72 49.72-.18.17 49.73 49.73-.18.15 43.46h2l-.16-45.46-49.72.17zm-7.96 8.04l-.17-49.72-49.72.17-.18-49.72-49.72.17-.17-49.72-49.73.18-.17-49.73-49.72.18-.17-49.73-49.72.18-.18-49.72-49.72.17-.17-49.72-49.72.17-.18-49.72-14.27.05v1.99l12.28-.04.17 49.72 49.72-.17.18 49.72 49.72-.17.17 49.72 49.73-.17.17 49.72 49.72-.17.17 49.72 49.72-.17.18 49.72 49.72-.17.17 49.72 49.72-.17.18 49.72 49.72-.17.12 35.41h2l-.13-37.42-49.72.17zm-8.31 8.34l-.17-49.73-49.72.17-.17-49.72-49.73.17-.17-49.72-49.72.18-.17-49.73-49.73.18-.17-49.73-49.72.18-.17-49.72-49.72.17-.18-49.72-49.72.17-.17-49.72-5.97.02v2l3.97-.02.18 49.73 49.72-.18.17 49.72 49.72-.17.18 49.72 49.72-.17.17 49.72 49.72-.17.18 49.72 49.72-.17.17 49.72 49.72-.17.18 49.72 49.72-.17.17 49.72 49.72-.17.1 27.08h2l-.1-29.09-49.73.18zm-7.95 8.04l-.18-49.72-49.72.17-.17-49.72-49.72.17-.18-49.72-49.72.17-.17-49.72-49.72.17-.17-49.72-49.73.17-.17-49.72-49.72.17-.17-49.72-47.91.17v2l45.91-.16.18 49.72 49.72-.17.17 49.72 49.72-.17.18 49.72 49.72-.17.17 49.72 49.72-.17.17 49.72 49.73-.17.17 49.72 49.72-.17.17 49.72 49.73-.17.06 19.03h2l-.07-21.04-49.72.17zm-8.13 8.11l-.17-49.72-49.72.17-.18-49.72-49.72.17-.17-49.72-49.72.18-.18-49.73-49.72.18-.17-49.73-49.72.18-.18-49.72-49.72.17-.17-49.72-39.78.13v2l37.78-.13.18 49.72 49.72-.17.17 49.72 49.72-.17.18 49.72 49.72-.17.17 49.72 49.72-.17.18 49.72 49.72-.17.17 49.72 49.72-.17.18 49.72 49.72-.17.04 10.92h2l-.05-12.93-49.72.17zm-7.96 8.05l-.17-49.72-49.72.17-.17-49.72-49.73.17-.17-49.72-49.72.17-.17-49.72-49.73.17-.17-49.72-49.72.17-.17-49.72-49.73.17-.17-49.72-31.82.11v2l29.83-.1.17 49.72 49.72-.17.18 49.72 49.72-.17.17 49.72 49.72-.17.18 49.72 49.72-.17.17 49.72 49.72-.17.17 49.72 49.73-.17.17 49.72 49.72-.18.01 2.88h2l-.02-4.88-49.72.17zm-57.91-41.59l-.17-49.72-49.72.17-.18-49.72-49.72.17-.17-49.72-49.72.17-.18-49.72-49.72.17-.17-49.72-49.72.17-.18-49.72-23.8.08v2l21.81-.07.17 49.72 49.73-.17.17 49.72 49.72-.17.17 49.72 49.73-.17.17 49.72 49.72-.17.17 49.72 49.72-.17.18 49.72 49.72-.17.15 44.46h2l-.16-46.47-49.72.17zm-7.96 8.05l-.17-49.73-49.72.18-.17-49.73-49.73.18-.17-49.72-49.72.17-.17-49.72-49.73.17-.17-49.72-49.72.17-.17-49.72-15.85.05v2l13.85-.05.18 49.73 49.72-.18.17 49.73 49.72-.18.18 49.72 49.72-.17.17 49.72 49.72-.17.17 49.72 49.73-.17.17 49.72 49.72-.17.13 36.42h2l-.13-38.42-49.73.17zm-8.12 8.11l-.18-49.72-49.72.17-.17-49.72-49.72.17-.18-49.72-49.72.17-.17-49.72-49.72.17-.18-49.72-49.72.17-.17-49.72-7.72.03v2l5.73-.02.17 49.72 49.72-.17.17 49.72 49.73-.17.17 49.72 49.72-.17.17 49.72 49.72-.17.18 49.72 49.72-.17.17 49.72 49.72-.17.1 28.3h2l-.1-30.31-49.72.17z"/><path d="M249.15 692.56l-.17-49.73-49.73.18-.17-49.73-49.72.18-.17-49.73-49.72.18-.18-49.72-49.72.17-.17-49.72-49.66.17v2l47.66-.17.18 49.73 49.72-.18.17 49.72 49.72-.17.18 49.72 49.72-.17.17 49.72 49.72-.17.18 49.72 49.72-.17.07 20.26h2l-.08-22.27-49.72.18zm-8.31 8.33l-.17-49.73-49.72.18-.17-49.73-49.73.18-.17-49.73-49.72.18-.17-49.72-49.72.17-.18-49.72-41.35.14v2l39.36-.14.17 49.72 49.72-.17.18 49.73 49.72-.18.17 49.72 49.72-.17.18 49.72 49.72-.17.17 49.72 49.72-.17.04 11.93h2l-.05-13.94-49.72.18zm-7.95 8.04l-.18-49.72-49.72.17-.17-49.72-49.72.17-.18-49.72-49.72.17-.17-49.72-49.72.17-.18-49.72-33.39.12v2l31.4-.11.17 49.72 49.73-.17.17 49.72 49.72-.17.17 49.72 49.73-.17.17 49.72 49.72-.17.17 49.72 49.73-.17.01 3.88h2l-.02-5.89-49.72.17zm-58.02-41.43l-.18-49.73-49.72.18-.17-49.72-49.72.17-.18-49.73-49.72.18-.17-49.72-25.27.08v2l23.28-.08.17 49.73 49.72-.18.17 49.72 49.72-.17.18 49.72 49.72-.17.17 49.72 49.72-.17.16 45.32h2l-.16-47.33-49.72.18zm-7.96 8.04l-.18-49.72-49.72.17-.17-49.72-49.72.17-.18-49.72-49.72.17-.17-49.72-17.31.06v2l15.32-.05.17 49.72 49.72-.17.18 49.72 49.72-.17.17 49.72 49.72-.17.17 49.72 49.73-.17.13 37.27h2l-.14-39.28-49.72.17zm-7.95 8.12l-.17-49.72-49.72.17-.18-49.72-49.72.17-.17-49.72-49.72.18-.18-49.73-9.36.04v2l7.37-.03.17 49.72 49.73-.17.17 49.72 49.72-.17.17 49.72 49.72-.17.18 49.72 49.72-.17.1 29.15h2l-.11-31.16-49.72.17zm-7.96 8.05l-.17-49.72-49.72.17-.17-49.72-49.72.17-.18-49.72-49.72.17-.17-49.72H-.26v51.73l49.31-.17.17 49.72 49.72-.17.18 49.72 49.72-.18.17 49.73 49.72-.18.08 21.11h2l-.08-23.11-49.73.17zm-8.12 8.11l-.17-49.72-49.73.17-.17-49.72-49.72.18-.18-49.73-43.17.15v2l41.18-.14.17 49.72 49.73-.17.17 49.72 49.72-.17.17 49.72 49.73-.17.04 12.99h2l-.05-15-49.72.17zm-7.96 8.05l-.17-49.72-49.72.17-.18-49.72-49.72.17-.17-49.72-35.22.12v2l33.23-.11.17 49.72 49.72-.18.17 49.73 49.72-.18.18 49.73 49.72-.18.02 4.95h2l-.03-6.95-49.72.17zm-58.2-41.22l-.17-49.72-49.73.17-.17-49.72-26.91.09v2l24.92-.08.17 49.72 49.72-.17.18 49.72 49.72-.18.16 46.17h2l-.17-48.17-49.72.17zm-7.96 8.05l-.17-49.73-49.72.18-.17-49.73-18.96.07v2l16.96-.06.18 49.72 49.72-.17.17 49.72 49.72-.17.13 38.12h2l-.14-40.13-49.72.18zm-8.12 8.11l-.18-49.72-49.72.17-.17-49.72-10.83.04v2l8.83-.04.18 49.73 49.72-.17.17 49.72 49.72-.18.11 30.01h2l-.11-32.01-49.72.17zm-7.96 8.04l-.17-49.72-49.73.17-.17-49.72-2.87.01v2h.88l.17 49.72 49.72-.17.18 49.72 49.72-.17.07 21.96h2l-.08-23.97-49.72.17zm-7.94 7.94l-.17-49.72-44.83.15v2l42.83-.14.18 49.72 49.72-.18.05 14.03h2l-.06-16.03-49.72.17zm-7.96 8.05l-.17-49.73-36.87.13v2l34.88-.12.17 49.72 49.72-.17.02 5.98h2l-.03-7.99-49.72.18zM-.26 665.33v2l26.75-.1.16 47.42h2l-.17-49.42-28.74.1zm0 8.01v2.01l18.79-.07.14 39.37h2l-.14-41.38-20.79.07zm0 8.31v2l10.49-.04.11 31.04h2l-.12-33.05-12.48.05z"/><path d="M-.26 689.66v2l2.53-.01.08 23h2l-.09-25-4.52.01zM2407.62 20.5v-2l-2.49.01-.06-18.74h-2l.07 20.75 4.48-.02zm0 8.02v-2l-10.44.04-.1-26.79h-2l.1 28.79 12.44-.04zm0 8.08v-1.99l-18.57.06-.12-34.9h-2l.13 36.91 20.56-.08zm0 8.02v-2l-26.53.1-.15-42.95h-2l.16 44.95 28.52-.1zm-36.64-41.5l.17 49.72 36.47-.12v-2l-34.47.12-.18-49.72-49.72.17V-.23h-2l.01 3.52 49.72-.17zm-7.96 8.05l.18 49.72 44.42-.15v-2l-42.43.14-.17-49.72-49.73.17-.03-9.56h-2l.04 11.57 49.72-.17zm-8.12 8.11l.17 49.72 49.72-.17.18 49.72 2.65-.01v-1.99h-.66l-.18-49.72-49.72.17-.17-49.73-49.72.18-.06-17.68h-2l.07 19.68 49.72-.17zm-7.96 8.05l.17 49.72 49.72-.17.18 49.72 10.61-.04v-2l-8.62.03-.17-49.72-49.73.17-.17-49.72-49.72.17-.09-25.72h-2l.1 27.73 49.72-.17zm-8.3 8.33l.17 49.72 49.72-.17.17 49.72 18.92-.07v-2l-16.93.06-.17-49.72-49.72.17-.17-49.72-49.73.17-.11-34.05h-2l.12 36.06 49.73-.17zm-7.96 8.04l.17 49.73 49.72-.18.17 49.72 26.88-.09v-2l-24.88.09-.18-49.72-49.72.17-.17-49.72-49.72.17-.15-42.1h-2l.15 44.11 49.73-.18zm-58.02-41.43l.17 49.72 49.72-.17.17 49.72 49.72-.17.18 49.72 35-.12v-2l-33.01.11-.17-49.72-49.72.17-.18-49.72-49.72.17-.17-49.72-49.72.17-.01-.66h-2l.01 2.67 49.73-.17zm-7.96 8.04l.17 49.73 49.72-.18.18 49.72 49.72-.17.17 49.72 42.96-.14v-2l-40.97.14-.17-49.72-49.72.17-.17-49.72-49.73.17-.17-49.72-49.72.17-.03-8.71h-2l.04 10.72 49.72-.18zm-8.02 7.96l.17 49.73 49.72-.18.18 49.73 49.72-.18.17 49.72 49.72-.17.18 49.73 1.08-.01v-51.72l-48.98.17-.18-49.72-49.72.17-.17-49.72-49.72.17-.18-49.72-49.72.17-.06-16.67h-2l.07 18.68 49.72-.18zm-7.96 8.05l.18 49.72 49.72-.17.17 49.72 49.72-.17.18 49.72 49.72-.17.17 49.72 9.04-.03v-2l-7.05.02-.17-49.72-49.72.17-.17-49.72-49.73.17-.17-49.72-49.72.17-.17-49.72-49.73.18-.08-24.72h-2l.09 26.72 49.72-.17zm-8.12 8.11l.17 49.73 49.72-.18.17 49.73 49.73-.18.17 49.72 49.72-.17.17 49.72 17.17-.05v-2l-15.17.05-.18-49.73-49.72.18-.17-49.72-49.72.17-.18-49.72-49.72.17-.17-49.72-49.72.17-.12-32.83h-2l.12 34.84 49.73-.18z"/><path d="M2232.64 42.48l.17 49.72 49.72-.17.18 49.72 49.72-.17.17 49.72 49.72-.17.18 49.72 25.12-.09v-2l-23.13.08-.17-49.72-49.73.17-.17-49.72-49.72.17-.17-49.72-49.73.17-.17-49.72-49.72.18-.14-40.88h-2l.15 42.88 49.72-.17zm-58.2-41.22l.17 49.72 49.72-.17.18 49.72 49.72-.17.17 49.72 49.72-.17.18 49.72 49.72-.17.17 49.72 33.43-.12v-2l-31.44.11-.17-49.72-49.72.17-.18-49.72-49.72.17-.17-49.72-49.72.18-.17-49.73-49.73.18-.17-49.21h-51.72l.01 1.66 49.72-.17zm-7.96 8.05l.17 49.72 49.73-.18.17 49.73 49.72-.17.17 49.72 49.73-.18.17 49.73 49.72-.18.17 49.73 41.39-.15v-2l-39.39.14-.18-49.72-49.72.17-.17-49.72-49.72.17-.18-49.72-49.72.17-.17-49.72-49.72.17-.18-49.72-49.72.17-.03-7.7h-1.99l.03 9.71 49.72-.17zm-8.13 8.11l.18 49.72 49.72-.17.17 49.72 49.72-.17.18 49.72 49.72-.17.17 49.72 49.72-.17.18 49.72 49.51-.17v-2l-47.52.16-.17-49.72-49.73.17-.17-49.72-49.72.17-.17-49.72-49.73.18-.17-49.73-49.72.18-.17-49.73-49.72.18-.06-15.82h-2l.06 17.82 49.72-.17zm-7.95 8.04l.17 49.73 49.72-.17.18 49.72 49.72-.18.17 49.73 49.72-.18.18 49.73 49.72-.18.17 49.72 49.72-.17.17 49.73 7.58-.03v-2l-5.58.02-.18-49.72-49.72.17-.17-49.72-49.72.17-.18-49.72-49.72.17-.17-49.72-49.72.17-.18-49.72-49.72.17-.17-49.72-49.72.17-.08-23.86h-2l.09 25.87 49.72-.18zm-7.95 8.13l.17 49.72 49.73-.17.17 49.72 49.72-.17.17 49.72 49.73-.17.17 49.72 49.72-.18.17 49.73 49.73-.18.17 49.73 15.52-.06v-2l-13.53.05-.17-49.72-49.72.17-.18-49.72-49.72.17-.17-49.72-49.72.17-.18-49.72-49.72.17-.17-49.72-49.72.17-.18-49.72-49.72.17-.11-31.98h-2l.12 33.99 49.72-.17zm-7.96 8.04l.18 49.73 49.72-.18.17 49.72 49.72-.17.18 49.72 49.72-.17.17 49.72 49.72-.17.18 49.72 49.72-.17.17 49.72 23.48-.08v-2l-21.49.08-.17-49.73-49.72.18-.17-49.73-49.73.18-.17-49.73-49.72.18-.17-49.73-49.73.18-.17-49.72-49.72.17-.17-49.72-49.73.17-.13-40.03h-2l.14 42.04 49.72-.18zM2076.47.2l.18 49.72 49.72-.17.17 49.72 49.72-.17.18 49.72 49.72-.17.17 49.72 49.72-.17.17 49.72 49.73-.18.17 49.73 49.72-.18.17 49.73 31.61-.11v-2l-29.61.1-.18-49.72-49.72.17-.17-49.72-49.72.17-.18-49.72-49.72.17-.17-49.72-49.72.17-.17-49.72-49.73.17-.17-49.72-49.72.17-.17-48.14h-51.72v.6l49.72-.17zm-7.95 8.04l.17 49.73 49.72-.18.17 49.73 49.73-.18.17 49.72 49.72-.17.17 49.72 49.72-.17.18 49.72 49.72-.17.17 49.72 49.73-.17.17 49.72 39.56-.13v-2l-37.57.12-.17-49.72-49.73.18-.17-49.73-49.72.18-.17-49.73-49.73.18-.17-49.73-49.72.18-.17-49.73-49.73.18-.17-49.72-49.72.17-.17-49.72-49.72.17-.03-6.64h-2l.03 8.65 49.73-.18zm-8.31 8.33l.17 49.73 49.72-.18.18 49.72 49.72-.17.17 49.73 49.72-.18.18 49.72 49.72-.17.17 49.72 49.72-.17.18 49.72 49.72-.17.17 49.72 47.87-.16v-2l-45.88.15-.17-49.72-49.72.18-.17-49.73-49.73.18-.17-49.73-49.72.18-.17-49.72-49.73.17-.17-49.72-49.72.17-.17-49.72-49.72.17-.18-49.72-49.72.17-.05-14.97h-2l.06 16.98 49.72-.18zm-7.96 8.05l.18 49.72 49.72-.17.17 49.72 49.72-.17.18 49.72 49.72-.17.17 49.72 49.72-.17.18 49.72 49.72-.17.17 49.72 49.72-.17.18 49.72 49.72-.18.17 49.73 5.93-.02v-2l-3.94.01-.17-49.72-49.72.17-.18-49.72-49.72.17-.17-49.72-49.72.17-.18-49.72-49.72.17-.17-49.72-49.72.17-.18-49.72-49.72.17-.17-49.72-49.72.17-.18-49.72-49.72.18-.08-23.02h-2l.09 25.02 49.72-.17zm-8.12 8.11l.17 49.72 49.72-.17.17 49.72 49.72-.17.18 49.72 49.72-.17.17 49.72 49.72-.17.18 49.72 49.72-.17.17 49.72 49.72-.17.18 49.72 49.72-.17.17 49.72 14.06-.05v-2l-12.07.04-.17-49.72-49.72.18-.17-49.73-49.73.17-.17-49.72-49.72.18-.17-49.73-49.72.18-.18-49.72-49.72.17-.17-49.73-49.72.18-.18-49.72-49.72.17-.17-49.72-49.72.17-.11-31.13h-2l.11 33.14 49.73-.18zm-7.96 8.05l.17 49.72 49.72-.17.18 49.72 49.72-.17.17 49.72 49.72-.17.18 49.72 49.72-.17.17 49.72 49.72-.18.18 49.73 49.72-.18.17 49.73 49.72-.17.17 49.72 22.02-.08v-2l-20.02.07-.17-49.72-49.73.17-.17-49.72-49.72.17-.17-49.72-49.73.17-.17-49.72-49.72.17-.17-49.72-49.73.17-.17-49.72-49.72.17-.17-49.72-49.73.17-.17-49.72-49.72.17-.14-39.17h-2l.15 41.18 49.72-.17zm-8.05 8.16l.17 49.72 49.72-.17.17 49.72 49.73-.17.17 49.72 49.72-.17.17 49.72 49.73-.18.17 49.73 49.72-.18.17 49.73 49.73-.18.17 49.73 49.72-.18.17 49.72 30.07-.1v-2l-28.08.1-.17-49.72-49.72.17-.17-49.72-49.72.17-.18-49.72-49.72.17-.17-49.72-49.72.17-.18-49.72-49.72.17-.17-49.72-49.72.17-.18-49.72-49.72.17-.17-49.72-49.72.17-.17-47.33h-2l.17 49.34 49.73-.17zm-57.85-41.51l.17 49.73 49.72-.18.17 49.72 49.72-.17.18 49.72 49.72-.17.17 49.72 49.72-.17.18 49.72 49.72-.17.17 49.72 49.72-.17.17 49.72 49.73-.17.17 49.72 49.72-.17.17 49.72 38.03-.13v-2l-36.03.12-.18-49.72-49.72.18-.17-49.73-49.72.17-.17-49.72-49.73.18-.17-49.73-49.72.18-.17-49.73-49.73.18-.17-49.73-49.72.18-.17-49.72-49.73.17-.17-49.72-49.72.17-.17-49.72-49.73.17-.02-5.83h-1.99l.02 7.84 49.73-.18zm-8.13 8.12l.17 49.72 49.72-.17.17 49.72 49.73-.17.17 49.72 49.72-.18.17 49.73 49.73-.17.17 49.72 49.72-.18.17 49.73 49.73-.18.17 49.73 49.72-.18.17 49.73 49.73-.18.17 49.73 46.15-.17v-2l-44.16.16-.17-49.72-49.72.17-.18-49.72-49.72.17-.17-49.72-49.72.17-.18-49.72-49.72.17-.17-49.72-49.72.17-.18-49.72-49.72.17-.17-49.72-49.72.17-.18-49.72-49.72.17-.17-49.72-49.72.17-.05-13.94h-2l.05 15.95 49.73-.17z"/><path d="M1954.18 23.59l.17 49.72 49.72-.17.18 49.72 49.72-.17.17 49.72 49.72-.17.18 49.72 49.72-.17.17 49.72 49.72-.17.18 49.72 49.72-.17.17 49.72 49.72-.17.18 49.72 49.72-.17.17 49.72 49.72-.17.18 49.72 4.21-.01v-2h-2.22l-.18-49.72-49.72.17-.17-49.72-49.72.17-.17-49.72-49.73.17-.17-49.72-49.72.18-.17-49.73-49.73.17-.17-49.72-49.72.18-.17-49.73-49.72.18-.18-49.72-49.72.17-.17-49.72-49.72.17-.18-49.72-49.72.17-.08-21.99h-1.99l.08 24 49.72-.18zm-8.31 8.33l.18 49.72 49.72-.17.17 49.72 49.72-.17.18 49.72 49.72-.17.17 49.72 49.72-.17.18 49.72 49.72-.17.17 49.72 49.72-.17.17 49.72 49.73-.17.17 49.72 49.72-.17.17 49.72 49.73-.17.17 49.72 12.52-.04v-2l-10.53.03-.17-49.72-49.72.17-.18-49.72-49.72.17-.17-49.72-49.72.18-.17-49.73-49.73.17-.17-49.72-49.72.18-.17-49.73-49.73.18-.17-49.73-49.72.18-.17-49.73-49.73.18-.17-49.72-49.72.17-.17-49.72-49.73.17-.1-30.32h-2l.11 32.33 49.72-.18zm-7.95 8.05l.17 49.72 49.72-.17.17 49.72 49.73-.17.17 49.72 49.72-.17.17 49.72 49.73-.17.17 49.72 49.72-.17.17 49.72 49.73-.18.17 49.73 49.72-.18.17 49.73 49.72-.18.18 49.73 49.72-.18.17 49.72 20.48-.07v-2l-18.48.07-.18-49.72-49.72.17-.17-49.72-49.72.17-.18-49.72-49.72.17-.17-49.72-49.72.17-.18-49.72-49.72.17-.17-49.72-49.72.17-.18-49.72-49.72.17-.17-49.72-49.72.17-.18-49.72-49.72.17-.17-49.72-49.72.17-.14-38.36h-1.99l.13 40.37 49.73-.17zm-8.13 8.11l.17 49.73 49.72-.18.18 49.72 49.72-.17.17 49.72 49.72-.17.18 49.72 49.72-.17.17 49.72 49.72-.17.18 49.72 49.72-.17.17 49.72 49.72-.17.18 49.72 49.72-.17.17 49.72 49.72-.17.18 49.72 28.6-.1v-2l-26.61.09-.17-49.72-49.73.17-.17-49.72-49.72.17-.17-49.72-49.73.17-.17-49.72-49.72.18-.17-49.73-49.73.18-.17-49.73-49.72.18-.17-49.73-49.73.18-.17-49.73-49.72.18-.17-49.72-49.73.17-.17-49.72-49.72.17-.16-46.48h-2l.17 48.49 49.72-.18zm-57.85-41.5l.17 49.72 49.72-.17.18 49.72 49.72-.17.17 49.72 49.72-.17.18 49.72 49.72-.17.17 49.72 49.72-.17.18 49.72 49.72-.17.17 49.72 49.72-.17.17 49.72 49.73-.18.17 49.73 49.72-.18.17 49.73 49.73-.18.17 49.72 36.56-.12v-2l-34.57.12-.17-49.72-49.72.17-.18-49.72-49.72.17-.17-49.72-49.72.17-.18-49.72-49.72.17-.17-49.72-49.72.17-.18-49.72-49.72.17-.17-49.72-49.72.17-.18-49.72-49.72.17-.17-49.72-49.72.17-.17-49.72-49.73.17-.17-49.72-49.72.17-.02-4.97h-2l.03 6.98 49.72-.17zm-7.95 8.12l.17 49.72 49.73-.17.17 49.72 49.72-.17.17 49.72 49.73-.17.17 49.72 49.72-.17.17 49.72 49.73-.17.17 49.72 49.72-.17.17 49.72 49.73-.17.17 49.72 49.72-.17.17 49.72 49.73-.17.17 49.72 49.72-.18.17 49.73 44.51-.16v-2l-42.52.15-.17-49.72-49.72.17-.17-49.72-49.72.17-.18-49.72-49.72.17-.17-49.72-49.72.17-.18-49.72-49.72.17-.17-49.72-49.72.17-.18-49.72-49.72.17-.17-49.72-49.72.17-.17-49.72-49.73.18-.17-49.73-49.72.18-.17-49.73-49.73.18-.04-13.1h-2l.05 15.1 49.72-.17zm-7.95 8.05l.17 49.72 49.72-.17.17 49.72 49.73-.18.17 49.73 49.72-.17.17 49.72 49.72-.18.18 49.73 49.72-.18.17 49.72 49.72-.17.18 49.72 49.72-.17.17 49.72 49.72-.17.18 49.72 49.72-.17.17 49.72 49.72-.17.18 49.72 49.72-.17.17 49.72 2.57-.01v-2h-.58l-.17-49.72-49.72.18-.18-49.73-49.72.18-.17-49.72-49.72.17-.17-49.73-49.73.18-.17-49.73-49.72.18-.17-49.72-49.73.17-.17-49.72-49.72.17-.17-49.72-49.73.17-.17-49.72-49.72.17-.17-49.72-49.72.17-.18-49.72-49.72.17-.17-49.72-49.72.17-.08-21.14h-2l.08 23.15 49.73-.17zm-8.13 8.11l.17 49.72 49.72-.17.18 49.72 49.72-.17.17 49.72 49.72-.17.18 49.72 49.72-.17.17 49.72 49.72-.17.17 49.72 49.73-.17.17 49.72 49.72-.17.17 49.72 49.73-.17.17 49.72 49.72-.17.17 49.72 49.73-.18.17 49.73 49.72-.18.17 49.73 10.7-.04v-2l-8.7.03-.18-49.72-49.72.17-.17-49.72-49.72.17-.18-49.72-49.72.17-.17-49.72-49.72.17-.18-49.72-49.72.17-.17-49.72-49.72.17-.18-49.72-49.72.17-.17-49.72-49.72.17-.18-49.72-49.72.17-.17-49.72-49.72.18-.17-49.73-49.73.18-.17-49.73-49.72.18-.1-29.26h-2l.11 31.26 49.72-.17z"/><path d="M1839.95 38.91l.17 49.72 49.73-.18.17 49.73 49.72-.18.17 49.73 49.72-.18.18 49.73 49.72-.18.17 49.73 49.73-.18.17 49.73 49.72-.18.17 49.72 49.72-.17.18 49.72 49.72-.17.17 49.72 49.72-.17.18 49.72 49.72-.17.17 49.72 49.72-.17.18 49.72 18.65-.06v-2l-16.66.05-.18-49.72-49.72.18-.17-49.73-49.72.18-.17-49.73-49.73.18-.17-49.73-49.72.18-.17-49.72-49.73.17-.17-49.72-49.72.17-.17-49.72-49.73.17-.17-49.72-49.72.17-.17-49.72-49.73.17-.17-49.72-49.72.17-.17-49.72-49.72.17-.18-49.72-49.72.17-.13-37.3h-2l.14 39.31 49.72-.17zm-8.3 8.33l.17 49.72 49.72-.17.17 49.72 49.73-.17.17 49.72 49.72-.18.17 49.73 49.72-.18.18 49.73 49.72-.18.17 49.73 49.72-.18.18 49.72 49.72-.17.17 49.72 49.72-.17.18 49.72 49.72-.17.17 49.72 49.72-.17.18 49.72 49.72-.17.17 49.72 26.96-.09v-2l-24.97.09-.17-49.73-49.72.18-.17-49.73-49.73.18-.17-49.73-49.72.18-.17-49.72-49.73.17-.17-49.72-49.72.17-.17-49.72-49.73.17-.17-49.72-49.72.17-.17-49.72-49.73.17-.17-49.72-49.72.17-.17-49.72-49.73.17-.17-49.72-49.72.17-.17-49.72-49.72.17-.16-45.63h-2l.16 47.64 49.73-.17zm-57.86-41.51l.18 49.72 49.72-.17.17 49.72 49.72-.17.18 49.72 49.72-.17.17 49.72 49.72-.17.18 49.72 49.72-.17.17 49.72 49.72-.17.18 49.72 49.72-.17.17 49.72 49.72-.17.17 49.72 49.73-.17.17 49.72 49.72-.17.17 49.72 49.73-.17.17 49.72 49.72-.17.17 49.72 34.92-.12v-2l-32.92.11-.18-49.72-49.72.17-.17-49.72-49.72.17-.18-49.72-49.72.17-.17-49.72-49.72.17-.18-49.72-49.72.17-.17-49.72-49.72.17-.18-49.72-49.72.17-.17-49.72-49.72.18-.18-49.73-49.72.18-.17-49.73-49.72.18-.17-49.73-49.73.18-.17-49.73-49.72.18-.17-49.72-49.73.17-.01-4.13h-2l.02 6.14 49.72-.18zm-8.12 8.12l.17 49.72 49.72-.17.17 49.72 49.73-.18.17 49.73 49.72-.17.17 49.72 49.72-.18.18 49.73 49.72-.18.17 49.72 49.72-.17.18 49.73 49.72-.18.17 49.72 49.72-.17.18 49.72 49.72-.17.17 49.72 49.72-.17.18 49.72 49.72-.17.17 49.72 49.72-.17.18 49.72 43.04-.15v-2l-41.05.14-.17-49.72-49.73.18-.17-49.73-49.72.18-.17-49.73-49.72.18-.18-49.73-49.72.18-.17-49.72-49.73.17-.17-49.72-49.72.17-.17-49.72-49.72.17-.18-49.72-49.72.17-.17-49.72-49.72.17-.18-49.72-49.72.17-.17-49.72-49.72.17-.18-49.72-49.72.17-.17-49.72-49.72.17-.05-12.24h-2l.05 14.25 49.73-.17zm-7.96 8.04l.17 49.72 49.72-.17.18 49.72 49.72-.17.17 49.72 49.72-.17.18 49.72 49.72-.17.17 49.72 49.72-.17.18 49.72 49.72-.17.17 49.72 49.72-.17.18 49.72 49.72-.17.17 49.72 49.72-.17.18 49.72 49.72-.17.17 49.72 49.72-.17.17 49.72 49.73-.17.17 49.72 49.72-.18.17 48.62h1.11v-50.62l-49.01.17-.17-49.72-49.72.17-.18-49.72-49.72.17-.17-49.72-49.72.17-.17-49.72-49.73.17-.17-49.72-49.72.17-.17-49.72-49.73.17-.17-49.72-49.72.17-.17-49.72-49.73.18-.17-49.73-49.72.17-.17-49.72-49.73.18-.17-49.73-49.72.18-.17-49.72-49.72.17-.18-49.72-49.72.17-.07-20.29h-2l.08 22.29 49.72-.17zm-8.02 7.96l.17 49.73 49.73-.18.17 49.72 49.72-.17.17 49.72 49.73-.17.17 49.72 49.72-.17.17 49.72 49.72-.17.18 49.72 49.72-.17.17 49.72 49.72-.17.18 49.72 49.72-.17.17 49.72 49.72-.17.18 49.72 49.72-.17.17 49.72 49.72-.17.18 49.72 49.72-.17.17 49.72 49.72-.17.14 40.65h2l-.14-42.66-49.73.17-.17-49.72-49.72.17-.17-49.72-49.73.17-.17-49.72-49.72.17-.17-49.72-49.72.17-.18-49.72-49.72.17-.17-49.72-49.72.17-.18-49.72-49.72.17-.17-49.72-49.72.18-.18-49.73-49.72.18-.17-49.73-49.72.18-.18-49.73-49.72.18-.17-49.73-49.72.18-.18-49.72-49.72.17-.1-28.25h-1.99l.1 30.25 49.72-.17zm-7.96 8.05l.18 49.72 49.72-.17.17 49.72 49.72-.17.18 49.72 49.72-.17.17 49.72 49.72-.17.18 49.72 49.72-.18.17 49.73 49.72-.18.18 49.73 49.72-.18.17 49.73 49.72-.18.18 49.73 49.72-.18.17 49.73 49.72-.18.18 49.73 49.72-.18.17 49.72 49.72-.17.17 49.72 49.73-.17.11 32.61h2l-.12-34.62-49.72.18-.18-49.73-49.72.18-.17-49.73-49.72.18-.17-49.72-49.73.17-.17-49.72-49.72.17-.17-49.72-49.73.17-.17-49.72-49.72.17-.17-49.72-49.73.17-.17-49.72-49.72.17-.17-49.72-49.73.17-.17-49.72-49.72.17-.17-49.72-49.72.17-.18-49.72-49.72.17-.17-49.72-49.72.17-.13-36.29h-2l.13 38.3 49.72-.17zm-8.12 8.11l.17 49.72 49.72-.17.17 49.72 49.73-.17.17 49.72 49.72-.17.17 49.72 49.73-.17.17 49.72 49.72-.17.17 49.72 49.73-.17.17 49.72 49.72-.17.17 49.72 49.73-.17.17 49.72 49.72-.17.17 49.72 49.73-.17.17 49.72 49.72-.17.17 49.72 49.72-.17.18 49.72 49.72-.18.08 24.5h2l-.09-26.5-49.72.17-.17-49.72-49.73.17-.17-49.72-49.72.17-.17-49.72-49.72.17-.18-49.72-49.72.17-.17-49.72-49.72.17-.18-49.72-49.72.17-.17-49.72-49.72.17-.18-49.72-49.72.18-.17-49.73-49.72.18-.18-49.73-49.72.18-.17-49.73-49.72.18-.17-49.72-49.73.17-.17-49.72-49.72.17-.16-44.41h-2l.17 46.42 49.72-.18z"/><path d="M2326.55 696.37l-.17-49.73-49.72.18-.17-49.73-49.73.18-.17-49.72-49.72.17-.17-49.72-49.73.17-.17-49.72-49.72.17-.17-49.72-49.73.17-.17-49.72-49.72.17-.17-49.72-49.73.17-.17-49.72-49.72.17-.17-49.72-49.73.17-.17-49.72-49.72.17-.17-49.72-49.72.17-.18-49.72-49.72.17-.17-49.72h-1.01l-49.71.18v1.99.01l48.73-.17.17 49.72 49.72-.17.17 49.72 49.73-.17.17 49.72 49.72-.17.17 49.72 49.73-.17.17 49.72 49.72-.18.17 49.73 49.72-.17.18 49.72 49.72-.18.17 49.73 49.72-.18.18 49.73 49.72-.18.17 49.73 49.72-.18.18 49.73 49.72-.18.17 49.72 49.72-.17.17 49.72 49.73-.17.17 49.72 49.72-.17.06 16.45h2l-.07-18.46-49.72.18zm-8.3 8.33l-.18-49.73-49.72.18-.17-49.73-49.72.18-.18-49.72-49.72.17-.17-49.72-49.72.17-.18-49.72-49.72.17-.17-49.72-49.72.17-.17-49.72-49.73.17-.17-49.72-49.72.17-.17-49.72-49.73.17-.17-49.72-49.72.17-.17-49.72-49.73.17-.17-49.72-49.72.17-.17-49.72-49.72.17-.18-49.72-1 .01-49.72.17.01 2h0l48.72-.17.17 49.72 49.73-.17.17 49.72 49.72-.17.17 49.72 49.72-.17.18 49.72 49.72-.17.17 49.72 49.72-.18.18 49.73 49.72-.18.17 49.73 49.72-.17.18 49.72 49.72-.18.17 49.73 49.72-.18.18 49.72 49.72-.17.17 49.73 49.72-.18.18 49.72 49.72-.17.17 49.72 49.72-.17.18 49.72 49.72-.17.03 8.12h2l-.04-10.13-49.72.18zm-7.96 8.04l-.17-49.72-49.73.17-.17-49.72-49.72.17-.17-49.72-49.72.17-.18-49.72-49.72.17-.17-49.72-49.72.18-.18-49.73-49.72.17-.17-49.72-49.72.18-.17-49.73-49.73.18-.17-49.72-49.72.17-.18-49.73-49.72.18-.17-49.72-49.72.17-.17-49.72-49.73.17-.17-49.72-49.72.17-.18-49.72h-1l-49.72.17.01 2h0l48.72-.17.18 49.73 49.72-.18.17 49.73 49.72-.18.17 49.73 49.73-.18.17 49.72 49.72-.17.17 49.72 49.73-.17.17 49.72 49.72-.17.17 49.72 49.73-.17.17 49.72 49.72-.17.17 49.72 49.73-.17.17 49.72 49.72-.17.17 49.72 49.73-.17.17 49.72 49.72-.17.17 49.72 49.73-.17.17 49.62h28.79l20.93-.07v.07h2l-.01-2.08-49.72.17zm-58.02-41.43l-.17-49.73-49.73.18-.17-49.73-49.72.18-.17-49.72-49.73.17-.17-49.72-49.72.17-.17-49.72-49.72.17-.18-49.72-49.72.17-.17-49.72-49.72.17-.18-49.72-49.72.17-.17-49.72-49.73.17-.17-49.72-49.72.17-.17-49.72-49.72.17-.18-49.72-49.72.17-.17-49.72-1.01.01-49.71.17v1.99.01l48.73-.17.17 49.72 49.72-.17.17 49.72 49.73-.17.17 49.72 49.72-.17.17 49.72 49.72-.17.18 49.72 49.72-.17.17 49.72 49.72-.18.18 49.73 49.72-.18.17 49.73 49.72-.18.18 49.73 49.72-.18.17 49.72 49.72-.17.18 49.73 49.72-.18.17 49.72 49.72-.17.18 49.72 49.72-.17.14 41.51h2l-.15-43.52-49.72.18zm-7.96 8.04l-.17-49.72-49.72.17-.18-49.72-49.72.17-.17-49.72-49.72.17-.18-49.72-49.72.17-.17-49.72-49.72.17-.18-49.72-49.72.18-.17-49.73-49.72.18-.17-49.73-49.73.18-.17-49.73-49.72.18-.17-49.72-49.73.17-.17-49.73-49.72.18-.17-49.72-49.73.17-.17-49.72h-1.01l-49.71.17.01 2h0l48.72-.17.17 49.73 49.72-.18.18 49.72 49.72-.17.17 49.72 49.72-.17.18 49.72 49.72-.17.17 49.72 49.72-.17.18 49.72 49.72-.17.17 49.72 49.72-.17.18 49.72 49.72-.17.17 49.72 49.72-.17.17 49.72 49.73-.17.17 49.72 49.72-.17.17 49.72 49.73-.17.17 49.72 49.72-.17.12 33.46h2l-.13-35.47-49.72.17zm-7.95 8.12l-.17-49.72-49.72.17-.17-49.72-49.72.18-.18-49.73-49.72.18-.17-49.73-49.72.18-.18-49.73-49.72.18-.17-49.73-49.72.18-.18-49.72-49.72.17-.17-49.72-49.72.17-.18-49.72-49.72.17-.17-49.72-49.72.17-.18-49.72-49.72.17-.17-49.72-49.72.17-.18-49.72h-1l-49.72.18.01 1.99v.01l48.72-.17.18 49.72 49.72-.17.17 49.72 49.72-.18.18 49.73 49.72-.18.17 49.73 49.72-.18.17 49.72 49.73-.17.17 49.72 49.72-.17.17 49.72 49.73-.17.17 49.72 49.72-.17.17 49.72 49.73-.17.17 49.72 49.72-.17.17 49.72 49.73-.17.17 49.72 49.72-.17.17 49.72 49.72-.17.09 25.34h2l-.09-27.35-49.73.17zm-7.95 8.05l-.17-49.72-49.73.17-.17-49.72-49.72.17-.17-49.72-49.73.17-.17-49.72-49.72.17-.17-49.72-49.73.17-.17-49.72-49.72.17-.17-49.72-49.73.17-.17-49.72-49.72.17-.17-49.72-49.72.17-.18-49.72-49.72.18-.17-49.73-49.72.18-.18-49.73-49.72.18-.17-49.73-1.01.01-49.71.17v2h0l48.73-.17.17 49.72 49.72-.17.17 49.72 49.73-.17.17 49.72 49.72-.17.17 49.72 49.73-.17.17 49.72 49.72-.17.17 49.72 49.72-.17.18 49.72 49.72-.17.17 49.72 49.72-.17.18 49.72 49.72-.17.17 49.72 49.72-.17.18 49.72 49.72-.17.17 49.72 49.72-.18.18 49.73 49.72-.18.06 17.3h2l-.07-19.3-49.72.17zm-8.13 8.11l-.17-49.72-49.72.18-.18-49.73-49.72.17-.17-49.72-49.72.17-.18-49.72-49.72.18-.17-49.73-49.72.18-.18-49.72-49.72.17-.17-49.72-49.72.17-.17-49.73-49.73.18-.17-49.72-49.72.17-.17-49.72-49.73.17-.17-49.72-49.72.17-.17-49.72-49.73.17-.17-49.72h-1.01l-49.71.17.01 2h0l48.72-.16.17 49.72 49.72-.17.18 49.72 49.72-.18.17 49.73 49.72-.18.17 49.72 49.73-.17.17 49.73 49.72-.18.18 49.72 49.72-.17.17 49.72 49.72-.17.17 49.72 49.73-.17.17 49.72 49.72-.17.17 49.72 49.73-.17.17 49.72 49.72-.17.17 49.72 49.73-.17.17 49.72 49.72-.17.03 9.18h2l-.04-11.19-49.72.17z"/><path d="M2212.32 711.68l-.17-49.72-49.72.17-.17-49.72-49.73.17-.17-49.72-49.72.17-.17-49.72-49.73.17-.17-49.72-49.72.17-.17-49.72-49.73.17-.17-49.72-49.72.17-.17-49.72-49.73.17-.17-49.72-49.72.17-.17-49.72-49.72.18-.18-49.73-49.72.17-.17-49.72-49.72.18-.18-49.73-1 .01-49.72.17.01 2h0l48.72-.17.18 49.72 49.72-.17.17 49.72 49.72-.17.17 49.72 49.73-.17.17 49.72 49.72-.17.17 49.72 49.73-.17.17 49.72 49.72-.17.17 49.72 49.72-.17.18 49.72 49.72-.17.17 49.72 49.72-.17.18 49.72 49.72-.17.17 49.72 49.72-.18.18 49.73 49.72-.17.17 49.72 49.72-.18.01 1.14h2l-.01-3.14-49.73.17zm-58.2-41.22l-.17-49.72-49.72.17-.17-49.72-49.73.17-.17-49.72-49.72.17-.17-49.72-49.72.17-.18-49.72-49.72.17-.17-49.72-49.72.17-.18-49.72-49.72.17-.17-49.72-49.72.17-.18-49.72-49.72.17-.17-49.72-49.72.18-.18-49.73-49.72.18-.17-49.73-1.01.01-49.71.17v2h0l48.73-.17.17 49.72 49.72-.17.17 49.72 49.73-.17.17 49.72 49.72-.17.17 49.72 49.72-.17.18 49.72 49.72-.17.17 49.72 49.72-.17.18 49.72 49.72-.17.17 49.72 49.72-.17.18 49.72 49.72-.17.17 49.72 49.72-.17.18 49.72 49.72-.17.17 49.72 49.72-.18.15 42.36h2l-.15-44.36-49.73.17zm-7.95 8.04l-.18-49.72-49.72.18-.17-49.73-49.72.18-.18-49.73-49.72.18-.17-49.73-49.72.18-.18-49.72-49.72.17-.17-49.72-49.72.17-.17-49.72-49.73.17-.17-49.72-49.72.17-.17-49.72-49.73.17-.17-49.72-49.72.17-.17-49.72-49.73.17-.17-49.72h-1.01l-49.71.18.01 1.99v.01l48.72-.17.17 49.72 49.72-.17.18 49.72 49.72-.18.17 49.73 49.72-.17.18 49.72 49.72-.18.17 49.73 49.72-.18.18 49.73 49.72-.18.17 49.72 49.72-.17.18 49.72 49.72-.17.17 49.72 49.72-.17.17 49.72 49.73-.17.17 49.72 49.72-.17.17 49.72 49.73-.17.11 34.31h2l-.12-36.32-49.72.17zm-8.13 8.12l-.17-49.72-49.73.17-.17-49.72-49.72.17-.17-49.72-49.73.17-.17-49.72-49.72.17-.17-49.72-49.72.17-.18-49.72-49.72.17-.17-49.72-49.72.17-.18-49.72-49.72.17-.17-49.72-49.72.18-.18-49.73-49.72.18-.17-49.73-49.72.18-.18-49.73-1 .01-49.72.17.01 2h0l48.72-.17.17 49.72 49.73-.17.17 49.72 49.72-.17.17 49.72 49.73-.17.17 49.72 49.72-.17.17 49.72 49.73-.17.17 49.72 49.72-.17.17 49.72 49.73-.17.17 49.72 49.72-.17.17 49.72 49.73-.17.17 49.72 49.72-.17.17 49.72 49.72-.18.18 49.73 49.72-.18.09 26.2h2l-.1-28.2-49.72.17zm-7.96 8.04l-.17-49.72-49.72.18-.18-49.73-49.72.18-.17-49.73-49.72.18-.17-49.73-49.73.18-.17-49.72-49.72.17-.17-49.72-49.73.17-.17-49.72-49.72.17-.17-49.72-49.73.17-.17-49.72-49.72.17-.17-49.72-49.73.17-.17-49.72-49.72.17-.17-49.72h-1.01l-49.71.18v1.99.01l48.73-.17.17 49.72 49.72-.17.17 49.72 49.72-.18.18 49.73 49.72-.18.17 49.73 49.72-.18.18 49.73 49.72-.18.17 49.73 49.72-.18.18 49.73 49.72-.18.17 49.72 49.72-.17.17 49.72 49.73-.17.17 49.72 49.72-.17.18 49.72 49.72-.17.17 49.72 49.72-.17.07 18.15h1.99l-.07-20.16-49.72.17zm-7.94 7.94l-.17-49.72-49.72.17-.17-49.72-49.73.17-.17-49.72-49.72.17-.17-49.72-49.73.17-.17-49.72-49.72.17-.17-49.72-49.73.17-.17-49.72-49.72.17-.17-49.72-49.73.17-.17-49.72-49.72.17-.17-49.72-49.72.17-.18-49.72-49.72.18-.17-49.73-1.01.01-49.71.17v2h0l48.73-.17.17 49.72 49.72-.17.17 49.72 49.73-.17.17 49.72 49.72-.17.17 49.72 49.72-.17.18 49.72 49.72-.17.17 49.72 49.73-.17.17 49.72 49.72-.17.17 49.72 49.72-.17.18 49.72 49.72-.18.17 49.73 49.72-.17.18 49.72 49.72-.18.17 49.73 49.72-.18.04 10.22h2l-.05-12.22-49.72.17zm-7.95 8.04l-.18-49.72-49.72.18-.17-49.73-49.72.18-.18-49.73-49.72.18-.17-49.73-49.72.18-.18-49.72-49.72.17-.17-49.72-49.72.17-.18-49.72-49.72.17-.17-49.72-49.72.17-.17-49.72-49.73.17-.17-49.72-49.72.17-.17-49.72-49.73.17-.17-49.72h-1.01l-49.71.18.01 1.99v.01l48.72-.17.17 49.72 49.72-.17.18 49.72 49.72-.17.17 49.72 49.72-.17.18 49.72 49.72-.18.17 49.73 49.72-.18.18 49.73 49.72-.18.17 49.72 49.72-.17.17 49.72 49.73-.17.17 49.72 49.72-.17.17 49.72 49.73-.17.17 49.72 49.72-.17.17 49.72 49.73-.17v2.17h2l-.01-4.18-49.72.17zm-58.03-41.43l-.17-49.72-49.72.17-.17-49.72-49.72.17-.18-49.72-49.72.17-.17-49.72-49.72.17-.18-49.72-49.72.17-.17-49.72-49.72.17-.18-49.72-49.72.17-.17-49.72-49.72.17-.18-49.72-49.72.17-.17-49.72-49.72.18-.18-49.73-1 .01-49.72.17.01 2h0l48.72-.17.17 49.72 49.73-.17.17 49.72 49.72-.17.17 49.72 49.73-.17.17 49.72 49.72-.17.17 49.72 49.73-.17.17 49.72 49.72-.17.17 49.72 49.73-.17.17 49.72 49.72-.17.17 49.72 49.72-.17.18 49.72 49.72-.17.17 49.72 49.72-.18.16 43.61h1.99l-.15-45.61-49.73.17z"/><path d="M2048.21 677.25l-.18-49.72-49.72.18-.17-49.73-49.72.18-.18-49.73-49.72.18-.17-49.73-49.72.18-.18-49.73-49.72.18-.17-49.72-49.72.17-.17-49.72-49.73.17-.17-49.72-49.72.17-.17-49.72-49.73.17-.17-49.72-49.72.17-.17-49.72h-1.01l-49.71.18v1.99.01l48.73-.17.17 49.72 49.72-.18.17 49.73 49.72-.17.18 49.72 49.72-.18.17 49.73 49.72-.18.18 49.72 49.72-.17.17 49.72 49.72-.17.18 49.72 49.72-.17.17 49.72 49.72-.17.18 49.72 49.72-.17.17 49.72 49.72-.17.17 49.72 49.73-.17.12 35.56h2l-.13-37.57-49.72.17zm-8.31 8.34l-.17-49.73-49.72.18-.18-49.73-49.72.18-.17-49.73-49.72.18-.17-49.73-49.73.18-.17-49.72-49.72.17-.17-49.72-49.73.17-.17-49.72-49.72.17-.17-49.72-49.73.17-.17-49.72-49.72.17-.17-49.72-49.73.17-.17-49.72h-1.01l-49.71.17.01 2h0l48.72-.16.17 49.72 49.72-.17.18 49.72 49.72-.18.17 49.73 49.72-.18.18 49.73 49.72-.18.17 49.73 49.72-.18.18 49.73 49.72-.18.17 49.72 49.72-.17.17 49.72 49.73-.17.17 49.72 49.72-.17.18 49.72 49.72-.17.17 49.72 49.72-.17.1 27.23h2l-.11-29.24-49.72.18zm-7.96 8.04l-.17-49.72-49.72.17-.17-49.72-49.73.17-.17-49.72-49.72.17-.17-49.72-49.72.17-.18-49.72-49.72.17-.17-49.72-49.72.17-.18-49.72-49.72.18-.17-49.73-49.72.18-.17-49.73-49.73.18-.17-49.73-49.72.18-.18-49.73-1 .01-49.72.17.01 2h0l48.72-.17.18 49.72 49.72-.17.17 49.72 49.72-.17.17 49.72 49.73-.17.17 49.72 49.72-.17.17 49.72 49.73-.17.17 49.72 49.72-.17.17 49.72 49.73-.17.17 49.72 49.72-.17.17 49.72 49.72-.17.18 49.72 49.72-.17.17 49.72 49.73-.17.06 19.18h2l-.07-21.19-49.73.17zm-8.12 8.11l-.17-49.72-49.73.18-.17-49.73-49.72.18-.17-49.73-49.73.18-.17-49.72-49.72.17-.17-49.73-49.73.18-.17-49.72-49.72.17-.17-49.72-49.73.17-.17-49.72-49.72.17-.17-49.72-49.72.17-.18-49.72-49.72.17-.17-49.72h-1.01l-49.71.18v1.99.01l48.72-.17.18 49.72 49.72-.17.17 49.72 49.72-.18.18 49.73 49.72-.18.17 49.73 49.72-.18.17 49.72 49.73-.17.17 49.72 49.72-.17.18 49.72 49.72-.17.17 49.72 49.72-.17.18 49.72 49.72-.17.17 49.72 49.72-.17.18 49.72 49.72-.17.04 11.07h2l-.05-13.08-49.72.17zm-7.96 8.05l-.17-49.72-49.72.17-.18-49.72-49.72.17-.17-49.72-49.72.17-.18-49.72-49.72.17-.17-49.72-49.72.17-.18-49.72-49.72.17-.17-49.72-49.72.17-.18-49.72-49.72.17-.17-49.72-49.72.18-.18-49.73-49.72.18-.17-49.73-1.01.01-49.71.17.01 2h0l48.72-.17.17 49.72 49.72-.17.18 49.72 49.72-.17.17 49.72 49.72-.17.17 49.72 49.73-.17.17 49.72 49.72-.17.17 49.72 49.73-.17.17 49.72 49.72-.17.17 49.72 49.72-.17.18 49.72 49.72-.18.17 49.73 49.72-.17.18 49.72 49.72-.17.01 3.02h2l-.02-5.03-49.72.17zm-57.84-41.43l-.17-49.72-49.72.17-.18-49.72-49.72.17-.17-49.72-49.72.18-.18-49.73-49.72.18-.17-49.73-49.72.18-.18-49.73-49.72.18-.17-49.72-49.72.17-.18-49.72-49.72.17-.17-49.72-49.72.17-.18-49.72h-1l-49.72.17.01 2h0l48.72-.17.17 49.73 49.73-.18.17 49.73 49.72-.18.18 49.72 49.72-.17.17 49.72 49.72-.17.17 49.72 49.73-.17.17 49.72 49.72-.17.17 49.72 49.73-.17.17 49.72 49.72-.17.17 49.72 49.72-.17.18 49.72 49.72-.17.15 44.45h2l-.16-46.46-49.72.17zm-7.96 8.05l-.17-49.72-49.72.17-.18-49.72-49.72.17-.17-49.72-49.72.17-.17-49.72-49.73.17-.17-49.72-49.72.17-.17-49.72-49.73.17-.17-49.72-49.72.17-.17-49.72-49.73.17-.17-49.72-49.72.17-.17-49.72-1.01.01-49.71.17v1.99.01l48.73-.17.17 49.72 49.72-.17.17 49.72 49.72-.17.18 49.72 49.72-.17.17 49.72 49.72-.17.18 49.72 49.72-.17.17 49.72 49.72-.17.17 49.72 49.73-.17.17 49.72 49.72-.18.18 49.73 49.72-.18.17 49.73 49.72-.18.13 36.41h2l-.13-38.41-49.73.17zm-8.12 8.11l-.18-49.72-49.72.17-.17-49.72-49.72.17-.18-49.72-49.72.18-.17-49.73-49.72.17-.18-49.72-49.72.18-.17-49.73-49.72.18-.18-49.73-49.72.18-.17-49.73-49.72.18-.18-49.72-49.72.17-.17-49.72h-1.01l-49.71.17.01 2h0l48.72-.17.17 49.73 49.72-.18.18 49.72 49.72-.17.17 49.72 49.72-.17.17 49.72 49.73-.17.17 49.72 49.72-.17.17 49.72 49.73-.17.17 49.72 49.72-.17.17 49.72 49.73-.17.17 49.72 49.72-.17.17 49.72 49.72-.17.1 28.29h2l-.1-30.3-49.72.17z"/><path d="M1933.98 692.57l-.17-49.72-49.73.17-.17-49.72-49.72.17-.17-49.72-49.73.17-.17-49.72-49.72.17-.17-49.72-49.72.17-.18-49.72-49.72.17-.17-49.72-49.72.17-.18-49.72-49.72.17-.17-49.72-49.72.17-.18-49.72-1 .01-49.72.17.01 1.99v.01l48.72-.17.17 49.72 49.72-.17.18 49.72 49.72-.17.17 49.72 49.72-.17.18 49.72 49.72-.17.17 49.72 49.72-.17.18 49.72 49.72-.18.17 49.73 49.72-.18.18 49.73 49.72-.18.17 49.73 49.72-.18.18 49.73 49.72-.18.07 20.25h2l-.08-22.25-49.72.17zm-8.31 8.33l-.17-49.72-49.72.17-.17-49.72-49.73.17-.17-49.72-49.72.17-.17-49.72-49.73.17-.17-49.72-49.72.17-.17-49.72-49.72.17-.18-49.72-49.72.17-.17-49.72-49.72.17-.18-49.72-49.72.17-.17-49.72-1.01.01-49.71.17v2h0l48.72-.17.18 49.72 49.72-.17.17 49.72 49.72-.17.18 49.72 49.72-.17.17 49.72 49.72-.17.18 49.72 49.72-.17.17 49.72 49.72-.17.18 49.72 49.72-.17.17 49.72 49.72-.18.18 49.73 49.72-.18.17 49.73 49.72-.18.04 11.92h2l-.04-13.92-49.73.17zm-7.95 8.04l-.18-49.72-49.72.17-.17-49.72-49.72.18-.18-49.73-49.72.18-.17-49.73-49.72.18-.18-49.73-49.72.18-.17-49.72-49.72.17-.18-49.72-49.72.17-.17-49.72-49.72.17-.18-49.72-49.72.17-.17-49.72h-1.01l-49.71.17.01 2h0l48.72-.17.17 49.73 49.72-.18.18 49.73 49.72-.18.17 49.73 49.72-.18.17 49.72 49.73-.17.17 49.72 49.72-.17.17 49.72 49.73-.17.17 49.72 49.72-.17.17 49.72 49.73-.17.17 49.72 49.72-.17.17 49.72 49.73-.17.01 3.87h2l-.02-5.88-49.72.17zm-58.03-41.43l-.17-49.72-49.72.17-.17-49.72-49.73.17-.17-49.72-49.72.17-.17-49.72-49.73.17-.17-49.72-49.72.17-.17-49.72-49.72.17-.18-49.72-49.72.17-.17-49.72-49.72.17-.18-49.72-1 .01-49.72.17.01 1.99v.01l48.72-.17.17 49.72 49.73-.17.17 49.72 49.72-.17.17 49.72 49.73-.17.17 49.72 49.72-.17.17 49.72 49.73-.17.17 49.72 49.72-.17.17 49.72 49.72-.17.18 49.72 49.72-.18.17 49.73 49.72-.18.16 45.31h2l-.16-47.31-49.73.17zm-7.95 8.04l-.18-49.72-49.72.17-.17-49.72-49.72.18-.18-49.73-49.72.18-.17-49.73-49.72.18-.17-49.73-49.73.18-.17-49.73-49.72.18-.18-49.72-49.72.17-.17-49.72-49.72.17-.17-49.72h-1.01l-49.72.17.01 2h0l48.72-.17.18 49.73 49.72-.18.17 49.72 49.72-.17.18 49.72 49.72-.17.17 49.72 49.72-.17.17 49.72 49.73-.17.17 49.72 49.72-.17.17 49.72 49.73-.17.17 49.72 49.72-.17.17 49.72 49.73-.17.13 37.26h2l-.14-39.27-49.72.17zm-8.02 7.96l-.17-49.72-49.73.18-.17-49.73-49.72.18-.17-49.73-49.72.18-.18-49.73-49.72.18-.17-49.72-49.73.17-.17-49.72-49.72.17-.17-49.72-49.72.17-.18-49.72-49.72.17-.17-49.72h-1.01l-49.71.17v2h0l48.73-.17.17 49.73 49.72-.18.17 49.73 49.73-.18.17 49.73 49.72-.18.17 49.72 49.72-.17.18 49.72 49.72-.17.17 49.72 49.73-.17.17 49.72 49.72-.17.17 49.72 49.72-.17.18 49.72 49.72-.17.1 29.3h2l-.11-31.31-49.72.17zm-7.96 8.05l-.17-49.72-49.72.17-.18-49.72-49.72.17-.17-49.72-49.72.17-.18-49.72-49.72.17-.17-49.72-49.72.17-.17-49.72-49.73.17-.17-49.72-49.72.17-.17-49.72-49.73.18-.17-49.73-1.01.01-49.71.17.01 2h0l48.72-.17.17 49.72 49.72-.17.18 49.72 49.72-.17.17 49.72 49.72-.17.18 49.72 49.72-.17.17 49.72 49.72-.17.18 49.72 49.72-.17.17 49.72 49.72-.17.18 49.72 49.72-.17.17 49.72 49.72-.18.08 21.26h2l-.09-23.26-49.72.17zm-8.13 8.11l-.17-49.72-49.72.18-.17-49.73-49.72.18-.18-49.73-49.72.17-.17-49.72-49.72.18-.18-49.73-49.72.18-.17-49.72-49.72.17-.18-49.72-49.72.17-.17-49.72-49.72.17-.18-49.72h-1l-49.72.17.01 2h0l48.72-.17.17 49.73 49.73-.18.17 49.72 49.72-.17.17 49.72 49.73-.17.17 49.72 49.72-.17.17 49.72 49.73-.17.17 49.72 49.72-.17.17 49.72 49.73-.17.17 49.72 49.72-.17.17 49.72 49.72-.17.05 13.14h2l-.05-15.15-49.73.17z"/><path d="M1819.68 707.72l-.17-49.72-49.73.17-.17-49.72-49.72.17-.17-49.72-49.73.17-.17-49.72-49.72.17-.17-49.72-49.73.17-.17-49.72-49.72.17-.17-49.72-49.73.17-.17-49.72-49.72.17-.17-49.72-1.01.01-49.71.17v2h0l48.72-.17.18 49.72 49.72-.17.17 49.72 49.72-.17.18 49.72 49.72-.17.17 49.72 49.72-.17.18 49.72 49.72-.17.17 49.72 49.72-.17.18 49.72 49.72-.17.17 49.72 49.72-.18.18 49.73 49.72-.18.01 5.1h2l-.02-7.1-49.72.17zm-58.2-41.22l-.17-49.72-49.73.17-.17-49.72-49.72.17-.17-49.72-49.73.17-.17-49.72-49.72.17-.17-49.72-49.73.17-.17-49.72-49.72.17-.17-49.72-49.73.17-.17-49.72-1 .01-49.72.17.01 2h0l48.72-.17.17 49.72 49.72-.17.18 49.72 49.72-.17.17 49.72 49.72-.17.18 49.72 49.72-.17.17 49.72 49.72-.17.17 49.72 49.73-.17.17 49.72 49.72-.17.17 49.72 49.73-.17.16 46.31h2l-.17-48.32-49.72.17zm-7.96 8.05l-.17-49.73-49.72.18-.18-49.73-49.72.18-.17-49.72-49.72.17-.18-49.72-49.72.17-.17-49.72-49.72.17-.18-49.72-49.72.17-.17-49.72-49.72.17-.18-49.72h-1l-49.72.17.01 2h0l48.72-.16.18 49.72 49.72-.17.17 49.72 49.72-.18.18 49.73 49.72-.18.17 49.73 49.72-.18.17 49.72 49.73-.17.17 49.73 49.72-.18.17 49.72 49.73-.17.17 49.72 49.72-.17.13 38.27h2l-.14-40.28-49.72.18zm-8.13 8.11l-.17-49.72-49.72.17-.17-49.72-49.73.17-.17-49.72-49.72.17-.17-49.72-49.73.17-.17-49.72-49.72.17-.17-49.72-49.72.17-.18-49.72-49.72.17-.17-49.72-1.01.01-49.72.17.01 2h0l48.72-.17.18 49.72 49.72-.17.17 49.72 49.73-.17.17 49.72 49.72-.17.17 49.72 49.72-.17.18 49.72 49.72-.17.17 49.72 49.72-.17.18 49.72 49.72-.17.17 49.72 49.72-.17.11 30.15h2l-.11-32.16-49.73.17zm-7.95 8.05l-.18-49.73-49.72.18-.17-49.73-49.72.18-.18-49.73-49.72.18-.17-49.73-49.72.18-.18-49.72-49.72.17-.17-49.72-49.72.17-.18-49.72-49.72.17-.17-49.72h-1.01l-49.71.17.01 2h0l48.72-.17.17 49.73 49.72-.18.18 49.73 49.72-.18.17 49.73 49.72-.18.18 49.72 49.72-.17.17 49.73 49.72-.18.17 49.72 49.73-.17.17 49.72 49.72-.17.17 49.72 49.73-.17.07 22.11h2l-.08-24.12-49.72.18zm-7.95 8.12l-.17-49.72-49.72.17-.18-49.72-49.72.17-.17-49.72-49.72.17-.18-49.72-49.72.17-.17-49.72-49.72.17-.18-49.72-49.72.17-.17-49.72-49.72.17-.17-49.72h-1.01l-49.72.18.01 1.99v.01l48.72-.17.17 49.72 49.73-.17.17 49.72 49.72-.17.17 49.72 49.73-.17.17 49.72 49.72-.18.17 49.73 49.73-.18.17 49.73 49.72-.18.17 49.73 49.73-.18.17 49.73 49.72-.18.05 13.99h2l-.06-16-49.72.18zm-7.96 8.04l-.17-49.72-49.72.17-.17-49.72-49.73.17-.17-49.72-49.72.18-.17-49.73-49.73.18-.17-49.73-49.72.18-.17-49.73-49.73.18-.17-49.72-49.72.17-.17-49.72h-1.01l-49.71.17v2h0l48.73-.17.17 49.73 49.72-.18.17 49.72 49.72-.17.18 49.72 49.72-.17.17 49.72 49.72-.17.18 49.72 49.72-.17.17 49.72 49.72-.17.18 49.72 49.72-.17.17 49.72 49.72-.17.02 5.94h2l-.02-7.95-49.73.17zm-58.02-41.43l-.17-49.72-49.72.17-.18-49.72-49.72.17-.17-49.72-49.72.17-.18-49.72-49.72.17-.17-49.72-49.72.17-.18-49.72-49.72.17-.17-49.72h-1.01l-49.71.18.01 1.99v.01l48.72-.17.17 49.72 49.72-.17.18 49.72 49.72-.18.17 49.73 49.72-.18.18 49.73 49.72-.17.17 49.72 49.72-.18.17 49.73 49.73-.18.17 49.72 49.72-.17.17 47.38h1.99l-.17-49.38-49.72.17zm-7.96 8.04l-.17-49.72-49.72.17-.17-49.72-49.72.17-.18-49.72-49.72.18-.17-49.73-49.72.18-.18-49.73-49.72.18-.17-49.73-49.72.18-.18-49.73-1 .01-49.72.17.01 2h0l48.72-.17.17 49.72 49.72-.17.18 49.72 49.72-.17.17 49.72 49.72-.17.18 49.72 49.72-.17.17 49.72 49.72-.17.18 49.72 49.72-.17.17 49.72 49.72-.17.14 39.33h2l-.14-41.34-49.73.17zm-8.3 8.33l-.17-49.72-49.73.17-.17-49.72-49.72.18-.17-49.73-49.73.18-.17-49.73-49.72.18-.17-49.73-49.72.18-.18-49.72-49.72.17-.17-49.72h-1.01l-49.72.17.01 2h0l48.72-.17.18 49.72 49.72-.17.17 49.72 49.73-.17.17 49.72 49.72-.17.17 49.72 49.72-.17.18 49.72 49.72-.17.17 49.72 49.72-.17.18 49.72 49.72-.17.11 31h2l-.12-33.01-49.72.17zm-7.96 8.05l-.17-49.72-49.72.17-.18-49.72-49.72.17-.17-49.72-49.72.17-.18-49.72-49.72.17-.17-49.72-49.72.17-.18-49.72-49.72.17-.17-49.72-1.01.01-49.71.17.01 1.99v.01l48.72-.17.17 49.72 49.72-.17.18 49.72 49.72-.17.17 49.72 49.72-.17.18 49.72 49.72-.17.17 49.72 49.72-.17.17 49.72 49.73-.18.17 49.73 49.72-.18.08 22.96h2l-.09-24.96-49.72.17zm-8.13 8.11l-.17-49.72-49.72.17-.17-49.72-49.72.17-.18-49.72-49.72.18-.17-49.73-49.72.18-.18-49.73-49.72.18-.17-49.73-49.72.18-.18-49.73-1 .01-49.72.17.01 2h0l48.72-.17.17 49.72 49.73-.17.17 49.72 49.72-.17.17 49.72 49.73-.17.17 49.72 49.72-.17.17 49.72 49.72-.17.18 49.72 49.72-.17.17 49.72 49.72-.17.06 14.84h1.99l-.05-16.85-49.73.17zm-7.95 8.05l-.17-49.72-49.73.17-.17-49.72-49.72.17-.18-49.72-49.72.17-.17-49.72-49.72.17-.17-49.72-49.73.17-.17-49.72-49.72.17-.17-49.72h-1.01l-49.72.18.01 1.99v.01l48.72-.17.18 49.72 49.72-.17.17 49.72 49.72-.17.18 49.72 49.72-.17.17 49.72 49.72-.17.18 49.72 49.72-.18.17 49.73 49.72-.18.17 49.73 49.73-.18.02 6.8h2l-.03-8.8-49.72.17zm-8.06 8.16l-.17-49.72-49.72.17-.17-49.72-49.73.17-.17-49.72-49.72.17-.17-49.72-49.72.17-.18-49.72-49.72.17-.17-49.72-49.72.17-.18-49.72h-1l-49.72.17.01 2h0l48.72-.16.17 49.72 49.73-.18.17 49.73 49.72-.18.17 49.73 49.73-.18.17 49.73 49.72-.18.17 49.73 49.73-.18.17 49.73 49.72-.18.17 48.19h51.72V714l-49.73.18zm-57.85-41.51l-.17-49.72-49.72.17-.17-49.72-49.73.17-.17-49.72-49.72.17-.17-49.72-49.73.18-.17-49.73-49.72.18-.17-49.73-1.01.01-49.72.17.01 2h0l48.72-.17.18 49.72 49.72-.17.17 49.72 49.72-.17.18 49.72 49.72-.17.17 49.72 49.72-.17.17 49.72 49.73-.17.17 49.72 49.72-.17.14 40.14h2l-.15-42.15-49.72.17zm-8.12 8.12l-.18-49.72-49.72.17-.17-49.72-49.72.17-.18-49.72-49.72.17-.17-49.72-49.72.17-.18-49.72-49.72.17-.17-49.72h-1.01l-49.71.18v1.99.01l48.73-.17.17 49.72 49.72-.17.17 49.72 49.73-.18.17 49.73 49.72-.18.17 49.73 49.73-.18.17 49.73 49.72-.18.17 49.72 49.72-.17.12 32.03h2l-.12-34.03-49.72.17z"/><path d="M1541.22 688.83l-.17-49.72-49.73.17-.17-49.72-49.72.17-.17-49.72-49.73.17-.17-49.72-49.72.18-.17-49.73-49.73.18-.17-49.73-1 .01-49.72.17.01 2h0l48.72-.17.17 49.72 49.72-.17.18 49.72 49.72-.17.17 49.72 49.72-.17.18 49.72 49.72-.17.17 49.72 49.72-.17.18 49.72 49.72-.17.08 23.98h2l-.09-25.99-49.72.17zm-8.31 8.33l-.17-49.72-49.72.17-.17-49.72-49.73.17-.17-49.72-49.72.17-.17-49.72-49.73.18-.17-49.73-49.72.18-.17-49.73-1.01.01-49.71.17v2h0l48.72-.17.18 49.72 49.72-.17.17 49.72 49.72-.17.18 49.72 49.72-.17.17 49.72 49.72-.17.18 49.72 49.72-.17.17 49.72 49.72-.17.06 15.65h2l-.07-17.66-49.72.17zm-7.95 8.05l-.18-49.72-49.72.17-.17-49.72-49.72.17-.18-49.72-49.72.17-.17-49.72-49.72.17-.18-49.72-49.72.17-.17-49.72h-1.01l-49.71.18.01 1.99v.01l48.72-.17.17 49.72 49.72-.17.17 49.72 49.73-.17.17 49.72 49.72-.17.17 49.72 49.73-.18.17 49.73 49.72-.18.17 49.73 49.73-.18.02 7.61h2l-.03-9.61-49.72.17zm-8.13 8.11l-.18-49.72-49.72.17-.17-49.72-49.72.17-.17-49.72-49.73.17-.17-49.72-49.72.18-.17-49.73-49.73.18-.17-49.73-1 .01-49.72.17.01 2h0l48.72-.17.17 49.72 49.73-.17.17 49.72 49.72-.17.17 49.72 49.72-.17.18 49.72 49.72-.17.17 49.72 49.72-.17.17 49.04h51.73l-.01-1.5-49.72.17zm-57.85-41.5l-.18-49.72-49.72.17-.17-49.72-49.72.17-.17-49.72-49.73.17-.17-49.72-49.72.17-.18-49.72h-1l-49.72.18.01 1.99v.01l48.72-.17.17 49.72 49.73-.17.17 49.72 49.72-.18.17 49.73 49.73-.18.17 49.73 49.72-.18.17 49.73 49.73-.18.14 41h2l-.15-43-49.72.17zm-7.95 8.12l-.17-49.72-49.72.17-.18-49.72-49.72.17-.17-49.72-49.72.17-.18-49.72-49.72.17-.17-49.72h-1.01l-49.71.18.01 1.99v.01l48.72-.17.17 49.72 49.72-.17.17 49.72 49.73-.17.17 49.72 49.72-.17.17 49.72 49.73-.17.17 49.72 49.72-.17.11 32.87h2l-.12-34.88-49.72.17zm-7.96 8.05l-.17-49.73-49.72.18-.17-49.72-49.73.17-.17-49.72-49.72.17-.17-49.72-49.73.17-.17-49.72h-1l-49.72.17.01 2h0l48.72-.17.17 49.73 49.72-.18.18 49.73 49.72-.18.17 49.73 49.73-.18.17 49.73 49.72-.18.17 49.72 49.72-.17.09 24.83h2l-.09-26.84-49.73.18zm-8.12 8.11l-.17-49.72-49.73.17-.17-49.72-49.72.17-.18-49.72-49.72.17-.17-49.72-49.72.17-.18-49.72-1 .01-49.72.17.01 1.99v.01l48.72-.17.18 49.72 49.72-.17.17 49.72 49.72-.17.17 49.72 49.73-.17.17 49.72 49.72-.17.17 49.72 49.73-.17.05 16.71h2l-.06-18.72-49.72.17zm-7.96 8.05l-.17-49.73-49.72.18-.18-49.72-49.72.17-.17-49.72-49.72.17-.18-49.72-49.72.17-.17-49.72h-1.01l-49.71.17v2h0l48.73-.17.17 49.73 49.72-.18.17 49.72 49.73-.17.17 49.72 49.72-.17.17 49.72 49.72-.17.18 49.72 49.72-.17.03 8.67h2l-.04-10.68-49.72.18zm-8.31 8.33l-.17-49.73-49.72.18-.17-49.72-49.73.17-.17-49.73-49.72.18-.17-49.72-49.72.17-.18-49.72h-1l-49.72.17.01 2h0l48.72-.17.17 49.73 49.73-.18.17 49.73 49.72-.18.17 49.73 49.73-.18.17 49.72 49.72-.17.17 49.72 49.72-.17v.34h2v-2.35l-49.73.18zm-57.85-41.51l-.17-49.72-49.72.17-.17-49.72-49.73.17-.17-49.72-49.72.18-.17-49.73-1.01.01-49.72.17.01 2h0l48.72-.17.17 49.72 49.73-.17.17 49.72 49.72-.17.17 49.72 49.73-.17.17 49.72 49.72-.17.15 41.84h2l-.16-43.85-49.72.17zm-8.13 8.12l-.17-49.73-49.72.18-.17-49.72-49.72.17-.18-49.72-49.72.17-.17-49.72h-1.01l-49.71.17v2h0l48.73-.17.17 49.73 49.72-.18.17 49.72 49.73-.17.17 49.72 49.72-.17.17 49.73 49.72-.18.12 33.73h2l-.12-35.74-49.73.18zm-7.95 8.04l-.17-49.72-49.73.17-.17-49.72-49.72.17-.17-49.72-49.73.17-.17-49.72-1.01.01-49.71.17.01 2h0l48.72-.17.17 49.72 49.72-.17.18 49.72 49.72-.17.17 49.72 49.72-.17.18 49.72 49.72-.17.09 25.68h2l-.1-27.69-49.72.17zm-8.02 7.96l-.17-49.72-49.72.17-.18-49.72-49.72.17-.17-49.72-49.72.17-.18-49.72-1 .01-49.72.17.01 2h0l48.72-.17.17 49.72 49.73-.17.17 49.72 49.72-.17.17 49.72 49.73-.17.17 49.72 49.72-.17.06 17.72h2l-.07-19.73-49.72.17zm-7.96 8.05l-.17-49.72-49.72.17-.17-49.72-49.73.17-.17-49.72-49.72.17-.17-49.72h-1.01l-49.72.17.01 2h0l48.72-.17.18 49.73 49.72-.17.17 49.72 49.72-.17.18 49.72 49.72-.18.17 49.73 49.72-.18.04 9.68h2l-.05-11.68-49.72.17zm-8.12 8.11l-.18-49.72-49.72.17-.17-49.72-49.72.17-.18-49.72-49.72.17-.17-49.72-1.01.01-49.71.17.01 2h0l48.72-.17.17 49.72 49.72-.17.17 49.72 49.73-.17.17 49.72 49.72-.17.17 49.72 49.73-.17v1.56h2l-.01-3.57-49.72.17z"/><path d="M1262.79 669.75l-.17-49.72-49.72.17-.17-49.72-49.72.17-.18-49.72h-1l-49.72.17.01 2h0l48.72-.17.17 49.73 49.72-.18.18 49.73 49.72-.18.17 49.73 49.72-.18.15 43.07h2l-.15-45.07-49.73.17zm-8.3 8.33l-.17-49.72-49.72.17-.18-49.72-49.72.17-.17-49.72h-1.01l-49.71.17v2h0l48.72-.17.18 49.73 49.72-.17.17 49.72 49.72-.18.18 49.73 49.72-.18.12 34.74h2l-.13-36.74-49.72.17zm-7.96 8.04l-.17-49.72-49.72.17-.18-49.72-49.72.17-.17-49.72-1.01.01-49.71.17.01 2h0l48.72-.17.17 49.72 49.72-.17.17 49.72 49.73-.17.17 49.72 49.72-.17.09 26.69h2l-.1-28.7-49.72.17zm-8.13 8.12l-.17-49.72-49.72.17-.17-49.72-49.72.17-.18-49.72h-1l-49.72.17.01 2h0l48.72-.17.17 49.73 49.73-.17.17 49.72 49.72-.18.17 49.73 49.72-.18.07 18.58h2l-.07-20.58-49.73.17zm-7.95 8.04l-.17-49.72-49.73.17-.17-49.72-49.72.17-.18-49.72-1 .01-49.72.17.01 2h0l48.72-.17.18 49.72 49.72-.17.17 49.72 49.72-.17.17 49.72 49.73-.17.03 10.53h2l-.04-12.54-49.72.17zm-7.95 8.13l-.17-49.73-49.72.18-.18-49.73-49.72.18-.17-49.72h-1.01l-49.71.17.01 2h0l48.72-.17.17 49.72 49.72-.17.17 49.72 49.73-.17.17 49.72 49.72-.17.01 2.41h2l-.02-4.42-49.72.18zm-57.85-41.51l-.17-49.72-49.72.17-.18-49.72h-1l-49.72.18.01 1.99v.01l48.72-.17.17 49.72 49.72-.17.18 49.72 49.72-.17.15 43.91h2l-.16-45.92-49.72.17zm-8.13 8.12l-.17-49.73-49.72.18-.18-49.73-1 .01-49.72.17.01 2h0l48.72-.17.18 49.72 49.72-.17.17 49.72 49.72-.17.13 35.8h2l-.13-37.81-49.73.18zm-7.95 8.04l-.18-49.72-49.72.17-.17-49.72h-1.01l-49.71.18v1.99.01l48.73-.17.17 49.72 49.72-.17.17 49.72 49.73-.17.09 27.75h2l-.1-29.76-49.72.17zm-8.31 8.33l-.17-49.72-49.72.17-.18-49.72h-1l-49.72.18.01 1.99v.01l48.72-.17.17 49.72 49.73-.17.17 49.72 49.72-.17.07 19.42h2l-.08-21.43-49.72.17zm-7.96 8.05l-.17-49.72-49.72.17-.18-49.72h-1l-49.72.17.01 2h0l48.72-.17.18 49.73 49.72-.18.17 49.72 49.72-.17.04 11.38h2l-.04-13.39-49.73.18zm-8.12 8.11l-.18-49.72-49.72.17-.17-49.72h-1.01l-49.71.18v2h0l48.73-.17.17 49.72 49.72-.17.17 49.72 49.73-.17.01 3.26h2l-.02-5.27-49.72.17zm-57.86-41.5l-.17-49.72h-1.01l-49.71.17.01 2h0l48.72-.17.17 49.72 49.72-.17.16 44.77h2l-.16-46.77-49.73.17zm-7.72 7.81l-.17-49.72h-1l-49.72.17.01 2h0l48.72-.17.17 49.73 49.73-.18.12 36.96h2l-.13-38.96-49.73.17zm-7.95 8.04l-.18-49.72-1 .01-49.72.17.01 2h0l48.72-.17.17 49.72 49.73-.17.1 28.91h2l-.11-30.92-49.72.17zm-8.13 8.12l-.17-49.72h-1.01l-49.71.17v2h0l48.73-.17.17 49.73 49.72-.18.07 20.8h2l-.08-22.8-49.72.17zm-7.96 8.04l-.17-49.72-1.01.01-49.71.17.01 2h0l48.72-.17.17 49.72 49.72-.17.05 12.75h2l-.05-14.76-49.73.17zm-8.3 8.34l-.17-49.73-1.01.01-49.72.17.01 2h0l48.72-.17.18 49.72 49.72-.17.01 4.42h2l-.02-6.43-49.72.18zm-9.14-41.68l-49.71.17v2h0l48.73-.16.15 45.92h2l-.16-47.93h-1.01zm-8.13 8.12l-49.71.17.01 2h0l48.72-.17.13 37.81h2l-.14-39.82-1.01.01zm-7.95 8.04l-49.72.17.01 2h0l48.72-.16.1 29.76h2l-.11-31.77h-1zm-7.95 8.12l-49.71.18v1.99.01l48.73-.17.07 21.64h2L994.1 691h-1.01zm-7.96 8.05l-49.71.17.01 2h0l48.72-.17.05 13.6h2l-.06-15.6h-1.01zm-8.12 8.11l-49.72.18.01 1.99v.01l48.72-.17.02 5.48h2l-.03-7.49h-1z"/></g><path d="M-.26-.23h2407.88v714.88H-.26z" opacity=".69" fill="url(#A)"/></svg>